<?xml version="1.0" encoding="utf-8"?>
<!-- Generator: Adobe Illustrator 18.0.0, SVG Export Plug-In . SVG Version: 6.00 Build 0)  -->
<!DOCTYPE svg PUBLIC "-//W3C//DTD SVG 1.1//EN" "http://www.w3.org/Graphics/SVG/1.1/DTD/svg11.dtd">
<svg version="1.1" id="Layer_1" xmlns="http://www.w3.org/2000/svg" xmlns:xlink="http://www.w3.org/1999/xlink" x="0px" y="0px"
	 viewBox="0 0 443.3 408.6" enable-background="new 0 0 443.3 408.6" xml:space="preserve">
<g>
	<g opacity="0.4">
		<path fill="#486DB5" d="M32.1,169.6c5.1,57.4,136.4,152.8,229.5,142.3c93.1-10.5,112.9-123.1,107.8-180.5
			c-5.1-57.4-84.8-95.4-177.9-84.9C98.4,57.1,27,112.2,32.1,169.6z"/>
	</g>
	<g opacity="0.4">
		<path fill="#486DB5" d="M74.2,285.4c20,59.6,100.8,84.4,166.2,72.4c65.4-12,167.1-80.2,147.2-217.4c-7.7-53.4-48.1-151-182.1-97.8
			C131.2,72,46.6,203,74.2,285.4z"/>
	</g>
	<g>
		<path fill="#486DB5" d="M375.5,88.1c-67-67-228.3-52-277-3.4c-48.6,48.6-27.7,174.1,39.3,241c67,67,132.9,91.8,153.9-30.8
			C304.4,221.1,442.5,155.1,375.5,88.1z"/>
	</g>
	<path id="XMLID_19_" fill="#FFFFFF" d="M229.1,162.6v-15.5c0-7.5,5-9.3,8.6-9.3c3.5,0,21.7,0,21.7,0v-33.2l-29.9-0.1
		c-33.2,0-40.8,24.7-40.8,40.6v17.5h-19.2V186v15.3h19.4c0,43.9,0,96.8,0,96.8h38.7c0,0,0-53.5,0-96.8h28.7l1.4-15.2l2.1-23.5H229.1
		z"/>
</g>
</svg>
