<?xml version="1.0" encoding="utf-8"?>
<!-- Generator: Adobe Illustrator 18.0.0, SVG Export Plug-In . SVG Version: 6.00 Build 0)  -->
<!DOCTYPE svg PUBLIC "-//W3C//DTD SVG 1.1//EN" "http://www.w3.org/Graphics/SVG/1.1/DTD/svg11.dtd">
<svg version="1.1" id="Layer_1" xmlns="http://www.w3.org/2000/svg" xmlns:xlink="http://www.w3.org/1999/xlink" x="0px" y="0px"
	 viewBox="0 0 443.3 408.6" enable-background="new 0 0 443.3 408.6" xml:space="preserve">
<g>
	<g opacity="0.4">
		<path fill="#0F7CB6" d="M28.2,168.8c4.9,57.4,135.8,153.3,229,143.1c93.2-10.2,113.3-122.7,108.4-180.1
			c-4.9-57.4-84.5-95.7-177.6-85.5C94.8,56.6,23.3,111.4,28.2,168.8z"/>
	</g>
	<g opacity="0.4">
		<path fill="#0F7CB6" d="M69.8,284.7c19.8,59.7,100.5,84.7,166,73c65.5-11.8,167.3-79.6,148-216.9c-7.5-53.4-47.5-151.2-181.7-98.5
			C127.6,71.6,42.5,202.3,69.8,284.7z"/>
	</g>
	<g>
		<path fill="#0F7CB6" d="M371.9,88.5c-66.8-67.2-228.1-52.8-276.9-4.4c-48.8,48.5-28.3,174,38.4,241.2
			c66.8,67.2,132.6,92.3,154-30.2C300.3,221.3,438.6,155.7,371.9,88.5z"/>
	</g>
	<g>
		<polygon fill="#FFFFFF" points="139,172.3 139,245.8 174.1,245.8 174.1,166.5 174.1,145.8 139,145.8 		"/>
		<path fill="#FFFFFF" d="M156.5,95.8c-9.7,0-17.6,7.8-17.6,17.5c0,9.7,7.8,17.5,17.6,17.5c9.7,0,17.6-7.8,17.6-17.5
			C174.1,103.7,166.3,95.8,156.5,95.8z"/>
		<path fill="#FFFFFF" d="M288.8,176.5c-2.4-18.8-11.1-30.7-36.6-30.7c-15.2,0-25.4,5.6-29.5,13.5h-0.4v-13.5h-28V165v80.8h29.3
			v-49.5c0-13.1,2.5-25.7,18.7-25.7c16,0,17.3,14.9,17.3,26.6v48.7h30.1v-54.9C289.5,185.7,289.3,180.9,288.8,176.5z"/>
	</g>
</g>
</svg>
