<?xml version="1.0" encoding="utf-8"?>
<!-- Generator: Adobe Illustrator 18.0.0, SVG Export Plug-In . SVG Version: 6.00 Build 0)  -->
<!DOCTYPE svg PUBLIC "-//W3C//DTD SVG 1.1//EN" "http://www.w3.org/Graphics/SVG/1.1/DTD/svg11.dtd">
<svg version="1.1" id="Layer_1" xmlns="http://www.w3.org/2000/svg" xmlns:xlink="http://www.w3.org/1999/xlink" x="0px" y="0px"
	 viewBox="0 0 443.3 408.6" enable-background="new 0 0 443.3 408.6" xml:space="preserve">
<g>
	<g opacity="0.4">
		<path d="M24.5,168.8c4.9,57.4,135.8,153.3,229,143.1c93.2-10.2,113.3-122.7,108.4-180.1c-4.9-57.4-84.5-95.7-177.6-85.5
			C91.2,56.6,19.6,111.4,24.5,168.8z"/>
	</g>
	<g opacity="0.4">
		<path d="M66.2,284.7c19.8,59.7,100.5,84.7,166,73c65.5-11.8,167.3-79.6,148-216.9c-7.5-53.4-47.5-151.2-181.7-98.5
			C123.9,71.6,38.9,202.3,66.2,284.7z"/>
	</g>
	<g>
		<path d="M368.2,88.5c-66.8-67.2-228.1-52.8-276.9-4.4c-48.8,48.5-28.3,174,38.4,241.2c66.8,67.2,132.6,92.3,154-30.2
			C296.6,221.3,435,155.7,368.2,88.5z"/>
	</g>
</g>
<path fill="#FFFFFF" d="M140.5,141.8c0.2-2.1-0.6-4.1-2.1-5.5l-15.8-19.1v-2.8h49.2l38.1,83.5l33.5-83.5h46.9v2.8l-13.6,13
	c-1.2,0.9-1.7,2.4-1.5,3.8v95.5c-0.2,1.4,0.3,2.9,1.5,3.8l13.2,13v2.8h-66.7v-2.8l13.7-13.3c1.3-1.3,1.3-1.7,1.3-3.8V152l-38.1,96.8
	H195L150.7,152v64.9c-0.4,2.7,0.5,5.5,2.5,7.5l17.8,21.7v2.8h-50.5V246l17.8-21.7c1.9-2,2.7-4.8,2.3-7.5V141.8z"/>
</svg>
