<?xml version="1.0" encoding="utf-8"?>
<!-- Generator: Adobe Illustrator 18.0.0, SVG Export Plug-In . SVG Version: 6.00 Build 0)  -->
<!DOCTYPE svg PUBLIC "-//W3C//DTD SVG 1.1//EN" "http://www.w3.org/Graphics/SVG/1.1/DTD/svg11.dtd">
<svg version="1.1" id="Layer_1" xmlns="http://www.w3.org/2000/svg" xmlns:xlink="http://www.w3.org/1999/xlink" x="0px" y="0px"
	 viewBox="0 0 443.3 408.6" enable-background="new 0 0 443.3 408.6" xml:space="preserve">
<g>
	<g opacity="0.4">
		<path fill="#D71F26" d="M27.6,168.8c4.9,57.4,135.8,153.3,229,143.1C349.8,301.8,370,189.3,365,131.9
			c-4.9-57.4-84.5-95.7-177.6-85.5C94.2,56.6,22.7,111.4,27.6,168.8z"/>
	</g>
	<g opacity="0.4">
		<path fill="#D71F26" d="M69.3,284.7c19.8,59.7,100.5,84.7,166,73c65.5-11.8,167.3-79.6,148-216.9c-7.5-53.4-47.5-151.2-181.7-98.5
			C127,71.6,42,202.3,69.3,284.7z"/>
	</g>
	<g>
		<path fill="#D71F26" d="M371.3,88.5c-66.8-67.2-228.1-52.8-276.9-4.4c-48.8,48.5-28.3,174,38.4,241.2
			c66.8,67.2,132.6,92.3,154-30.2C299.7,221.3,438,155.7,371.3,88.5z"/>
	</g>
</g>
<g>
	<path fill="#FFFFFF" d="M301.7,158.8c0-12.9-10.5-23.4-23.4-23.4c-6.5,0-12.3,2.6-16.6,6.9c-13.1-8.5-29.8-13.8-48.2-14.7
		c0-7.8,3.5-15.1,9.6-20c6.1-4.9,14-6.7,21.6-5l1,0.2c0,0.3,0,0.5,0,0.8c0,10.8,8.8,19.6,19.6,19.6c10.8,0,19.6-8.8,19.6-19.6
		c0-10.8-8.8-19.6-19.6-19.6c-6.9,0-13,3.6-16.5,9.1l-1.9-0.4c-10.6-2.4-21.6,0.2-30.1,7c-8.5,6.8-13.4,17-13.4,27.9
		c-18.4,0.8-35.1,6.2-48.2,14.7c-4.2-4.3-10.1-6.9-16.6-6.9c-12.9,0-23.4,10.5-23.4,23.4c0,9,5.1,16.8,12.6,20.7
		c-0.6,2.9-0.9,5.9-0.9,8.9c0,33.7,36.5,61,81.6,61s81.6-27.3,81.6-61c0-3-0.3-6-0.9-8.9C296.6,175.6,301.7,167.8,301.7,158.8z
		 M265.2,94.1c5.2,0,9.4,4.2,9.4,9.4c0,5.2-4.2,9.4-9.4,9.4c-5.2,0-9.4-4.2-9.4-9.4C255.8,98.4,260,94.1,265.2,94.1z M125.2,158.8
		c0-7.3,6-13.3,13.3-13.3c3.1,0,6,1.1,8.3,2.9c-7.1,6.1-12.6,13.3-16.1,21.2C127.4,167.1,125.2,163.2,125.2,158.8z M260,223.4
		c-13.7,10.2-32,15.8-51.6,15.8s-38-5.6-51.6-15.8c-12.8-9.6-19.8-22-19.8-35c0-13,7-25.4,19.8-35c13.7-10.2,32-15.8,51.6-15.8
		s38,5.6,51.6,15.8c12.8,9.6,19.8,22,19.8,35C279.9,201.4,272.8,213.8,260,223.4z M286,169.6c-3.4-7.9-8.9-15.1-16.1-21.2
		c2.3-1.8,5.2-2.9,8.3-2.9c7.3,0,13.3,6,13.3,13.3C291.6,163.2,289.4,167.1,286,169.6z"/>
	<g>
		<circle fill="#FFFFFF" cx="178.6" cy="174.2" r="10.7"/>
		<circle fill="#FFFFFF" cx="238.2" cy="174.2" r="10.7"/>
	</g>
	<path fill="#FFFFFF" d="M233.7,200.1c-7.5,6.9-17.3,10.6-27.5,10.6c-11.4,0-22-4.6-29.8-13c-1.9-2-5.1-2.2-7.1-0.2
		c-2,1.9-2.2,5.1-0.2,7.1c9.6,10.3,23.2,16.2,37.2,16.2c12.7,0,24.9-4.7,34.3-13.3c2.1-1.9,2.2-5.1,0.3-7.1
		C238.9,198.3,235.7,198.2,233.7,200.1z"/>
</g>
</svg>
