<?xml version="1.0" encoding="utf-8"?>
<!-- Generator: Adobe Illustrator 18.0.0, SVG Export Plug-In . SVG Version: 6.00 Build 0)  -->
<!DOCTYPE svg PUBLIC "-//W3C//DTD SVG 1.1//EN" "http://www.w3.org/Graphics/SVG/1.1/DTD/svg11.dtd">
<svg version="1.1" id="Layer_1" xmlns="http://www.w3.org/2000/svg" xmlns:xlink="http://www.w3.org/1999/xlink" x="0px" y="0px"
	 viewBox="0 0 443.3 408.6" enable-background="new 0 0 443.3 408.6" xml:space="preserve">
<g opacity="0.4">
	<path fill="#FCCC2C" d="M-613.9,68.3c5.1,57.4,136.4,152.8,229.5,142.3c93.1-10.5,112.9-123.1,107.8-180.5
		c-5.1-57.4-84.8-95.4-177.9-84.9C-547.7-44.1-619.1,10.9-613.9,68.3z"/>
</g>
<g opacity="0.4">
	<path fill="#FCCC2C" d="M-571.9,184.1c20,59.6,100.8,84.4,166.2,72.4c65.4-12,167.1-80.2,147.2-217.4
		c-7.7-53.4-48.1-151-182.1-97.8C-514.9-29.3-599.5,101.7-571.9,184.1z"/>
</g>
<g>
	<path fill="#FCCC2C" d="M-270.5-13.2c-67-67-228.3-52-277-3.4c-48.6,48.6-27.7,174.1,39.3,241c67,67,132.9,91.8,153.9-30.8
		C-341.7,119.8-203.6,53.8-270.5-13.2z"/>
</g>
<g opacity="0.4">
	<path fill="#2DAF4C" d="M-1031.8,500.1c4.9,57.4,135.8,153.3,229,143.1c93.2-10.2,113.3-122.7,108.4-180.1
		c-4.9-57.4-84.5-95.7-177.6-85.5C-965.2,387.8-1036.7,442.7-1031.8,500.1z"/>
</g>
<g opacity="0.4">
	<path fill="#2DAF4C" d="M-990.1,616c19.8,59.7,100.5,84.7,166,73c65.5-11.8,167.3-79.6,148-216.9c-7.5-53.4-47.5-151.2-181.7-98.5
		C-932.4,402.8-1017.4,533.5-990.1,616z"/>
</g>
<g>
	<path fill="#2DAF4C" d="M-688.1,419.8c-66.8-67.2-228.1-52.8-276.9-4.4c-48.8,48.5-28.3,174,38.4,241.2
		c66.8,67.2,132.6,92.3,154-30.2C-759.7,552.5-621.3,487-688.1,419.8z"/>
</g>
<g>
	<g opacity="0.4">
		<path fill="#486DB5" d="M-1471.6,68.3c5.1,57.4,136.4,152.8,229.5,142.3c93.1-10.5,112.9-123.1,107.8-180.5
			c-5.1-57.4-84.8-95.4-177.9-84.9C-1405.4-44.1-1476.7,10.9-1471.6,68.3z"/>
	</g>
	<g opacity="0.4">
		<path fill="#486DB5" d="M-1429.5,184.1c20,59.6,100.8,84.4,166.2,72.4c65.4-12,167.1-80.2,147.2-217.4
			c-7.7-53.4-48.1-151-182.1-97.8C-1372.5-29.3-1457.1,101.7-1429.5,184.1z"/>
	</g>
	<g>
		<path fill="#486DB5" d="M-1128.2-13.2c-67-67-228.3-52-277-3.4c-48.6,48.6-27.7,174.1,39.3,241c67,67,132.9,91.8,153.9-30.8
			C-1199.3,119.8-1061.2,53.8-1128.2-13.2z"/>
	</g>
	<path id="XMLID_19_" fill="#FFFFFF" d="M-1274.6,61.3V45.8c0-7.5,5-9.3,8.6-9.3c3.5,0,21.7,0,21.7,0V3.3l-29.9-0.1
		c-33.2,0-40.8,24.7-40.8,40.6v17.5h-19.2v23.4v15.3h19.4c0,43.9,0,96.8,0,96.8h38.7c0,0,0-53.5,0-96.8h28.7l1.4-15.2l2.1-23.5
		H-1274.6z"/>
</g>
<g>
	<g opacity="0.4">
		<linearGradient id="SVGID_1_" gradientUnits="userSpaceOnUse" x1="-1043.7676" y1="67.1145" x2="-705.4672" y2="67.1145">
			<stop  offset="0" style="stop-color:#FDBB5B"/>
			<stop  offset="0.3273" style="stop-color:#EF374C"/>
			<stop  offset="0.6485" style="stop-color:#A2499B"/>
			<stop  offset="1" style="stop-color:#545EAA"/>
		</linearGradient>
		<path fill="url(#SVGID_1_)" d="M-1043.5,58c5.1,57.4,136.4,152.8,229.5,142.3c93.1-10.5,112.9-123.1,107.8-180.5
			c-5.1-57.4-84.8-95.4-177.9-84.9C-977.3-54.5-1048.6,0.5-1043.5,58z"/>
	</g>
	<g opacity="0.4">
		<linearGradient id="SVGID_2_" gradientUnits="userSpaceOnUse" x1="-1006.8032" y1="82.2427" x2="-685.5012" y2="82.2427">
			<stop  offset="0" style="stop-color:#FDBB5B"/>
			<stop  offset="0.3273" style="stop-color:#EF374C"/>
			<stop  offset="0.6485" style="stop-color:#A2499B"/>
			<stop  offset="1" style="stop-color:#545EAA"/>
		</linearGradient>
		<path fill="url(#SVGID_2_)" d="M-1001.5,173.7c20,59.6,100.8,84.4,166.2,72.4c65.4-12,167.1-80.2,147.2-217.4
			c-7.7-53.4-48.1-151-182.1-97.8C-944.5-39.7-1029.1,91.3-1001.5,173.7z"/>
	</g>
	<g>
		<linearGradient id="SVGID_3_" gradientUnits="userSpaceOnUse" x1="-967.5355" y1="175.9824" x2="-769.5156" y2="7.9654">
			<stop  offset="0" style="stop-color:#FDBB5B"/>
			<stop  offset="0.3273" style="stop-color:#EF374C"/>
			<stop  offset="0.6485" style="stop-color:#A2499B"/>
			<stop  offset="1" style="stop-color:#545EAA"/>
		</linearGradient>
		<path fill="url(#SVGID_3_)" d="M-700.1-23.6c-67-67-228.3-52-277-3.4c-48.6,48.6-27.7,174.1,39.3,241c67,67,132.9,91.8,153.9-30.8
			C-771.2,109.4-633.1,43.4-700.1-23.6z"/>
	</g>
	<g>
		<path fill="#FFFFFF" d="M-822.8,139.4h-82.5c-17.1,0-31-13.6-31-30.3V24.2c0-16.7,13.9-30.3,31-30.3h82.5c17.1,0,31,13.6,31,30.3
			v84.9C-791.8,125.8-805.7,139.4-822.8,139.4 M-905.3,6.4c-10.2,0-18.5,8-18.5,17.8v84.9c0,9.8,8.3,17.8,18.5,17.8h82.5
			c10.2,0,18.5-8,18.5-17.8V24.2c0-9.8-8.3-17.8-18.5-17.8H-905.3z"/>
		<path fill="#FFFFFF" d="M-864,104.4c-20.8,0-37.8-16.9-37.8-37.8c0-20.8,16.9-37.8,37.8-37.8c20.8,0,37.8,16.9,37.8,37.8
			C-826.3,87.5-843.2,104.4-864,104.4 M-864,41.4c-13.9,0-25.3,11.3-25.3,25.3c0,13.9,11.3,25.3,25.3,25.3
			c13.9,0,25.3-11.3,25.3-25.3C-838.8,52.7-850.1,41.4-864,41.4z"/>
		<path fill="#FFFFFF" d="M-814.7,27c0,4.9-3.9,8.8-8.8,8.8c-4.9,0-8.8-4-8.8-8.8c0-4.9,4-8.8,8.8-8.8
			C-818.6,18.2-814.7,22.1-814.7,27"/>
	</g>
</g>
<path fill="#FFFFFF" d="M-357.6,116.8L-357.6,116.8l-0.1-0.1l0,0v0c-2-1.3-4-1.4-5.2-1.9l-0.1,0c-8.5-2.7-15.9-8.5-21.4-15.6
	c-3.1-4-5.7-8.3-7.4-12.8l0-0.1c-0.7-2-0.7-4.2,0.3-5.5l0,0c1.5-2.2,4.4-3.6,7.4-4.7l0,0c3.3-1.1,7-2.5,10-5.1l0,0
	c0.5-0.4,1-1,1.4-1.9c0.1-0.2,0.2-0.4,0.3-0.7c0.2-0.8,0.2-1.8-0.2-2.6v0c-0.9-1.8-2.4-2.7-3.5-3.3h0c-1.9-1.1-4.1-1.2-6-0.5h0l0,0
	c-2.1,0.6-3.7,1.4-5.3,1.5l-0.1,0c-2.2,0.4-4.4,0.5-6-0.1c0-0.2,0-0.7-0.1-1.3h0c-0.1-3.6,0.2-7.4,0.3-11.3v0
	c0.2-5.9,0.4-12-0.5-18.1l0-0.1c-1.9-10.3-8.5-19.2-16.9-25.1c-6.1-4.3-13.4-6.7-20.7-7.4h0c-2.5-0.2-5-0.3-7.4-0.3
	c-10,0.1-20.3,2.7-28.4,9c-6,4.7-10.8,11-13.8,18v0c-2.9,7.2-2.6,14.9-2.2,22v0c0.2,5,0.8,9.8,0.3,14.4c0,0.2,0,0.2-0.1,0.3
	c-2.2,0.4-4.7,0.3-7.1-0.2h0c-1.7-0.3-3.4-1-5.4-1.5l-0.1,0c-1.9-0.5-3.9,0.1-5.3,1.2l-0.1,0l-0.1,0.1c-1.2,0.8-2.8,2.1-2.9,4.4
	l0,0.4v0c0.3,1.3,1.1,2.3,1.8,3c0.7,0.6,1.4,1.1,1.9,1.4l0.1,0.1c3.6,2.4,7.7,3.5,11.2,4.8h0c2.4,1.1,4.5,2.7,5,4.8
	c0.6,2.6-0.5,5.6-2,8.6v0c-3.9,7.8-9.8,14.5-17,19.4c-3.8,2.6-8,4.5-12.4,5.7l-0.2,0.1c-0.9,0.3-3.1,0.6-4.4,2.6
	c-0.1,0.1-0.2,0.3-0.2,0.5c-0.5,1.3,0.1,2.7,0.7,3.5c0.6,0.7,1.3,1.2,1.9,1.5l0.1,0.1c3.7,2.1,7.8,3.1,11.5,4l0,0
	c2.7,0.6,5.2,0.9,7.2,1.8c0.1,0.2,0.3,0.8,0.8,2c0.7,2,1,4.5,1.7,7c0.2,0.7,0.8,1.3,1.5,1.4c1.7,0.4,2.6-0.2,2.8-0.2l0.2,0
	c6.2-1.1,12.5-2,18.2-0.6h0c6,1.6,11.2,5.7,17.1,9.2l0,0v0c3.9,2.4,8.4,4.8,13.6,5v0h0c3.9,0.2,7.8,0,11.6-0.3h0.1
	c3.2-0.3,6.3-1.4,9.1-3.1l0.1-0.1c6.2-3.5,11.6-7.7,17.7-10.3l0,0c2-0.7,4.4-0.7,7.1-0.8h0.1c5-0.2,10,0.1,14.9,0.8
	c0.2,0,0.3,0,0.5,0c0.6-0.1,1.4-0.5,1.7-0.9c0.3-0.4,0.4-0.8,0.5-1.1c0.1-0.5,0.3-0.7,0-0.3l0.2-0.4c0.9-3,1.4-5.7,2.9-7.3
	c0.7-0.6,1.8-1,3.1-0.9l0.3,0c4.3-0.5,8.2-2,11.9-3.3l0.1-0.1c1.4-0.6,3.4-1.3,4.8-3.2l0,0l0,0C-355.4,120-356,117.8-357.6,116.8"/>
<g>
	<g opacity="0.4">
		<path fill="#29B3DF" d="M-1448.1,507.9c4.9,57.4,135.8,153.3,229,143.1c93.2-10.2,113.3-122.7,108.4-180.1
			c-4.9-57.4-84.5-95.7-177.6-85.5C-1381.5,395.6-1453,450.5-1448.1,507.9z"/>
	</g>
	<g opacity="0.4">
		<path fill="#29B3DF" d="M-1406.4,623.8c19.8,59.7,100.5,84.7,166,73c65.5-11.8,167.3-79.6,148-216.9
			c-7.5-53.4-47.5-151.2-181.7-98.5C-1348.7,410.6-1433.7,541.3-1406.4,623.8z"/>
	</g>
	<g>
		<path fill="#29B3DF" d="M-1104.4,427.6c-66.8-67.2-228.1-52.8-276.9-4.4c-48.8,48.5-28.3,174,38.4,241.2
			c66.8,67.2,132.6,92.3,154-30.2C-1176,560.4-1037.7,494.8-1104.4,427.6z"/>
	</g>
	<path id="XMLID_47_" fill="#FFFFFF" d="M-1161.9,469.1c-6.9,3-14.4,5-22.3,5.9c8-4.7,14.2-12.1,17.1-21.1
		c-7.5,4.4-15.8,7.5-24.6,9.2c-7-7.4-17.1-12.1-28.3-12.1c-21.4-0.1-38.8,16.9-38.9,38c0,3,0.3,5.9,1,8.7
		c-32.2-1.7-60.7-17-79.7-40.1c-3.3,5.6-5.3,12.2-5.3,19.2c0,13.2,6.8,24.9,17.1,31.8c-6.4-0.2-12.3-2-17.5-4.8c0,0.2,0,0.3,0,0.5
		c0,4.9,0.9,9.5,2.6,13.8c4.7,12,15.3,21.1,28.4,23.7c-3.3,0.8-6.7,1.3-10.2,1.3c-2.5,0-4.9-0.3-7.3-0.7
		c4.9,15.2,19.2,26.3,36.1,26.6c-13.3,10.2-30,16.2-48.2,16.2c-3.1,0-6.2-0.2-9.2-0.6c17.1,10.9,37.5,17.3,59.3,17.3
		c60.6,0.2,98-41.6,107.9-85.1c1.8-7.7,2.7-15.4,2.7-23c0-1.6,0-3.3-0.1-4.9C-1173.7,483.4-1167.1,476.7-1161.9,469.1z"/>
</g>
<g>
	<path fill="#FFFFFF" d="M-759.9,513.2c-1-41.8-35.5-75.4-77.9-75.4c-41.9,0-76.1,32.8-77.9,73.9c-0.1,1.1-0.1,2.3-0.1,3.4
		c0,14.6,4.1,28.3,11.2,39.9l-14.1,41.5l43.2-13.7c11.2,6.1,24,9.6,37.7,9.6c43.1,0,77.9-34.6,77.9-77.3
		C-759.9,514.5-759.9,513.9-759.9,513.2 M-837.8,580.2c-13.3,0-25.7-4-36.1-10.8l-25.2,8l8.2-24.1c-7.8-10.7-12.5-23.9-12.5-38.1
		c0-2.1,0.1-4.2,0.3-6.3c3.2-32.9,31.2-58.7,65.2-58.7c34.4,0,62.7,26.5,65.3,59.9c0.1,1.7,0.2,3.4,0.2,5.1
		C-772.3,551-801.7,580.2-837.8,580.2z"/>
	<path fill="#FFFFFF" d="M-802.1,530.8c-1.9-1-11.3-5.5-13.1-6.2c-1.8-0.6-3-0.9-4.3,0.9c-1.3,1.9-4.9,6.2-6.1,7.4
		c-1.1,1.3-2.2,1.4-4.1,0.5c-1.9-0.9-8.1-3-15.4-9.4c-5.7-5-9.5-11.2-10.6-13.1c-1.1-1.9-0.1-2.9,0.8-3.9c0.9-0.9,1.9-2.2,2.9-3.3
		c0.3-0.3,0.5-0.6,0.7-0.9c0.5-0.7,0.8-1.4,1.2-2.3c0.6-1.3,0.3-2.4-0.2-3.3c-0.5-1-4.3-10.3-5.9-14.1c-1.6-3.8-3.2-3.2-4.3-3.2
		c-1.1,0-2.4-0.1-3.7-0.1c-1.3,0-3.3,0.5-5.1,2.4c-1.8,1.9-6.7,6.5-6.7,15.8c0,2.2,0.4,4.4,1,6.5c1.9,6.7,6.1,12.2,6.8,13.1
		c0.9,1.3,13.2,21,32.6,28.6c19.4,7.6,19.4,5.1,22.9,4.7c3.5-0.3,11.3-4.6,12.9-9c1.6-4.4,1.6-8.2,1.1-9
		C-798.9,532.2-800.2,531.7-802.1,530.8"/>
</g>
<g>
	<g opacity="0.4">
		<path fill="#145198" d="M28.2,168.8c4.9,57.4,135.8,153.3,229,143.1c93.2-10.2,113.3-122.7,108.4-180.1
			c-4.9-57.4-84.5-95.7-177.6-85.5C94.8,56.6,23.3,111.4,28.2,168.8z"/>
	</g>
	<g opacity="0.4">
		<path fill="#145198" d="M69.8,284.7c19.8,59.7,100.5,84.7,166,73c65.5-11.8,167.3-79.6,148-216.9c-7.5-53.4-47.5-151.2-181.7-98.5
			C127.6,71.6,42.5,202.3,69.8,284.7z"/>
	</g>
	<g>
		<path fill="#145198" d="M371.9,88.5c-66.8-67.2-228.1-52.8-276.9-4.4c-48.8,48.5-28.3,174,38.4,241.2
			c66.8,67.2,132.6,92.3,154-30.2C300.3,221.3,438.6,155.7,371.9,88.5z"/>
	</g>
</g>
<g>
	<path fill="#F9F9FA" d="M140.7,115.6c-8,6.7-16.2,14.9-19.6,25c-3.9,11.9,1.5,24,6.7,34.5c5.1,10.8,10.8,21.4,15.7,32.5
		c3.9,8.8,9.3,19.1,8,28.9c-1,7-3.4,13.7-4.6,20.6c-1,4.6,3.4,0,4.9-1.3c9-7.7,18.8-16.5,22.4-28.3c1.8-5.9,0.8-11.3-1.3-17
		c-2.1-5.4-4.4-10.6-6.7-16c-4.9-10.8-10-21.6-15.2-32.5c-2.1-3.9-4.1-8-5.9-12.1c-1.8-4.4-2.8-9-3.1-13.9
		c-0.3-3.9-0.3-7.5,0.3-11.3c0.3-2.8,1-5.4,1.3-8.2C143.8,114.8,142.5,114.3,140.7,115.6L140.7,115.6z M258.7,115.6
		c-8,6.7-16.2,14.9-19.6,25c-3.9,11.9,1.5,24,6.7,34.5c5.1,10.8,10.8,21.4,15.7,32.5c3.9,8.8,9.3,19.1,8,28.9
		c-1,7-3.4,13.7-4.6,20.6c-1,4.6,3.4,0,4.9-1.3c9-7.7,18.8-16.5,22.4-28.3c1.8-5.9,0.8-11.3-1.3-17c-2.1-5.4-4.4-10.6-6.7-16
		c-4.9-10.8-10-21.6-15.2-32.5c-2.1-3.9-4.1-8-5.9-12.1c-1.8-4.4-2.8-9-3.1-13.9c-0.3-3.9-0.3-7.5,0.3-11.3c0.3-2.8,1-5.4,1.3-8.2
		C261.8,114.8,260.5,114.3,258.7,115.6L258.7,115.6z"/>
	<path fill="#F9F9FA" d="M197.9,96c-9,7.5-18.8,16.5-24.2,27c-3.9,7.5-4.4,15.2-2.3,22.9c2.6,9.3,6.2,18.5,10,27.6
		c7.5,17.3,17.3,33.5,24.5,51c2.6,6.2,5.4,13.1,5.9,20.1c0.5,8.5-2.3,17.5-4.6,25.5c-0.5,2.3-2.1,5.4-1.8,7.7c0.3,1.8,1.3,1,2.3,0.3
		c4.4-3.4,8.8-7.2,12.6-11.1c10.6-10,22.7-23.5,21.6-39.2c-0.5-6.4-3.6-12.6-6.2-18.5c-2.8-6.9-5.9-13.6-9-20.3
		c-5.7-12.6-11.6-25-17.8-37.4c-2.1-4.4-4.6-8.5-6.2-12.9c-2.3-5.9-3.4-12.1-3.6-18.3c-0.3-4.6,0-9.5,0.5-14.2
		c0.3-3.1,1.3-5.9,1.3-9C201.8,94.5,200.3,94.2,197.9,96L197.9,96z"/>
</g>
</svg>
