<?xml version="1.0" encoding="utf-8"?>
<!-- Generator: Adobe Illustrator 18.0.0, SVG Export Plug-In . SVG Version: 6.00 Build 0)  -->
<!DOCTYPE svg PUBLIC "-//W3C//DTD SVG 1.1//EN" "http://www.w3.org/Graphics/SVG/1.1/DTD/svg11.dtd">
<svg version="1.1" id="Layer_1" xmlns="http://www.w3.org/2000/svg" xmlns:xlink="http://www.w3.org/1999/xlink" x="0px" y="0px"
	 viewBox="0 0 443.3 408.6" enable-background="new 0 0 443.3 408.6" xml:space="preserve">
<g>
	<g opacity="0.4">
		<path fill="#63A7DC" d="M28.2,168.8c4.9,57.4,135.8,153.3,229,143.1c93.2-10.2,113.3-122.7,108.4-180.1
			c-4.9-57.4-84.5-95.7-177.6-85.5C94.8,56.6,23.3,111.4,28.2,168.8z"/>
	</g>
	<g opacity="0.4">
		<path fill="#63A7DC" d="M69.8,284.7c19.8,59.7,100.5,84.7,166,73c65.5-11.8,167.3-79.6,148-216.9c-7.5-53.4-47.5-151.2-181.7-98.5
			C127.6,71.6,42.5,202.3,69.8,284.7z"/>
	</g>
	<g>
		<path fill="#63A7DC" d="M371.9,88.5c-66.8-67.2-228.1-52.8-276.9-4.4c-48.8,48.5-28.3,174,38.4,241.2
			c66.8,67.2,132.6,92.3,154-30.2C300.3,221.3,438.6,155.7,371.9,88.5z"/>
	</g>
</g>
<path fill="#FFFFFF" d="M280.6,108.5L110,175c-5.5,2.2-5.2,10.1,0.5,11.8l43.4,12.8L170,251c1.7,5.4,8.5,7,12.4,3l22.4-22.9l44,32.3
	c5.4,4,13.1,1,14.4-5.5l29.1-139.3C293.8,111.7,287.1,106,280.6,108.5z M259.2,139.4L180,209.6c-0.8,0.7-1.3,1.7-1.4,2.7l-3.1,27.1
	c-0.1,0.9-1.3,1-1.6,0.2l-12.6-40.5c-0.6-1.9,0.2-3.9,1.8-4.9l93.6-58.1C258.9,134.8,261.1,137.8,259.2,139.4z"/>
</svg>
