<?xml version="1.0" encoding="utf-8"?>
<!-- Generator: Adobe Illustrator 18.0.0, SVG Export Plug-In . SVG Version: 6.00 Build 0)  -->
<!DOCTYPE svg PUBLIC "-//W3C//DTD SVG 1.1//EN" "http://www.w3.org/Graphics/SVG/1.1/DTD/svg11.dtd">
<svg version="1.1" id="Layer_1" xmlns="http://www.w3.org/2000/svg" xmlns:xlink="http://www.w3.org/1999/xlink" x="0px" y="0px"
	 viewBox="0 0 443.3 408.6" enable-background="new 0 0 443.3 408.6" xml:space="preserve">
<g>
	<g opacity="0.4">
		<path fill="#29B3DF" d="M40.9,176c4.9,57.4,135.8,153.3,229,143.1c93.2-10.2,113.3-122.7,108.4-180.1
			c-4.9-57.4-84.5-95.7-177.6-85.5C107.5,63.7,36,118.6,40.9,176z"/>
	</g>
	<g opacity="0.4">
		<path fill="#29B3DF" d="M82.5,291.9c19.8,59.7,100.5,84.7,166,73c65.5-11.8,167.3-79.6,148-216.9c-7.5-53.4-47.5-151.2-181.7-98.5
			C140.3,78.7,55.2,209.4,82.5,291.9z"/>
	</g>
	<g>
		<path fill="#29B3DF" d="M384.5,95.7c-66.8-67.2-228.1-52.8-276.9-4.4c-48.8,48.5-28.3,174,38.4,241.2
			c66.8,67.2,132.6,92.3,154-30.2C313,228.4,451.3,162.9,384.5,95.7z"/>
	</g>
	<path id="XMLID_47_" fill="#FFFFFF" d="M327,137.2c-6.9,3-14.4,5-22.3,5.9c8-4.7,14.2-12.1,17.1-21.1c-7.5,4.4-15.8,7.5-24.6,9.2
		c-7-7.4-17.1-12.1-28.3-12.1c-21.4-0.1-38.8,16.9-38.9,38c0,3,0.3,5.9,1,8.7c-32.2-1.7-60.7-17-79.7-40.1
		c-3.3,5.6-5.3,12.2-5.3,19.2c0,13.2,6.8,24.9,17.1,31.8c-6.4-0.2-12.3-2-17.5-4.8c0,0.2,0,0.3,0,0.5c0,4.9,0.9,9.5,2.6,13.8
		c4.7,12,15.3,21.1,28.4,23.7c-3.3,0.8-6.7,1.3-10.2,1.3c-2.5,0-4.9-0.3-7.3-0.7c4.9,15.2,19.2,26.3,36.1,26.6
		c-13.3,10.2-30,16.2-48.2,16.2c-3.1,0-6.2-0.2-9.2-0.6c17.1,10.9,37.5,17.3,59.3,17.3c60.6,0.2,98-41.6,107.9-85.1
		c1.8-7.7,2.7-15.4,2.7-23c0-1.6,0-3.3-0.1-4.9C315.2,151.5,321.8,144.8,327,137.2z"/>
</g>
</svg>
