<?xml version="1.0" encoding="utf-8"?>
<!-- Generator: Adobe Illustrator 18.0.0, SVG Export Plug-In . SVG Version: 6.00 Build 0)  -->
<!DOCTYPE svg PUBLIC "-//W3C//DTD SVG 1.1//EN" "http://www.w3.org/Graphics/SVG/1.1/DTD/svg11.dtd">
<svg version="1.1" xmlns="http://www.w3.org/2000/svg" xmlns:xlink="http://www.w3.org/1999/xlink" x="0px" y="0px"
	 viewBox="0 0 360.1 384.3" enable-background="new 0 0 360.1 384.3" xml:space="preserve">
<g id="BACKGROUND" display="none">
	<linearGradient id="SVGID_1_" gradientUnits="userSpaceOnUse" x1="506.2379" y1="-79.9888" x2="10.7046" y2="425.989">
		<stop  offset="0" style="stop-color:#1F409D"/>
		<stop  offset="0.4986" style="stop-color:#2D2463"/>
		<stop  offset="1" style="stop-color:#4E0F82"/>
	</linearGradient>
	<rect x="0" y="-68.4" display="inline" fill="url(#SVGID_1_)" width="500" height="500"/>
</g>
<g id="OBJECTS">
	<g>
		<g>
			<g>
				
					<radialGradient id="SVGID_2_" cx="94.6254" cy="88.3402" r="106.8975" gradientTransform="matrix(1 0 0 0.9949 0 0.4508)" gradientUnits="userSpaceOnUse">
					<stop  offset="0" style="stop-color:#D3FFE6"/>
					<stop  offset="0.8516" style="stop-color:#000000;stop-opacity:0"/>
				</radialGradient>
				<path fill="url(#SVGID_2_)" d="M93.5,205.4L93.5,205.4c-1.1,0-2-0.9-2-2v-107c0-1.1,0.9-2,2-2l0,0c1.1,0,2,0.9,2,2v107
					C95.5,204.5,94.6,205.4,93.5,205.4z"/>
				
					<radialGradient id="SVGID_3_" cx="74.2287" cy="104.2881" r="106.8974" gradientTransform="matrix(1 0 0 0.9949 0 0.5322)" gradientUnits="userSpaceOnUse">
					<stop  offset="0" style="stop-color:#D3FFE6"/>
					<stop  offset="0.8516" style="stop-color:#000000;stop-opacity:0"/>
				</radialGradient>
				<path fill="url(#SVGID_3_)" d="M73.1,221.4L73.1,221.4c-1.1,0-2-0.9-2-2v-107c0-1.1,0.9-2,2-2l0,0c1.1,0,2,0.9,2,2v107
					C75.2,220.5,74.2,221.4,73.1,221.4z"/>
				
					<radialGradient id="SVGID_4_" cx="85.4407" cy="111.0159" r="106.8975" gradientTransform="matrix(1 0 0 0.9949 0 0.5665)" gradientUnits="userSpaceOnUse">
					<stop  offset="0" style="stop-color:#D3FFE6"/>
					<stop  offset="0.8516" style="stop-color:#000000;stop-opacity:0"/>
				</radialGradient>
				<path fill="url(#SVGID_4_)" d="M84.3,228.1L84.3,228.1c-1.1,0-2-0.9-2-2V119c0-1.1,0.9-2,2-2l0,0c1.1,0,2,0.9,2,2v107
					C86.4,227.2,85.4,228.1,84.3,228.1z"/>
			</g>
			<g>
				
					<radialGradient id="SVGID_5_" cx="273.1138" cy="51.6081" r="106.8975" gradientTransform="matrix(1 0 0 0.9949 0 0.2634)" gradientUnits="userSpaceOnUse">
					<stop  offset="0" style="stop-color:#D3FFE6"/>
					<stop  offset="0.8516" style="stop-color:#000000;stop-opacity:0"/>
				</radialGradient>
				<path fill="url(#SVGID_5_)" d="M272,168.7L272,168.7c-1.1,0-2-0.9-2-2v-107c0-1.1,0.9-2,2-2l0,0c1.1,0,2,0.9,2,2v107
					C274,167.8,273.1,168.7,272,168.7z"/>
				
					<radialGradient id="SVGID_6_" cx="252.7172" cy="67.556" r="106.8974" gradientTransform="matrix(1 0 0 0.9949 0 0.3447)" gradientUnits="userSpaceOnUse">
					<stop  offset="0" style="stop-color:#D3FFE6"/>
					<stop  offset="0.8516" style="stop-color:#000000;stop-opacity:0"/>
				</radialGradient>
				<path fill="url(#SVGID_6_)" d="M251.6,184.7L251.6,184.7c-1.1,0-2-0.9-2-2v-107c0-1.1,0.9-2,2-2l0,0c1.1,0,2,0.9,2,2v107
					C253.6,183.7,252.7,184.7,251.6,184.7z"/>
				
					<radialGradient id="SVGID_7_" cx="263.9292" cy="74.2838" r="106.8975" gradientTransform="matrix(1 0 0 0.9949 0 0.3791)" gradientUnits="userSpaceOnUse">
					<stop  offset="0" style="stop-color:#D3FFE6"/>
					<stop  offset="0.8516" style="stop-color:#000000;stop-opacity:0"/>
				</radialGradient>
				<path fill="url(#SVGID_7_)" d="M262.8,191.4L262.8,191.4c-1.1,0-2-0.9-2-2v-107c0-1.1,0.9-2,2-2l0,0c1.1,0,2,0.9,2,2v107
					C264.9,190.5,263.9,191.4,262.8,191.4z"/>
			</g>
		</g>
		<g>
			<linearGradient id="SVGID_8_" gradientUnits="userSpaceOnUse" x1="361.0706" y1="265.7304" x2="-301.2232" y2="313.0915">
				<stop  offset="0" style="stop-color:#55D1FF"/>
				<stop  offset="0.1138" style="stop-color:#4BB8DF;stop-opacity:0.8862"/>
				<stop  offset="0.5563" style="stop-color:#235868;stop-opacity:0.4437"/>
				<stop  offset="0.8604" style="stop-color:#0B1C1D;stop-opacity:0.1396"/>
				<stop  offset="1" style="stop-color:#010400;stop-opacity:0"/>
			</linearGradient>
			<path fill="url(#SVGID_8_)" d="M162,373.4c-1.9,0-3.8-0.5-5.5-1.5L21.8,294.1c-3.4-2-5.5-5.6-5.5-9.5s2.1-7.5,5.5-9.5L176,186.6
				c3.4-2,7.6-1.9,11,0l133.5,77.8c3.4,2,5.5,5.6,5.5,9.5c0,4-2.1,7.5-5.5,9.5l-152.9,88.4C165.8,372.9,163.9,373.4,162,373.4z
				 M181.4,186.1c-1.7,0-3.4,0.4-5,1.3L22.3,275.9c-3.1,1.8-5,5.1-5,8.7c0,3.6,1.9,6.9,5,8.7l134.7,77.8c3.1,1.8,6.9,1.8,10,0
				l152.9-88.4c3.1-1.8,5-5,5-8.7c0-3.6-1.9-6.9-5-8.7l-133.5-77.8C184.9,186.6,183.2,186.1,181.4,186.1z"/>
			<linearGradient id="SVGID_9_" gradientUnits="userSpaceOnUse" x1="290.9063" y1="345.8094" x2="3.8511" y2="185.7057">
				<stop  offset="0" style="stop-color:#55D1FF"/>
				<stop  offset="0.1138" style="stop-color:#4BB8DF;stop-opacity:0.8862"/>
				<stop  offset="0.5563" style="stop-color:#235868;stop-opacity:0.4437"/>
				<stop  offset="0.8604" style="stop-color:#0B1C1D;stop-opacity:0.1396"/>
				<stop  offset="1" style="stop-color:#010400;stop-opacity:0"/>
			</linearGradient>
			<path fill="url(#SVGID_9_)" d="M167.8,358.2l130.9-75.6c6-3.5,6-12.1,0-15.6l-114.2-66.6c-2.8-1.6-6.2-1.6-9,0L43.5,276.1
				c-6,3.5-6,12.1,0,15.6l115.3,66.6C161.6,359.8,165,359.8,167.8,358.2z"/>
			<g>
				<g>
					
						<linearGradient id="SVGID_10_" gradientUnits="userSpaceOnUse" x1="263.3629" y1="195.8632" x2="358.1287" y2="142.7235" gradientTransform="matrix(1 0 0 1 0 18.1336)">
						<stop  offset="0" style="stop-color:#55D1FF"/>
						<stop  offset="0.1138" style="stop-color:#4BB8DF;stop-opacity:0.8862"/>
						<stop  offset="0.5563" style="stop-color:#235868;stop-opacity:0.4437"/>
						<stop  offset="0.8604" style="stop-color:#0B1C1D;stop-opacity:0.1396"/>
						<stop  offset="1" style="stop-color:#010400;stop-opacity:0"/>
					</linearGradient>
					<path fill="url(#SVGID_10_)" d="M301.9,200.7l24.9-14.4c0.5,0.3,1.3,0.3,1.8,0c0.5-0.3,0.5-0.8,0-1.1c-0.5-0.3-1.4-0.3-1.9,0
						c-0.3,0.2-0.5,0.5-0.3,0.7l-25,14.5L301.9,200.7z M262.6,211.9c-0.5-0.2-1.1-0.1-1.6,0.1c-0.5,0.3-0.5,0.8,0,1.1
						c0.5,0.3,1.4,0.3,1.9,0c0.4-0.2,0.5-0.6,0.2-0.9l73.4-42.4c0.5,0.2,1.1,0.1,1.6-0.1c0.5-0.3,0.5-0.8,0-1.1
						c-0.5-0.3-1.4-0.3-1.9,0c-0.4,0.2-0.5,0.6-0.2,0.9L262.6,211.9z M336.5,176l-40.9,23.6c-0.5-0.2-1.1-0.1-1.6,0.1
						c-0.5,0.3-0.5,0.8,0,1.1c0.5,0.3,1.4,0.3,1.9,0c0.4-0.2,0.5-0.6,0.2-0.9l39.7-22.9v7.7l-24.8,14.3c-0.5-0.2-1.1-0.1-1.6,0.1
						c-0.5,0.3-0.5,0.8,0,1.1c0.5,0.3,1.4,0.3,1.9,0c0.4-0.2,0.5-0.6,0.2-0.9l25-14.4L336.5,176z M281.5,196.5l44.7-25.8
						c0.5,0.2,1.1,0.1,1.6-0.1c0.5-0.3,0.5-0.8,0-1.1c-0.5-0.3-1.4-0.3-1.9,0c-0.4,0.2-0.5,0.6-0.2,0.9l-43.5,25.1l0-7.3l33.6-19.4
						c0.5,0.2,1.1,0.1,1.6-0.1c0.5-0.3,0.5-0.8,0-1.1c-0.5-0.3-1.4-0.3-1.9,0c-0.4,0.2-0.5,0.6-0.2,0.9l-33.8,19.5L281.5,196.5z
						 M287.6,188.5l0.5,0.3l45.1-26.1c0.5,0.2,1.1,0.1,1.6-0.1c0.5-0.3,0.5-0.8,0-1.1c-0.5-0.3-1.4-0.3-1.9,0
						c-0.4,0.2-0.5,0.6-0.2,0.9L287.6,188.5z M355.4,183.6c-0.5-0.3-1.4-0.3-1.9,0c-0.4,0.2-0.5,0.6-0.2,0.9l-39.7,22.9l-24,0
						l-17.4,10.1c-0.5-0.1-1,0-1.4,0.2c-0.5,0.3-0.5,0.8,0,1.1c0.5,0.3,1.4,0.3,1.9,0c0.5-0.3,0.5-0.7,0.1-1l17.1-9.9l24,0
						l39.9-23.1c0.5,0.2,1.1,0.1,1.6-0.1C356,184.3,356,183.9,355.4,183.6z M257,210.4c0.5,0.3,1.4,0.3,1.9,0
						c0.4-0.2,0.5-0.6,0.2-0.9l16.6-9.6l0-13.1l40.5-23.4c0.5,0.2,1.1,0.1,1.6-0.1c0.5-0.3,0.5-0.8,0-1.1s-1.4-0.3-1.9,0
						c-0.4,0.2-0.5,0.6-0.2,0.9l-40.7,23.5l0,13.1l-16.3,9.4c-0.5-0.2-1.1-0.1-1.6,0.1C256.5,209.6,256.5,210.1,257,210.4z
						 M286.3,203.8l25.4,0l20.7-11.9c0.5,0.2,1.1,0.1,1.6-0.1c0.5-0.3,0.5-0.8,0-1.1c-0.5-0.3-1.4-0.3-1.9,0
						c-0.4,0.2-0.5,0.6-0.2,0.9l-20.5,11.8l-25.4,0l-29.2,16.8c-0.5-0.2-1.1-0.1-1.6,0.1c-0.5,0.3-0.5,0.8,0,1.1
						c0.5,0.3,1.4,0.3,1.9,0c0.4-0.2,0.5-0.6,0.2-0.9L286.3,203.8z"/>
				</g>
			</g>
			<g>
				<g>
					
						<linearGradient id="SVGID_11_" gradientUnits="userSpaceOnUse" x1="113.2707" y1="286.3908" x2="-0.9798" y2="353.7013" gradientTransform="matrix(1 0 0 1 0 18.1336)">
						<stop  offset="0" style="stop-color:#55D1FF"/>
						<stop  offset="0.1138" style="stop-color:#4BB8DF;stop-opacity:0.8862"/>
						<stop  offset="0.5563" style="stop-color:#235868;stop-opacity:0.4437"/>
						<stop  offset="0.8604" style="stop-color:#0B1C1D;stop-opacity:0.1396"/>
						<stop  offset="1" style="stop-color:#010400;stop-opacity:0"/>
					</linearGradient>
					<path fill="url(#SVGID_11_)" d="M57.2,330.2l-24.9,14.4c-0.5-0.3-1.3-0.3-1.8,0c-0.5,0.3-0.5,0.8,0,1.1c0.5,0.3,1.4,0.3,1.9,0
						c0.3-0.2,0.5-0.5,0.3-0.7l25-14.5L57.2,330.2z M96.5,319c0.5,0.2,1.1,0.1,1.6-0.1c0.5-0.3,0.5-0.8,0-1.1
						c-0.5-0.3-1.4-0.3-1.9,0c-0.4,0.2-0.5,0.6-0.2,0.9l-73.4,42.4c-0.5-0.2-1.1-0.1-1.6,0.1c-0.5,0.3-0.5,0.8,0,1.1s1.4,0.3,1.9,0
						c0.4-0.2,0.5-0.6,0.2-0.9L96.5,319z M45.5,323.5l24,0l17.4-10.1c0.5,0.1,1,0,1.4-0.2c0.5-0.3,0.5-0.8,0-1.1
						c-0.5-0.3-1.4-0.3-1.9,0c-0.5,0.3-0.5,0.7-0.1,1l-17.1,9.9h-24L5.3,346.1c-0.5-0.2-1.1-0.1-1.6,0.1c-0.5,0.3-0.5,0.8,0,1.1
						c0.5,0.3,1.4,0.3,1.9,0c0.4-0.2,0.5-0.6,0.2-0.9L45.5,323.5z M22.6,354.9l40.9-23.6c0.5,0.2,1.1,0.1,1.6-0.1
						c0.5-0.3,0.5-0.8,0-1.1c-0.5-0.3-1.4-0.3-1.9,0c-0.4,0.2-0.5,0.6-0.2,0.9l-39.7,22.9v-7.7L48.1,332c0.5,0.2,1.1,0.1,1.6-0.1
						c0.5-0.3,0.5-0.8,0-1.1c-0.5-0.3-1.4-0.3-1.9,0c-0.4,0.2-0.5,0.6-0.2,0.9l-25,14.4L22.6,354.9z M103.9,309.5
						c-0.5-0.3-1.4-0.3-1.9,0c-0.4,0.2-0.5,0.6-0.2,0.9l-29,16.7l-25.4,0L26.8,339c-0.5-0.2-1.1-0.1-1.6,0.1c-0.5,0.3-0.5,0.8,0,1.1
						c0.5,0.3,1.4,0.3,1.9,0c0.4-0.2,0.5-0.6,0.2-0.9l20.5-11.8l25.4,0l29.2-16.8c0.5,0.2,1.1,0.1,1.6-0.1
						C104.4,310.2,104.4,309.7,103.9,309.5z M102.1,320.5c-0.5-0.3-1.4-0.3-1.9,0c-0.4,0.2-0.5,0.6-0.2,0.9l-16.6,9.6l0,13.1
						L43,367.4c-0.5-0.2-1.1-0.1-1.6,0.1c-0.5,0.3-0.5,0.8,0,1.1c0.5,0.3,1.4,0.3,1.9,0c0.4-0.2,0.5-0.6,0.2-0.9l40.7-23.5l0-13.1
						l16.3-9.4c0.5,0.2,1.1,0.1,1.6-0.1C102.7,321.3,102.7,320.8,102.1,320.5z M71.6,342.3l-0.5-0.3L26,368.1
						c-0.5-0.2-1.1-0.1-1.6,0.1c-0.5,0.3-0.5,0.8,0,1.1c0.5,0.3,1.4,0.3,1.9,0c0.4-0.2,0.5-0.6,0.2-0.9L71.6,342.3z M77.6,334.3
						l-44.7,25.8c-0.5-0.2-1.1-0.1-1.6,0.1c-0.5,0.3-0.5,0.8,0,1.1c0.5,0.3,1.4,0.3,1.9,0c0.4-0.2,0.5-0.6,0.2-0.9l43.5-25.1l0,7.3
						L43.3,362c-0.5-0.2-1.1-0.1-1.6,0.1c-0.5,0.3-0.5,0.8,0,1.1s1.4,0.3,1.9,0c0.4-0.2,0.5-0.6,0.2-0.9l33.8-19.5L77.6,334.3z"/>
				</g>
			</g>
			<linearGradient id="SVGID_12_" gradientUnits="userSpaceOnUse" x1="338.3884" y1="289.8381" x2="114.0894" y2="414.6136">
				<stop  offset="0" style="stop-color:#55D1FF"/>
				<stop  offset="0.1138" style="stop-color:#4BB8DF;stop-opacity:0.8862"/>
				<stop  offset="0.5563" style="stop-color:#235868;stop-opacity:0.4437"/>
				<stop  offset="0.8604" style="stop-color:#0B1C1D;stop-opacity:0.1396"/>
				<stop  offset="1" style="stop-color:#010400;stop-opacity:0"/>
			</linearGradient>
			<path fill="url(#SVGID_12_)" d="M259,334.1c-2-1.1-5.1-1.1-7.1,0c-2,1.1-2,3,0,4.1c2,1.1,5.1,1.1,7.1,0
				C261,337,261,335.2,259,334.1z M242.7,343.5c-2-1.1-5.1-1.1-7.1,0c-2,1.1-2,3,0,4.1c2,1.1,5.1,1.1,7.1,0
				C244.7,346.4,244.7,344.6,242.7,343.5z M226.5,352.9c-2-1.1-5.1-1.1-7.1,0c-2,1.1-2,3,0,4.1c2,1.1,5.1,1.1,7.1,0
				C228.4,355.8,228.4,354,226.5,352.9z M210.2,362.3c-2-1.1-5.1-1.1-7.1,0c-2,1.1-2,3,0,4.1c2,1.1,5.1,1.1,7.1,0
				C212.1,365.2,212.1,363.4,210.2,362.3z M324.1,296.5c-2-1.1-5.1-1.1-7.1,0c-2,1.1-2,3,0,4.1c2,1.1,5.1,1.1,7.1,0
				C326.1,299.4,326.1,297.6,324.1,296.5z M307.9,305.9c-2-1.1-5.1-1.1-7.1,0c-2,1.1-2,3,0,4.1s5.1,1.1,7.1,0
				C309.8,308.8,309.8,307,307.9,305.9z M291.6,315.3c-2-1.1-5.1-1.1-7.1,0c-2,1.1-2,3,0,4.1c2,1.1,5.1,1.1,7.1,0
				C293.5,318.2,293.5,316.4,291.6,315.3z M275.3,324.7c-2-1.1-5.1-1.1-7.1,0c-2,1.1-2,3,0,4.1c2,1.1,5.1,1.1,7.1,0
				C277.3,327.6,277.3,325.8,275.3,324.7z"/>
		</g>
		<g>
			<g>
				<linearGradient id="SVGID_13_" gradientUnits="userSpaceOnUse" x1="261.8813" y1="247.2744" x2="91.7" y2="238.818">
					<stop  offset="0" style="stop-color:#E8E9FF"/>
					<stop  offset="0.9996" style="stop-color:#C0C0F6"/>
				</linearGradient>
				<polygon fill="url(#SVGID_13_)" points="263.7,228.9 197.7,190.8 107.5,204.8 107.5,204.8 83.3,256.8 83.3,256.8 149.3,295 
					239.6,281 239.6,281 				"/>
				<g>
					<linearGradient id="SVGID_14_" gradientUnits="userSpaceOnUse" x1="274.279" y1="229.3445" x2="216.1884" y2="328.6447">
						<stop  offset="0" style="stop-color:#E8E9FF"/>
						<stop  offset="0.9996" style="stop-color:#C0C0F6"/>
					</linearGradient>
					<polygon fill="url(#SVGID_14_)" points="263.7,228.9 239.6,281 239.6,307.1 263.7,255.1 					"/>
					<linearGradient id="SVGID_15_" gradientUnits="userSpaceOnUse" x1="170.1802" y1="312.1324" x2="58.5487" y2="264.1188">
						<stop  offset="0" style="stop-color:#B6B9FE"/>
						<stop  offset="0.9996" style="stop-color:#5861D6"/>
					</linearGradient>
					<polygon fill="url(#SVGID_15_)" points="83.3,256.8 83.3,283 149.3,321.1 149.3,295 					"/>
					<linearGradient id="SVGID_16_" gradientUnits="userSpaceOnUse" x1="302.9852" y1="274.6233" x2="168.4343" y2="307.3921">
						<stop  offset="0" style="stop-color:#E8E9FF"/>
						<stop  offset="0.9996" style="stop-color:#C0C0F6"/>
					</linearGradient>
					<polygon fill="url(#SVGID_16_)" points="149.3,295 239.6,281 239.6,307.1 149.3,321.1 					"/>
				</g>
				<linearGradient id="SVGID_17_" gradientUnits="userSpaceOnUse" x1="269.7544" y1="247.4436" x2="93.0873" y2="324.4436">
					<stop  offset="0" style="stop-color:#4E0F82"/>
					<stop  offset="0.9996" style="stop-color:#FFFFFF;stop-opacity:0"/>
				</linearGradient>
				<polygon fill="url(#SVGID_17_)" points="263.2,230.1 263.2,253.9 239,306 148.8,320 83.3,282.2 83.3,283 149.3,321.1 
					239.6,307.1 263.7,255.1 263.7,228.9 				"/>
			</g>
			<g>
				<g>
					<linearGradient id="SVGID_18_" gradientUnits="userSpaceOnUse" x1="270.0851" y1="249.3597" x2="22.8998" y2="244.9614">
						<stop  offset="3.533300e-004" style="stop-color:#3A55CA"/>
						<stop  offset="1" style="stop-color:#2D2463"/>
					</linearGradient>
					<polygon fill="url(#SVGID_18_)" points="101.4,254.2 115.2,224.5 195.5,212.1 245.6,241 231.8,270.8 151.6,283.2 					"/>
					<linearGradient id="SVGID_19_" gradientUnits="userSpaceOnUse" x1="246.0886" y1="237.3191" x2="73.2839" y2="261.9153">
						<stop  offset="0" style="stop-color:#E8E9FF"/>
						<stop  offset="1" style="stop-color:#501275"/>
					</linearGradient>
					<path fill="url(#SVGID_19_)" d="M202.2,216l-83.5,48.2l1.3,0.7l83.5-48.2L202.2,216z M199.5,214.4L116,262.6l1.3,0.7l83.5-48.2
						L199.5,214.4z M196.7,212.8l-83.5,48.2l1.3,0.7l83.5-48.2L196.7,212.8z M191.4,212.8l-80.9,46.7l1.3,0.7l83.1-48L191.4,212.8z
						 M183.9,213.9l-76.1,44l1.3,0.7l78.3-45.2L183.9,213.9z M213.3,222.4l-83.5,48.2l1.3,0.7l83.5-48.2L213.3,222.4z M210.5,220.8
						L127,269l1.3,0.7l83.5-48.2L210.5,220.8z M207.7,219.2l-83.5,48.2l1.3,0.7l83.5-48.2L207.7,219.2z M205,217.6l-83.5,48.2
						l1.3,0.7l83.5-48.2L205,217.6z M131.2,222.1l-20.3,11.7l-0.9,2l24.6-14.2L131.2,222.1z M146.2,219.7l-39.4,22.7l-0.9,2
						l43.7-25.2L146.2,219.7z M123.7,223.2l-10.7,6.2l-0.9,2l15.1-8.7L123.7,223.2z M116.1,224.4l-1.2,0.7l-0.9,2l5.6-3.2
						L116.1,224.4z M161.3,217.4l-58.4,33.7l-0.9,2l62.8-36.3L161.3,217.4z M168.8,216.2l-66.6,38.5l1.3,0.7l68.8-39.7L168.8,216.2z
						 M176.3,215.1L105,256.3l1.3,0.7l73.6-42.5L176.3,215.1z M153.8,218.6l-48.9,28.2l-0.9,2l53.3-30.7L153.8,218.6z M138.7,220.9
						l-29.8,17.2l-0.9,2l34.2-19.7L138.7,220.9z M215.8,273.2l20.3-11.7l0.9-2l-24.6,14.2L215.8,273.2z M223.4,272.1l10.7-6.2l0.9-2
						l-15.1,8.7L223.4,272.1z M230.9,270.9l1.2-0.7l0.9-2l-5.6,3.2L230.9,270.9z M243.6,239.9l-68.8,39.7l3.4-0.5l66.6-38.5
						L243.6,239.9z M182.3,278.4l3.4-0.5l58.4-33.7l0.9-2L182.3,278.4z M193.3,276.7l48.9-28.2l0.9-2l-53.3,30.7L193.3,276.7z
						 M216,224l-83.5,48.2l1.3,0.7l83.5-48.2L216,224z M200.8,275.6l39.3-22.7l0.9-2l-43.7,25.2L200.8,275.6z M208.3,274.4
						l29.8-17.2l0.9-2l-34.2,19.7L208.3,274.4z M240.8,238.3l-73.6,42.5l3.4-0.5l71.4-41.2L240.8,238.3z M221.5,227.2L138,275.4
						l1.3,0.7l83.5-48.2L221.5,227.2z M227,230.3l-83.5,48.2l1.3,0.7l83.5-48.2L227,230.3z M224.3,228.7L140.8,277l1.3,0.7
						l83.5-48.2L224.3,228.7z M218.8,225.6l-83.5,48.2l1.3,0.7l83.5-48.2L218.8,225.6z M235.3,235.1l-83.1,48l3.4-0.5l80.9-46.7
						L235.3,235.1z M238,236.7l-78.3,45.2l3.4-0.5l76.1-44L238,236.7z M229.8,231.9l-83.5,48.2l1.3,0.7l83.5-48.2L229.8,231.9z
						 M232.5,233.5L149,281.7l1.3,0.7l83.5-48.2L232.5,233.5z"/>
				</g>
				<g>
					<linearGradient id="SVGID_20_" gradientUnits="userSpaceOnUse" x1="225.648" y1="244.6717" x2="88.9211" y2="237.7004">
						<stop  offset="0" style="stop-color:#E8E9FF"/>
						<stop  offset="0.9996" style="stop-color:#C0C0F6"/>
					</linearGradient>
					<path fill="url(#SVGID_20_)" d="M186.5,233.5c3.9-5.5,3.2-9.7-2.1-12.8c-3.9-2.2-8.5-2.9-14-1.9c-3.6,0.6-7.7,2-12.1,4.1
						l-6.5-3.7l-4.9,2.9l6.2,3.6c-0.6,0.3-1.2,0.6-1.8,1l-2,1.2h0l-6.1-3.5l-4.9,2.9l6.1,3.5l-12.6,7.2l4.9,2.8l0.6-0.4
						c0,0,0,0,0.1,0l4.1-2.4c3.2,1.7,9.6,5.3,19.1,10.8c10.6,6.1,17.3,10.1,20.3,12l-2.6,1.5c0,0,0,0,0,0l-2.1,1.2l4.9,2.9l12.6-7.2
						l6.2,3.6l4.9-2.9l-6.2-3.6l0,0l0.5-0.3c1.1-0.7,2.2-1.3,3.2-1.9l6.3,3.6l4.9-2.9l-6.6-3.8c4.6-3.3,7.4-6.3,8.1-8.8
						c1.1-3.7-0.4-6.8-4.5-9.2C204.4,229.3,196.4,229.6,186.5,233.5z M159.2,229.9c2.7-1.6,5.3-2.4,7.9-2.5c2.5-0.1,5,0.6,7.5,2
						c2.3,1.3,3.4,2.7,3.2,4c-0.2,1.3-1.7,2.9-4.6,4.5c-1.1,0.7-2.2,1.2-3.2,1.7l-13.6-7.9C157.3,231.1,158.2,230.5,159.2,229.9z
						 M201.5,244.4c-0.3,1.4-1.9,3-4.9,4.8c-2.5,1.4-4.4,2.2-5.9,2.3l-14.4-8.3c1-0.7,2.1-1.4,3.2-2.1c3.5-2,6.8-3.1,9.9-3.2
						c3.1-0.1,6,0.6,8.8,2.2C200.6,241.5,201.8,243,201.5,244.4z"/>
					<g>
						<linearGradient id="SVGID_21_" gradientUnits="userSpaceOnUse" x1="214.3136" y1="254.7195" x2="132.9469" y2="229.5995">
							<stop  offset="0" style="stop-color:#FFFFFF"/>
							<stop  offset="0.9996" style="stop-color:#FFFFFF;stop-opacity:0"/>
						</linearGradient>
						<path fill="url(#SVGID_21_)" d="M201,245.6c-0.7,1.1-2.2,2.3-4.4,3.6c-2.5,1.4-4.4,2.2-5.9,2.3l-14-8.1
							c-0.3,0.2-0.5,0.3-0.8,0.5l14.4,8.3c1.5-0.1,3.4-0.9,5.9-2.3C198.9,248.4,200.5,246.9,201,245.6z"/>
						<linearGradient id="SVGID_22_" gradientUnits="userSpaceOnUse" x1="216.2482" y1="248.4528" x2="134.8817" y2="223.3328">
							<stop  offset="0" style="stop-color:#FFFFFF"/>
							<stop  offset="0.9996" style="stop-color:#FFFFFF;stop-opacity:0"/>
						</linearGradient>
						<path fill="url(#SVGID_22_)" d="M142.7,224.9l6.1,3.5l0,0l2-1.2c0.6-0.3,1.2-0.7,1.8-1l-0.5-0.3c-0.3,0.2-0.6,0.3-0.9,0.5
							l-2,1.2l0,0l-6.1-3.5l-4.9,2.9l0.5,0.3L142.7,224.9z"/>
						<linearGradient id="SVGID_23_" gradientUnits="userSpaceOnUse" x1="209.0284" y1="271.8381" x2="127.6625" y2="246.7184">
							<stop  offset="0" style="stop-color:#FFFFFF"/>
							<stop  offset="0.9996" style="stop-color:#FFFFFF;stop-opacity:0"/>
						</linearGradient>
						<path fill="url(#SVGID_23_)" d="M177.9,262.9l2.6-1.5c-0.1-0.1-0.3-0.2-0.4-0.3l-1.8,1.1c0,0,0,0,0,0l-2.1,1.2l0.5,0.3
							L177.9,262.9C177.9,262.9,177.9,262.9,177.9,262.9z"/>
						<linearGradient id="SVGID_24_" gradientUnits="userSpaceOnUse" x1="219.5468" y1="237.7683" x2="138.1804" y2="212.6484">
							<stop  offset="0" style="stop-color:#FFFFFF"/>
							<stop  offset="0.9996" style="stop-color:#FFFFFF;stop-opacity:0"/>
						</linearGradient>
						<path fill="url(#SVGID_24_)" d="M151.5,219.8l6.5,3.7c4.4-2.1,8.5-3.4,12.1-4.1c5.5-1,10.1-0.3,14,1.9c4.5,2.6,5.7,6,3.7,10.2
							c2.5-4.6,1.4-8.2-3.3-10.9c-3.9-2.2-8.5-2.9-14-1.9c-3.6,0.6-7.7,2-12.1,4.1l-6.5-3.7l-4.9,2.9l0.5,0.3L151.5,219.8z"/>
						<linearGradient id="SVGID_25_" gradientUnits="userSpaceOnUse" x1="215.6186" y1="250.4926" x2="134.252" y2="225.3726">
							<stop  offset="0" style="stop-color:#FFFFFF"/>
							<stop  offset="0.9996" style="stop-color:#FFFFFF;stop-opacity:0"/>
						</linearGradient>
						<path fill="url(#SVGID_25_)" d="M169.6,240.4c1-0.5,2.1-1,3.2-1.7c2.6-1.5,4.1-2.9,4.5-4.1c-0.7,1-2.1,2.2-4.1,3.4
							c-1.1,0.7-2.2,1.2-3.2,1.7l-13.2-7.6c-0.3,0.2-0.5,0.3-0.8,0.5L169.6,240.4z"/>
						<linearGradient id="SVGID_26_" gradientUnits="userSpaceOnUse" x1="213.3582" y1="257.8133" x2="131.992" y2="232.6934">
							<stop  offset="0" style="stop-color:#FFFFFF"/>
							<stop  offset="0.9996" style="stop-color:#FFFFFF;stop-opacity:0"/>
						</linearGradient>
						<polygon fill="url(#SVGID_26_)" points="143.9,231.2 143.5,231 131.7,237.7 132.2,238 						"/>
						<linearGradient id="SVGID_27_" gradientUnits="userSpaceOnUse" x1="214.3952" y1="254.4548" x2="133.0292" y2="229.335">
							<stop  offset="0" style="stop-color:#FFFFFF"/>
							<stop  offset="0.9996" style="stop-color:#FFFFFF;stop-opacity:0"/>
						</linearGradient>
						<path fill="url(#SVGID_27_)" d="M206.5,251.6l6.2,3.6l0.8-0.5l-6.3-3.6C206.9,251.2,206.7,251.4,206.5,251.6z"/>
						<linearGradient id="SVGID_28_" gradientUnits="userSpaceOnUse" x1="218.8829" y1="239.9185" x2="137.5167" y2="214.7987">
							<stop  offset="0" style="stop-color:#FFFFFF"/>
							<stop  offset="0.9996" style="stop-color:#FFFFFF;stop-opacity:0"/>
						</linearGradient>
						<path fill="url(#SVGID_28_)" d="M210.4,232.8c-6-3.5-13.9-3.3-23.8,0.6c-0.2,0.3-0.3,0.5-0.5,0.8c9.9-3.9,17.9-4.1,23.9-0.6
							c4.1,2.4,5.6,5.4,4.5,9.2c-0.1,0.2-0.2,0.5-0.3,0.7c0.3-0.5,0.5-1,0.7-1.5C216.1,238.3,214.6,235.2,210.4,232.8z"/>
						<linearGradient id="SVGID_29_" gradientUnits="userSpaceOnUse" x1="212.1931" y1="261.5872" x2="130.8268" y2="236.4674">
							<stop  offset="0" style="stop-color:#FFFFFF"/>
							<stop  offset="0.9996" style="stop-color:#FFFFFF;stop-opacity:0"/>
						</linearGradient>
						<path fill="url(#SVGID_29_)" d="M198.7,256.5l-0.5,0.3l0,0l5.7,3.3l0.8-0.5l-5.8-3.3C198.9,256.4,198.8,256.5,198.7,256.5z"/>
					</g>
					<linearGradient id="SVGID_30_" gradientUnits="userSpaceOnUse" x1="160.0872" y1="229.2977" x2="176.8118" y2="236.1269">
						<stop  offset="0" style="stop-color:#B6B9FE"/>
						<stop  offset="0.9996" style="stop-color:#5861D6"/>
					</linearGradient>
					<path fill="url(#SVGID_30_)" d="M177.8,233.4c0.2-1.3-0.9-2.7-3.2-4c-2.5-1.4-5-2.1-7.5-2c-2.5,0.1-5.2,0.9-7.9,2.5
						c-1,0.6-1.9,1.2-2.9,1.9l11.9,6.9c0.9,0.1,1.8,0.2,2.8,0.5c0.7-0.3,1.4-0.7,2.1-1.1C176.1,236.3,177.6,234.8,177.8,233.4z"/>
					<linearGradient id="SVGID_31_" gradientUnits="userSpaceOnUse" x1="191.2119" y1="228.7606" x2="180.6032" y2="233.6822">
						<stop  offset="0" style="stop-color:#B6B9FE"/>
						<stop  offset="0.9996" style="stop-color:#5861D6"/>
					</linearGradient>
					<path fill="url(#SVGID_31_)" d="M189,227L189,227c0,1.9-0.8,4.1-2.5,6.5c0.8-0.3,1.7-0.6,2.5-0.9L189,227z"/>
					<linearGradient id="SVGID_32_" gradientUnits="userSpaceOnUse" x1="178.9031" y1="240.7094" x2="198.1365" y2="246.0056">
						<stop  offset="0" style="stop-color:#B6B9FE"/>
						<stop  offset="0.9996" style="stop-color:#5861D6"/>
					</linearGradient>
					<path fill="url(#SVGID_32_)" d="M201.5,244.4c0.3-1.4-0.9-2.9-3.4-4.4c-2.7-1.6-5.7-2.3-8.8-2.2c-3.1,0.1-6.4,1.2-9.9,3.2
						c-1.1,0.6-2.2,1.3-3.2,2.1l10.7,6.2c0.8-0.2,1.6-0.3,2.4-0.3c2-0.1,4,0.2,5.9,0.8c0.4-0.2,0.9-0.5,1.4-0.7
						C199.6,247.5,201.2,245.9,201.5,244.4z"/>
					<linearGradient id="SVGID_33_" gradientUnits="userSpaceOnUse" x1="143.102" y1="224.7816" x2="153.0553" y2="224.7816">
						<stop  offset="0" style="stop-color:#B6B9FE"/>
						<stop  offset="0.9996" style="stop-color:#5861D6"/>
					</linearGradient>
					<path fill="url(#SVGID_33_)" d="M146.9,226.3l-3.8-2.2l6.1,3.5l0,0l2-1.2c0.6-0.3,1.2-0.7,1.8-1l-6.2-3.6L146.9,226.3z"/>
					<linearGradient id="SVGID_34_" gradientUnits="userSpaceOnUse" x1="131.7371" y1="232.3536" x2="144.2897" y2="232.3536">
						<stop  offset="0" style="stop-color:#B6B9FE"/>
						<stop  offset="0.9996" style="stop-color:#5861D6"/>
					</linearGradient>
					<polygon fill="url(#SVGID_34_)" points="138.2,234 131.7,237.7 144.3,230.5 138.2,227 					"/>
					<linearGradient id="SVGID_35_" gradientUnits="userSpaceOnUse" x1="206.4899" y1="264.9124" x2="187.3506" y2="273.115">
						<stop  offset="0" style="stop-color:#B6B9FE"/>
						<stop  offset="0.9996" style="stop-color:#5861D6"/>
					</linearGradient>
					<polygon fill="url(#SVGID_35_)" points="204.7,259.7 199.8,262.5 199.8,273.8 204.7,270.9 					"/>
					<linearGradient id="SVGID_36_" gradientUnits="userSpaceOnUse" x1="213.53" y1="260.5958" x2="194.3905" y2="268.7984">
						<stop  offset="0" style="stop-color:#B6B9FE"/>
						<stop  offset="0.9996" style="stop-color:#5861D6"/>
					</linearGradient>
					<polygon fill="url(#SVGID_36_)" points="208.5,257.5 208.5,268.7 213.5,265.9 213.5,254.6 					"/>
					<linearGradient id="SVGID_37_" gradientUnits="userSpaceOnUse" x1="205.0942" y1="254.1803" x2="194.9215" y2="260.6538">
						<stop  offset="0" style="stop-color:#B6B9FE"/>
						<stop  offset="0.9996" style="stop-color:#5861D6"/>
					</linearGradient>
					<polygon fill="url(#SVGID_37_)" points="202.2,253.9 202.2,258.3 198.5,256.1 					"/>
					<linearGradient id="SVGID_38_" gradientUnits="userSpaceOnUse" x1="181.1169" y1="272.0726" x2="198.136" y2="261.4829">
						<stop  offset="0" style="stop-color:#B6B9FE"/>
						<stop  offset="0.9996" style="stop-color:#5861D6"/>
					</linearGradient>
					<polygon fill="url(#SVGID_38_)" points="193.6,259 193.6,270.2 181.1,277.4 181.1,266.2 					"/>
					<linearGradient id="SVGID_39_" gradientUnits="userSpaceOnUse" x1="150.0827" y1="239.866" x2="127.2558" y2="250.1088">
						<stop  offset="0" style="stop-color:#B6B9FE"/>
						<stop  offset="0.9996" style="stop-color:#5861D6"/>
					</linearGradient>
					<polygon fill="url(#SVGID_39_)" points="136.6,240.6 136.6,251.8 141.4,249.1 141.4,237.9 					"/>
					<linearGradient id="SVGID_40_" gradientUnits="userSpaceOnUse" x1="185.2215" y1="258.3303" x2="202.6249" y2="270.5126">
						<stop  offset="0" style="stop-color:#B6B9FE"/>
						<stop  offset="0.9996" style="stop-color:#5861D6"/>
					</linearGradient>
					<polygon fill="url(#SVGID_40_)" points="193.6,259 199.8,262.5 199.8,273.8 193.6,270.2 					"/>
					<linearGradient id="SVGID_41_" gradientUnits="userSpaceOnUse" x1="190.5345" y1="250.7403" x2="207.9378" y2="262.9226">
						<stop  offset="0" style="stop-color:#B6B9FE"/>
						<stop  offset="0.9996" style="stop-color:#5861D6"/>
					</linearGradient>
					<polygon fill="url(#SVGID_41_)" points="202.2,253.9 202.2,258.3 204.7,259.7 204.7,266.5 208.5,268.7 208.5,257.5 					"/>
					<linearGradient id="SVGID_42_" gradientUnits="userSpaceOnUse" x1="174.7615" y1="262.5887" x2="181.9543" y2="277.2826">
						<stop  offset="0" style="stop-color:#B6B9FE"/>
						<stop  offset="0.9996" style="stop-color:#5861D6"/>
					</linearGradient>
					<polygon fill="url(#SVGID_42_)" points="176.1,263.4 176.1,274.6 181.1,277.4 181.1,266.2 					"/>
					<linearGradient id="SVGID_43_" gradientUnits="userSpaceOnUse" x1="131.1441" y1="236.772" x2="180.0491" y2="266.2055">
						<stop  offset="0" style="stop-color:#B6B9FE"/>
						<stop  offset="0.9996" style="stop-color:#5861D6"/>
					</linearGradient>
					<polygon fill="url(#SVGID_43_)" points="141.4,237.9 141.4,249.1 176.1,268.9 176.1,263.4 180.9,260.6 162.7,249.9 					"/>
					<linearGradient id="SVGID_44_" gradientUnits="userSpaceOnUse" x1="121.5402" y1="228.9264" x2="135.4412" y2="246.3393">
						<stop  offset="0" style="stop-color:#B6B9FE"/>
						<stop  offset="0.9996" style="stop-color:#5861D6"/>
					</linearGradient>
					<polygon fill="url(#SVGID_44_)" points="131.7,237.7 136.6,240.6 136.6,251.8 131.7,249 					"/>
					<linearGradient id="SVGID_45_" gradientUnits="userSpaceOnUse" x1="214.325" y1="247.6945" x2="192.4464" y2="270.319">
						<stop  offset="0" style="stop-color:#B6B9FE"/>
						<stop  offset="0.9996" style="stop-color:#5861D6"/>
					</linearGradient>
					<path fill="url(#SVGID_45_)" d="M214.9,242c-0.8,2.5-3.5,5.5-8.1,8.8l6.6,3.8v1.3c0.7-1,1.2-1.9,1.5-2.7
						c0.3-0.9,0.4-1.8,0.3-2.7v-11.2C215.3,240.2,215.2,241.1,214.9,242z"/>
					<linearGradient id="SVGID_46_" gradientUnits="userSpaceOnUse" x1="173.9603" y1="213.8187" x2="173.9603" y2="268.8401">
						<stop  offset="0" style="stop-color:#FFFFFF"/>
						<stop  offset="0.9996" style="stop-color:#FFFFFF;stop-opacity:0"/>
					</linearGradient>
					<path fill="url(#SVGID_46_)" d="M164.4,227.8c0.9-0.2,1.8-0.4,2.7-0.4c1,0,1.9,0.1,2.9,0.3v-8.8c-1.7,0.3-3.6,0.8-5.5,1.5
						V227.8z M146.9,221.9l6.2,3.6c-0.6,0.3-1.2,0.6-1.8,1l-2,1.2l0,0l-6.1-3.5l-4.1,2.3v1l5.2,3l-5.2,3v5.7l2.4-1.4
						c2.6,1.3,7.2,3.9,13.7,7.7V221l-3.3-1.9L146.9,221.9z M164.4,250.9c2,1.2,3.8,2.2,5.5,3.2v-14.5l-5.5-3.2V250.9z M208.9,232
						c-0.9-0.4-1.8-0.7-2.8-1v25.1l2.4,1.4l0.3-0.2V252l-2.1-1.2c0.7-0.5,1.4-1.1,2.1-1.6V232z M190.6,251.6l-13.8-7.9v14.6
						c1.7,1,3.1,1.8,4,2.4l-2.6,1.5c0,0,0,0,0,0l-1.3,0.8v0.9l4.2,2.4l12.6-7.2l6.2,3.6l0.5-0.3v-5.1l-1.8-1l0,0l0.5-0.3
						c0.4-0.3,0.9-0.5,1.3-0.8v-8.6c-0.8,0.9-2.1,1.8-3.8,2.8C194.1,250.7,192.1,251.4,190.6,251.6z M184.4,220.7
						c-2.2-1.3-4.7-2-7.5-2.3v12.7c0.7,0.8,1,1.6,0.9,2.3c-0.1,0.6-0.4,1.1-0.9,1.7v7.6c0.8-0.6,1.7-1.1,2.6-1.6
						c3.5-2,6.8-3.1,9.9-3.2c3.1-0.1,6,0.6,8.8,2.2c0.9,0.5,1.7,1.1,2.3,1.6v-11.3c-4.1,0-8.7,1.1-13.8,3.1
						C190.4,228,189.7,223.7,184.4,220.7z"/>
				</g>
			</g>
			<linearGradient id="SVGID_47_" gradientUnits="userSpaceOnUse" x1="87.0697" y1="231.8518" x2="244.4107" y2="223.0352">
				<stop  offset="0" style="stop-color:#B6B9FE"/>
				<stop  offset="0.9996" style="stop-color:#5861D6"/>
			</linearGradient>
			<polygon fill="url(#SVGID_47_)" points="115.2,224.5 195.5,212.1 245.6,241 249.1,233.6 195.5,202.6 115.2,215 98,252.2 
				101.4,254.2 			"/>
			<g>
				<radialGradient id="SVGID_48_" cx="162.6583" cy="55.0591" r="2.1437" gradientUnits="userSpaceOnUse">
					<stop  offset="0" style="stop-color:#D3FFE6"/>
					<stop  offset="0.8516" style="stop-color:#000000;stop-opacity:0"/>
				</radialGradient>
				<circle fill="url(#SVGID_48_)" cx="162.7" cy="55.1" r="2.1"/>
				<radialGradient id="SVGID_49_" cx="197.5902" cy="93.7745" r="2.1976" gradientUnits="userSpaceOnUse">
					<stop  offset="0" style="stop-color:#D3FFE6"/>
					<stop  offset="0.8516" style="stop-color:#000000;stop-opacity:0"/>
				</radialGradient>
				<circle fill="url(#SVGID_49_)" cx="197.6" cy="93.8" r="2.2"/>
				<radialGradient id="SVGID_50_" cx="159.6385" cy="66.8273" r="2.2545" gradientUnits="userSpaceOnUse">
					<stop  offset="0" style="stop-color:#D3FFE6"/>
					<stop  offset="0.8516" style="stop-color:#000000;stop-opacity:0"/>
				</radialGradient>
				<circle fill="url(#SVGID_50_)" cx="159.6" cy="66.8" r="2.3"/>
				<radialGradient id="SVGID_51_" cx="175.0383" cy="89.3344" r="2.3057" gradientUnits="userSpaceOnUse">
					<stop  offset="0" style="stop-color:#D3FFE6"/>
					<stop  offset="0.8516" style="stop-color:#000000;stop-opacity:0"/>
				</radialGradient>
				<circle fill="url(#SVGID_51_)" cx="175" cy="89.3" r="2.3"/>
				<radialGradient id="SVGID_52_" cx="173.2879" cy="112.31" r="2.1832" gradientUnits="userSpaceOnUse">
					<stop  offset="0" style="stop-color:#D3FFE6"/>
					<stop  offset="0.8516" style="stop-color:#000000;stop-opacity:0"/>
				</radialGradient>
				<circle fill="url(#SVGID_52_)" cx="173.3" cy="112.3" r="2.2"/>
				<radialGradient id="SVGID_53_" cx="141.7099" cy="183.766" r="2.2519" gradientUnits="userSpaceOnUse">
					<stop  offset="0" style="stop-color:#D3FFE6"/>
					<stop  offset="0.8516" style="stop-color:#000000;stop-opacity:0"/>
				</radialGradient>
				<circle fill="url(#SVGID_53_)" cx="141.7" cy="183.8" r="2.3"/>
				<radialGradient id="SVGID_54_" cx="129.8034" cy="209.3245" r="2.2222" gradientUnits="userSpaceOnUse">
					<stop  offset="0" style="stop-color:#D3FFE6"/>
					<stop  offset="0.8516" style="stop-color:#000000;stop-opacity:0"/>
				</radialGradient>
				<circle fill="url(#SVGID_54_)" cx="129.8" cy="209.3" r="2.2"/>
				<radialGradient id="SVGID_55_" cx="231.8816" cy="202.8031" r="2.3122" gradientUnits="userSpaceOnUse">
					<stop  offset="0" style="stop-color:#D3FFE6"/>
					<stop  offset="0.8516" style="stop-color:#000000;stop-opacity:0"/>
				</radialGradient>
				<circle fill="url(#SVGID_55_)" cx="231.9" cy="202.8" r="2.3"/>
				<radialGradient id="SVGID_56_" cx="188.5024" cy="147.6892" r="2.1932" gradientUnits="userSpaceOnUse">
					<stop  offset="0" style="stop-color:#D3FFE6"/>
					<stop  offset="0.8516" style="stop-color:#000000;stop-opacity:0"/>
				</radialGradient>
				<circle fill="url(#SVGID_56_)" cx="188.5" cy="147.7" r="2.2"/>
				<radialGradient id="SVGID_57_" cx="148.0714" cy="62.7988" r="2.304" gradientUnits="userSpaceOnUse">
					<stop  offset="0" style="stop-color:#D3FFE6"/>
					<stop  offset="0.8516" style="stop-color:#000000;stop-opacity:0"/>
				</radialGradient>
				<circle fill="url(#SVGID_57_)" cx="148.1" cy="62.8" r="2.3"/>
				<radialGradient id="SVGID_58_" cx="125.4315" cy="51.7912" r="2.1774" gradientUnits="userSpaceOnUse">
					<stop  offset="0" style="stop-color:#D3FFE6"/>
					<stop  offset="0.8516" style="stop-color:#000000;stop-opacity:0"/>
				</radialGradient>
				<circle fill="url(#SVGID_58_)" cx="125.4" cy="51.8" r="2.2"/>
				<radialGradient id="SVGID_59_" cx="105.2329" cy="30.1742" r="2.1748" gradientUnits="userSpaceOnUse">
					<stop  offset="0" style="stop-color:#D3FFE6"/>
					<stop  offset="0.8516" style="stop-color:#000000;stop-opacity:0"/>
				</radialGradient>
				<circle fill="url(#SVGID_59_)" cx="105.2" cy="30.2" r="2.2"/>
				<radialGradient id="SVGID_60_" cx="141.5805" cy="39.1652" r="2.2562" gradientUnits="userSpaceOnUse">
					<stop  offset="0" style="stop-color:#D3FFE6"/>
					<stop  offset="0.8516" style="stop-color:#000000;stop-opacity:0"/>
				</radialGradient>
				<circle fill="url(#SVGID_60_)" cx="141.6" cy="39.2" r="2.3"/>
				<radialGradient id="SVGID_61_" cx="203.4736" cy="21.057" r="2.1202" gradientUnits="userSpaceOnUse">
					<stop  offset="0" style="stop-color:#D3FFE6"/>
					<stop  offset="0.8516" style="stop-color:#000000;stop-opacity:0"/>
				</radialGradient>
				<circle fill="url(#SVGID_61_)" cx="203.5" cy="21.1" r="2.1"/>
				<radialGradient id="SVGID_62_" cx="213.9021" cy="39.9903" r="2.1269" gradientUnits="userSpaceOnUse">
					<stop  offset="0" style="stop-color:#D3FFE6"/>
					<stop  offset="0.8516" style="stop-color:#000000;stop-opacity:0"/>
				</radialGradient>
				<circle fill="url(#SVGID_62_)" cx="213.9" cy="40" r="2.1"/>
				<radialGradient id="SVGID_63_" cx="212.5141" cy="49.4177" r="2.1871" gradientUnits="userSpaceOnUse">
					<stop  offset="0" style="stop-color:#D3FFE6"/>
					<stop  offset="0.8516" style="stop-color:#000000;stop-opacity:0"/>
				</radialGradient>
				<circle fill="url(#SVGID_63_)" cx="212.5" cy="49.4" r="2.2"/>
				<radialGradient id="SVGID_64_" cx="201.9506" cy="69.1691" r="2.2156" gradientUnits="userSpaceOnUse">
					<stop  offset="0" style="stop-color:#D3FFE6"/>
					<stop  offset="0.8516" style="stop-color:#000000;stop-opacity:0"/>
				</radialGradient>
				<circle fill="url(#SVGID_64_)" cx="202" cy="69.2" r="2.2"/>
				<radialGradient id="SVGID_65_" cx="184.3365" cy="124.9362" r="2.1114" gradientUnits="userSpaceOnUse">
					<stop  offset="0" style="stop-color:#D3FFE6"/>
					<stop  offset="0.8516" style="stop-color:#000000;stop-opacity:0"/>
				</radialGradient>
				<circle fill="url(#SVGID_65_)" cx="184.3" cy="124.9" r="2.1"/>
				<radialGradient id="SVGID_66_" cx="156.351" cy="76.8147" r="2.1784" gradientUnits="userSpaceOnUse">
					<stop  offset="0" style="stop-color:#D3FFE6"/>
					<stop  offset="0.8516" style="stop-color:#000000;stop-opacity:0"/>
				</radialGradient>
				<circle fill="url(#SVGID_66_)" cx="156.4" cy="76.8" r="2.2"/>
				<radialGradient id="SVGID_67_" cx="122.1416" cy="105.9916" r="2.1238" gradientUnits="userSpaceOnUse">
					<stop  offset="0" style="stop-color:#D3FFE6"/>
					<stop  offset="0.8516" style="stop-color:#000000;stop-opacity:0"/>
				</radialGradient>
				<circle fill="url(#SVGID_67_)" cx="122.1" cy="106" r="2.1"/>
				<radialGradient id="SVGID_68_" cx="116.9298" cy="78.1111" r="2.19" gradientUnits="userSpaceOnUse">
					<stop  offset="0" style="stop-color:#D3FFE6"/>
					<stop  offset="0.8516" style="stop-color:#000000;stop-opacity:0"/>
				</radialGradient>
				<circle fill="url(#SVGID_68_)" cx="116.9" cy="78.1" r="2.2"/>
				<radialGradient id="SVGID_69_" cx="140.8629" cy="137.6388" r="2.2004" gradientUnits="userSpaceOnUse">
					<stop  offset="0" style="stop-color:#D3FFE6"/>
					<stop  offset="0.8516" style="stop-color:#000000;stop-opacity:0"/>
				</radialGradient>
				<circle fill="url(#SVGID_69_)" cx="140.9" cy="137.6" r="2.2"/>
				<radialGradient id="SVGID_70_" cx="218.0068" cy="147.3455" r="2.2831" gradientUnits="userSpaceOnUse">
					<stop  offset="0" style="stop-color:#D3FFE6"/>
					<stop  offset="0.8516" style="stop-color:#000000;stop-opacity:0"/>
				</radialGradient>
				<circle fill="url(#SVGID_70_)" cx="218" cy="147.3" r="2.3"/>
				<radialGradient id="SVGID_71_" cx="225.2274" cy="187.7386" r="2.1898" gradientUnits="userSpaceOnUse">
					<stop  offset="0" style="stop-color:#D3FFE6"/>
					<stop  offset="0.8516" style="stop-color:#000000;stop-opacity:0"/>
				</radialGradient>
				<circle fill="url(#SVGID_71_)" cx="225.2" cy="187.7" r="2.2"/>
				<radialGradient id="SVGID_72_" cx="157.2755" cy="147.9514" r="2.2392" gradientUnits="userSpaceOnUse">
					<stop  offset="0" style="stop-color:#D3FFE6"/>
					<stop  offset="0.8516" style="stop-color:#000000;stop-opacity:0"/>
				</radialGradient>
				<circle fill="url(#SVGID_72_)" cx="157.3" cy="148" r="2.2"/>
				<radialGradient id="SVGID_73_" cx="233.405" cy="216.3552" r="2.3042" gradientUnits="userSpaceOnUse">
					<stop  offset="0" style="stop-color:#D3FFE6"/>
					<stop  offset="0.8516" style="stop-color:#000000;stop-opacity:0"/>
				</radialGradient>
				<circle fill="url(#SVGID_73_)" cx="233.4" cy="216.4" r="2.3"/>
				<radialGradient id="SVGID_74_" cx="125.4315" cy="149.6285" r="2.2529" gradientUnits="userSpaceOnUse">
					<stop  offset="0" style="stop-color:#D3FFE6"/>
					<stop  offset="0.8516" style="stop-color:#000000;stop-opacity:0"/>
				</radialGradient>
				<circle fill="url(#SVGID_74_)" cx="125.4" cy="149.6" r="2.3"/>
				<radialGradient id="SVGID_75_" cx="168.3053" cy="181.514" r="2.2995" gradientUnits="userSpaceOnUse">
					<stop  offset="0" style="stop-color:#D3FFE6"/>
					<stop  offset="0.8516" style="stop-color:#000000;stop-opacity:0"/>
				</radialGradient>
				<circle fill="url(#SVGID_75_)" cx="168.3" cy="181.5" r="2.3"/>
				<radialGradient id="SVGID_76_" cx="121.7517" cy="187.701" r="2.3068" gradientUnits="userSpaceOnUse">
					<stop  offset="0" style="stop-color:#D3FFE6"/>
					<stop  offset="0.8516" style="stop-color:#000000;stop-opacity:0"/>
				</radialGradient>
				<circle fill="url(#SVGID_76_)" cx="121.8" cy="187.7" r="2.3"/>
				<radialGradient id="SVGID_77_" cx="189.8126" cy="186.166" r="2.1332" gradientUnits="userSpaceOnUse">
					<stop  offset="0" style="stop-color:#D3FFE6"/>
					<stop  offset="0.8516" style="stop-color:#000000;stop-opacity:0"/>
				</radialGradient>
				<circle fill="url(#SVGID_77_)" cx="189.8" cy="186.2" r="2.1"/>
				<radialGradient id="SVGID_78_" cx="176.209" cy="145.1187" r="2.1686" gradientUnits="userSpaceOnUse">
					<stop  offset="0" style="stop-color:#D3FFE6"/>
					<stop  offset="0.8516" style="stop-color:#000000;stop-opacity:0"/>
				</radialGradient>
				<circle fill="url(#SVGID_78_)" cx="176.2" cy="145.1" r="2.2"/>
				<radialGradient id="SVGID_79_" cx="224.9956" cy="130.9656" r="2.2594" gradientUnits="userSpaceOnUse">
					<stop  offset="0" style="stop-color:#D3FFE6"/>
					<stop  offset="0.8516" style="stop-color:#000000;stop-opacity:0"/>
				</radialGradient>
				<circle fill="url(#SVGID_79_)" cx="225" cy="131" r="2.3"/>
				<radialGradient id="SVGID_80_" cx="205.2393" cy="92.5689" r="2.2998" gradientUnits="userSpaceOnUse">
					<stop  offset="0" style="stop-color:#D3FFE6"/>
					<stop  offset="0.8516" style="stop-color:#000000;stop-opacity:0"/>
				</radialGradient>
				<circle fill="url(#SVGID_80_)" cx="205.2" cy="92.6" r="2.3"/>
				<radialGradient id="SVGID_81_" cx="172.0568" cy="41.1422" r="2.2034" gradientUnits="userSpaceOnUse">
					<stop  offset="0" style="stop-color:#D3FFE6"/>
					<stop  offset="0.8516" style="stop-color:#000000;stop-opacity:0"/>
				</radialGradient>
				<circle fill="url(#SVGID_81_)" cx="172.1" cy="41.1" r="2.2"/>
				<radialGradient id="SVGID_82_" cx="173.4939" cy="37.3784" r="2.1767" gradientUnits="userSpaceOnUse">
					<stop  offset="0" style="stop-color:#D3FFE6"/>
					<stop  offset="0.8516" style="stop-color:#000000;stop-opacity:0"/>
				</radialGradient>
				<circle fill="url(#SVGID_82_)" cx="173.5" cy="37.4" r="2.2"/>
				<radialGradient id="SVGID_83_" cx="196.5521" cy="77.3102" r="2.1673" gradientUnits="userSpaceOnUse">
					<stop  offset="0" style="stop-color:#D3FFE6"/>
					<stop  offset="0.8516" style="stop-color:#000000;stop-opacity:0"/>
				</radialGradient>
				<circle fill="url(#SVGID_83_)" cx="196.6" cy="77.3" r="2.2"/>
			</g>
			<linearGradient id="SVGID_84_" gradientUnits="userSpaceOnUse" x1="160.4875" y1="61.6667" x2="176.6739" y2="210.4276">
				<stop  offset="0" style="stop-color:#55D1FF"/>
				<stop  offset="0.1138" style="stop-color:#4BB8DF;stop-opacity:0.8862"/>
				<stop  offset="0.5563" style="stop-color:#235868;stop-opacity:0.4437"/>
				<stop  offset="0.8604" style="stop-color:#0B1C1D;stop-opacity:0.1396"/>
				<stop  offset="1" style="stop-color:#010400;stop-opacity:0"/>
			</linearGradient>
			<path fill="url(#SVGID_84_)" d="M209.2,107.7c-0.3-0.2-0.6-0.3-1-0.3c-0.4,0-0.8,0.1-1.3,0.4c-0.5,0.3-0.9,0.6-1.3,1.1
				c-0.4,0.4-0.7,0.9-1,1.5c-0.3,0.5-0.5,1.1-0.7,1.7c-0.2,0.6-0.2,1.2-0.2,1.9c0,0.6,0.1,1.2,0.2,1.6c0.2,0.4,0.4,0.8,0.7,1
				c0.3,0.2,0.6,0.3,1,0.3c0.4,0,0.8-0.1,1.3-0.4c0.4-0.3,0.9-0.6,1.3-1c0.4-0.4,0.7-0.9,1-1.5c0.3-0.5,0.5-1.1,0.7-1.7
				c0.2-0.6,0.2-1.2,0.2-1.9c0-0.6-0.1-1.2-0.2-1.6C209.7,108.2,209.4,107.9,209.2,107.7z M208.3,112.3c-0.1,0.4-0.2,0.7-0.3,1
				c-0.1,0.3-0.3,0.6-0.5,0.8c-0.2,0.2-0.4,0.4-0.6,0.5c-0.2,0.1-0.4,0.2-0.6,0.2c-0.2,0-0.3-0.1-0.5-0.2c-0.1-0.1-0.2-0.4-0.3-0.6
				c-0.1-0.3-0.1-0.6-0.1-1c0-0.4,0-0.7,0.1-1.1c0.1-0.4,0.2-0.7,0.3-1c0.1-0.3,0.3-0.6,0.5-0.8c0.2-0.2,0.4-0.4,0.6-0.5
				c0.2-0.1,0.4-0.2,0.6-0.2c0.2,0,0.3,0.1,0.5,0.2c0.1,0.1,0.2,0.4,0.3,0.6c0.1,0.3,0.1,0.6,0.1,1
				C208.4,111.6,208.4,111.9,208.3,112.3z M135.4,91.3c0.2-0.2,0.4-0.4,0.5-0.6c0.2-0.2,0.3-0.4,0.3-0.5v4.3l-1.7,1v1.7l5-2.9v-1.7
				l-1.6,0.9v-6.4l-1.7,1c0,0.1-0.1,0.3-0.3,0.5c-0.2,0.2-0.3,0.5-0.5,0.8c-0.2,0.3-0.4,0.5-0.6,0.8c-0.2,0.2-0.4,0.4-0.5,0.5v1.8
				c0.2-0.1,0.3-0.2,0.5-0.4C135,91.7,135.2,91.5,135.4,91.3z M135.4,114.3c0.2-0.2,0.4-0.4,0.5-0.6c0.2-0.2,0.3-0.4,0.3-0.5v4.3
				l-1.7,1v1.7l5-2.9v-1.7l-1.6,0.9V110l-1.7,1c0,0.1-0.1,0.3-0.3,0.5c-0.2,0.2-0.3,0.5-0.5,0.8c-0.2,0.3-0.4,0.5-0.6,0.8
				c-0.2,0.2-0.4,0.4-0.5,0.5v1.8c0.2-0.1,0.3-0.2,0.5-0.4C135,114.7,135.2,114.5,135.4,114.3z M126.6,97.4c0.2-0.2,0.4-0.4,0.5-0.6
				c0.2-0.2,0.3-0.4,0.3-0.5v4.3l-1.7,1v1.7l5-2.9v-1.7l-1.6,0.9v-6.4l-1.7,1c0,0.1-0.1,0.3-0.3,0.5c-0.2,0.2-0.3,0.5-0.5,0.8
				c-0.2,0.3-0.4,0.5-0.6,0.8c-0.2,0.2-0.4,0.4-0.5,0.5v1.8c0.2-0.1,0.3-0.2,0.5-0.4C126.2,97.8,126.4,97.6,126.6,97.4z
				 M135.4,102.8c0.2-0.2,0.4-0.4,0.5-0.6c0.2-0.2,0.3-0.4,0.3-0.5v4.3l-1.7,1v1.7l5-2.9V104l-1.6,0.9v-6.4l-1.7,1
				c0,0.1-0.1,0.3-0.3,0.5c-0.2,0.2-0.3,0.5-0.5,0.8c-0.2,0.3-0.4,0.5-0.6,0.8c-0.2,0.2-0.4,0.4-0.5,0.5v1.8
				c0.2-0.1,0.3-0.2,0.5-0.4C135,103.2,135.2,103,135.4,102.8z M126.6,85.9c0.2-0.2,0.4-0.4,0.5-0.6c0.2-0.2,0.3-0.4,0.3-0.5V89
				l-1.7,1v1.7l5-2.9v-1.7l-1.6,0.9v-6.4l-1.7,1c0,0.1-0.1,0.3-0.3,0.5c-0.2,0.2-0.3,0.5-0.5,0.8c-0.2,0.3-0.4,0.5-0.6,0.8
				c-0.2,0.2-0.4,0.4-0.5,0.5v1.8c0.2-0.1,0.3-0.2,0.5-0.4C126.2,86.3,126.4,86.1,126.6,85.9z M126.6,108.8c0.2-0.2,0.4-0.4,0.5-0.6
				c0.2-0.2,0.3-0.4,0.3-0.5v4.3l-1.7,1v1.7l5-2.9v-1.7l-1.6,0.9v-6.4l-1.7,1c0,0.1-0.1,0.3-0.3,0.5c-0.2,0.2-0.3,0.5-0.5,0.8
				c-0.2,0.3-0.4,0.5-0.6,0.8c-0.2,0.2-0.4,0.4-0.5,0.5v1.8c0.2-0.1,0.3-0.2,0.5-0.4C126.2,109.2,126.4,109,126.6,108.8z
				 M209.2,130.6c-0.3-0.2-0.6-0.3-1-0.3c-0.4,0-0.8,0.1-1.3,0.4c-0.5,0.3-0.9,0.6-1.3,1.1c-0.4,0.4-0.7,0.9-1,1.5
				c-0.3,0.5-0.5,1.1-0.7,1.7c-0.2,0.6-0.2,1.2-0.2,1.9c0,0.6,0.1,1.2,0.2,1.6c0.2,0.4,0.4,0.8,0.7,1c0.3,0.2,0.6,0.3,1,0.3
				c0.4,0,0.8-0.1,1.3-0.4c0.4-0.3,0.9-0.6,1.3-1c0.4-0.4,0.7-0.9,1-1.5c0.3-0.5,0.5-1.1,0.7-1.7c0.2-0.6,0.2-1.2,0.2-1.9
				c0-0.6-0.1-1.2-0.2-1.6C209.7,131.2,209.4,130.8,209.2,130.6z M208.3,135.2c-0.1,0.4-0.2,0.7-0.3,1c-0.1,0.3-0.3,0.6-0.5,0.8
				c-0.2,0.2-0.4,0.4-0.6,0.5c-0.2,0.1-0.4,0.2-0.6,0.2c-0.2,0-0.3-0.1-0.5-0.2c-0.1-0.1-0.2-0.4-0.3-0.6c-0.1-0.3-0.1-0.6-0.1-1
				c0-0.4,0-0.7,0.1-1.1c0.1-0.4,0.2-0.7,0.3-1c0.1-0.3,0.3-0.6,0.5-0.8c0.2-0.2,0.4-0.4,0.6-0.5c0.2-0.1,0.4-0.2,0.6-0.2
				c0.2,0,0.3,0.1,0.5,0.2c0.1,0.1,0.2,0.4,0.3,0.6c0.1,0.3,0.1,0.6,0.1,1C208.4,134.5,208.4,134.9,208.3,135.2z M130.3,116.3
				c-0.3-0.2-0.6-0.3-1-0.3c-0.4,0-0.8,0.1-1.3,0.4c-0.5,0.3-0.9,0.6-1.3,1.1c-0.4,0.4-0.7,0.9-1,1.5c-0.3,0.5-0.5,1.1-0.7,1.7
				c-0.2,0.6-0.2,1.2-0.2,1.9c0,0.6,0.1,1.2,0.2,1.6c0.2,0.4,0.4,0.8,0.7,1c0.3,0.2,0.6,0.3,1,0.3c0.4,0,0.8-0.1,1.3-0.4
				c0.4-0.3,0.9-0.6,1.3-1c0.4-0.4,0.7-0.9,1-1.5c0.3-0.5,0.5-1.1,0.7-1.7c0.2-0.6,0.2-1.2,0.2-1.9c0-0.6-0.1-1.2-0.2-1.6
				C130.8,116.8,130.5,116.5,130.3,116.3z M129.4,120.9c-0.1,0.4-0.2,0.7-0.3,1c-0.1,0.3-0.3,0.6-0.5,0.8c-0.2,0.2-0.4,0.4-0.6,0.5
				c-0.2,0.1-0.4,0.2-0.6,0.2c-0.2,0-0.3-0.1-0.5-0.2c-0.1-0.1-0.2-0.4-0.3-0.6c-0.1-0.3-0.1-0.6-0.1-1c0-0.4,0-0.7,0.1-1.1
				c0.1-0.4,0.2-0.7,0.3-1c0.1-0.3,0.3-0.6,0.5-0.8c0.2-0.2,0.4-0.4,0.6-0.5c0.2-0.1,0.4-0.2,0.6-0.2c0.2,0,0.3,0.1,0.5,0.2
				c0.1,0.1,0.2,0.4,0.3,0.6c0.1,0.3,0.1,0.6,0.1,1C129.5,120.2,129.5,120.5,129.4,120.9z M130.3,127.8c-0.3-0.2-0.6-0.3-1-0.3
				c-0.4,0-0.8,0.1-1.3,0.4c-0.5,0.3-0.9,0.6-1.3,1.1c-0.4,0.4-0.7,0.9-1,1.5c-0.3,0.5-0.5,1.1-0.7,1.7c-0.2,0.6-0.2,1.2-0.2,1.9
				c0,0.6,0.1,1.1,0.2,1.6c0.2,0.4,0.4,0.8,0.7,1c0.3,0.2,0.6,0.3,1,0.3c0.4,0,0.8-0.1,1.3-0.4c0.4-0.3,0.9-0.6,1.3-1
				c0.4-0.4,0.7-0.9,1-1.5c0.3-0.5,0.5-1.1,0.7-1.7c0.2-0.6,0.2-1.2,0.2-1.9c0-0.6-0.1-1.2-0.2-1.6
				C130.8,128.3,130.5,128,130.3,127.8z M129.4,132.4c-0.1,0.4-0.2,0.7-0.3,1c-0.1,0.3-0.3,0.6-0.5,0.8c-0.2,0.2-0.4,0.4-0.6,0.5
				c-0.2,0.1-0.4,0.2-0.6,0.2c-0.2,0-0.3-0.1-0.5-0.2c-0.1-0.1-0.2-0.4-0.3-0.6c-0.1-0.3-0.1-0.6-0.1-1c0-0.4,0-0.7,0.1-1.1
				c0.1-0.4,0.2-0.7,0.3-1c0.1-0.3,0.3-0.6,0.5-0.8c0.2-0.2,0.4-0.4,0.6-0.5c0.2-0.1,0.4-0.2,0.6-0.2c0.2,0,0.3,0.1,0.5,0.2
				c0.1,0.1,0.2,0.4,0.3,0.6c0.1,0.3,0.1,0.6,0.1,1C129.5,131.6,129.5,132,129.4,132.4z M209.2,142.1c-0.3-0.2-0.6-0.3-1-0.3
				c-0.4,0-0.8,0.1-1.3,0.4c-0.5,0.3-0.9,0.6-1.3,1.1c-0.4,0.4-0.7,0.9-1,1.5c-0.3,0.5-0.5,1.1-0.7,1.7c-0.2,0.6-0.2,1.2-0.2,1.9
				c0,0.6,0.1,1.2,0.2,1.6c0.2,0.4,0.4,0.8,0.7,1c0.3,0.2,0.6,0.3,1,0.3c0.4,0,0.8-0.1,1.3-0.4c0.4-0.3,0.9-0.6,1.3-1
				c0.4-0.4,0.7-0.9,1-1.5c0.3-0.5,0.5-1.1,0.7-1.7c0.2-0.6,0.2-1.2,0.2-1.9c0-0.6-0.1-1.2-0.2-1.6
				C209.7,142.6,209.4,142.3,209.2,142.1z M208.3,146.7c-0.1,0.4-0.2,0.7-0.3,1c-0.1,0.3-0.3,0.6-0.5,0.8c-0.2,0.2-0.4,0.4-0.6,0.5
				c-0.2,0.1-0.4,0.2-0.6,0.2c-0.2,0-0.3-0.1-0.5-0.2c-0.1-0.1-0.2-0.4-0.3-0.6c-0.1-0.3-0.1-0.6-0.1-1c0-0.4,0-0.7,0.1-1.1
				c0.1-0.4,0.2-0.7,0.3-1c0.1-0.3,0.3-0.6,0.5-0.8c0.2-0.2,0.4-0.4,0.6-0.5c0.2-0.1,0.4-0.2,0.6-0.2c0.2,0,0.3,0.1,0.5,0.2
				c0.1,0.1,0.2,0.4,0.3,0.6c0.1,0.3,0.1,0.6,0.1,1C208.4,146,208.4,146.3,208.3,146.7z M130.3,173.6c-0.3-0.2-0.6-0.3-1-0.3
				c-0.4,0-0.8,0.1-1.3,0.4c-0.5,0.3-0.9,0.6-1.3,1.1c-0.4,0.4-0.7,0.9-1,1.5c-0.3,0.5-0.5,1.1-0.7,1.7c-0.2,0.6-0.2,1.2-0.2,1.9
				c0,0.6,0.1,1.1,0.2,1.6c0.2,0.4,0.4,0.8,0.7,1c0.3,0.2,0.6,0.3,1,0.3c0.4,0,0.8-0.1,1.3-0.4c0.4-0.3,0.9-0.6,1.3-1
				c0.4-0.4,0.7-0.9,1-1.5c0.3-0.5,0.5-1.1,0.7-1.7c0.2-0.6,0.2-1.2,0.2-1.9c0-0.6-0.1-1.2-0.2-1.6
				C130.8,174.2,130.5,173.8,130.3,173.6z M129.4,178.2c-0.1,0.4-0.2,0.7-0.3,1c-0.1,0.3-0.3,0.6-0.5,0.8c-0.2,0.2-0.4,0.4-0.6,0.5
				c-0.2,0.1-0.4,0.2-0.6,0.2c-0.2,0-0.3-0.1-0.5-0.2c-0.1-0.1-0.2-0.4-0.3-0.6c-0.1-0.3-0.1-0.6-0.1-1c0-0.4,0-0.7,0.1-1.1
				c0.1-0.4,0.2-0.7,0.3-1c0.1-0.3,0.3-0.6,0.5-0.8c0.2-0.2,0.4-0.4,0.6-0.5c0.2-0.1,0.4-0.2,0.6-0.2c0.2,0,0.3,0.1,0.5,0.2
				c0.1,0.1,0.2,0.4,0.3,0.6c0.1,0.3,0.1,0.6,0.1,1C129.5,177.5,129.5,177.9,129.4,178.2z M139,179.1c-0.3-0.2-0.6-0.3-1-0.3
				c-0.4,0-0.8,0.1-1.3,0.4c-0.5,0.3-0.9,0.6-1.3,1.1c-0.4,0.4-0.7,0.9-1,1.5c-0.3,0.5-0.5,1.1-0.7,1.7c-0.2,0.6-0.2,1.2-0.2,1.9
				c0,0.6,0.1,1.2,0.2,1.6c0.2,0.4,0.4,0.8,0.7,1c0.3,0.2,0.6,0.3,1,0.3c0.4,0,0.8-0.1,1.3-0.4c0.4-0.3,0.9-0.6,1.3-1
				c0.4-0.4,0.7-0.9,1-1.5c0.3-0.5,0.5-1.1,0.7-1.7c0.2-0.6,0.2-1.2,0.2-1.9c0-0.6-0.1-1.2-0.2-1.6
				C139.5,179.6,139.3,179.3,139,179.1z M138.2,183.7c-0.1,0.4-0.2,0.7-0.3,1c-0.1,0.3-0.3,0.6-0.5,0.8c-0.2,0.2-0.4,0.4-0.6,0.5
				c-0.2,0.1-0.4,0.2-0.6,0.2c-0.2,0-0.3-0.1-0.5-0.2c-0.1-0.1-0.2-0.4-0.3-0.6c-0.1-0.3-0.1-0.6-0.1-1c0-0.4,0-0.7,0.1-1.1
				c0.1-0.4,0.2-0.7,0.3-1c0.1-0.3,0.3-0.6,0.5-0.8c0.2-0.2,0.4-0.4,0.6-0.5c0.2-0.1,0.4-0.2,0.6-0.2c0.2,0,0.3,0.1,0.5,0.2
				c0.1,0.1,0.2,0.4,0.3,0.6c0.1,0.3,0.1,0.6,0.1,1C138.3,182.9,138.2,183.3,138.2,183.7z M127.5,140c0,0.1-0.1,0.3-0.3,0.5
				c-0.2,0.2-0.3,0.5-0.5,0.8c-0.2,0.3-0.4,0.5-0.6,0.8c-0.2,0.2-0.4,0.4-0.5,0.5v1.8c0.2-0.1,0.3-0.2,0.5-0.4
				c0.2-0.2,0.4-0.4,0.6-0.6c0.2-0.2,0.4-0.4,0.5-0.6c0.2-0.2,0.3-0.4,0.3-0.5v4.3l-1.7,1v1.7l5-2.9v-1.7l-1.6,0.9V139L127.5,140z
				 M130.3,162.2c-0.3-0.2-0.6-0.3-1-0.3c-0.4,0-0.8,0.1-1.3,0.4c-0.5,0.3-0.9,0.6-1.3,1.1c-0.4,0.4-0.7,0.9-1,1.5
				c-0.3,0.5-0.5,1.1-0.7,1.7c-0.2,0.6-0.2,1.2-0.2,1.9c0,0.6,0.1,1.2,0.2,1.6c0.2,0.4,0.4,0.8,0.7,1c0.3,0.2,0.6,0.3,1,0.3
				c0.4,0,0.8-0.1,1.3-0.4c0.4-0.3,0.9-0.6,1.3-1c0.4-0.4,0.7-0.9,1-1.5c0.3-0.5,0.5-1.1,0.7-1.7c0.2-0.6,0.2-1.2,0.2-1.9
				c0-0.6-0.1-1.2-0.2-1.6C130.8,162.7,130.5,162.4,130.3,162.2z M129.4,166.8c-0.1,0.4-0.2,0.7-0.3,1c-0.1,0.3-0.3,0.6-0.5,0.8
				c-0.2,0.2-0.4,0.4-0.6,0.5c-0.2,0.1-0.4,0.2-0.6,0.2c-0.2,0-0.3-0.1-0.5-0.2c-0.1-0.1-0.2-0.4-0.3-0.6c-0.1-0.3-0.1-0.6-0.1-1
				c0-0.4,0-0.7,0.1-1.1c0.1-0.4,0.2-0.7,0.3-1c0.1-0.3,0.3-0.6,0.5-0.8c0.2-0.2,0.4-0.4,0.6-0.5c0.2-0.1,0.4-0.2,0.6-0.2
				c0.2,0,0.3,0.1,0.5,0.2c0.1,0.1,0.2,0.4,0.3,0.6c0.1,0.3,0.1,0.6,0.1,1C129.5,166,129.5,166.4,129.4,166.8z M206.4,119.9
				c0,0.1-0.1,0.3-0.3,0.5c-0.2,0.2-0.3,0.5-0.5,0.8c-0.2,0.3-0.4,0.5-0.6,0.8c-0.2,0.2-0.4,0.4-0.5,0.5v1.8
				c0.2-0.1,0.3-0.2,0.5-0.4c0.2-0.2,0.4-0.4,0.6-0.6c0.2-0.2,0.4-0.4,0.5-0.6c0.2-0.2,0.3-0.4,0.3-0.5v4.3l-1.7,1v1.7l5-2.9v-1.7
				l-1.6,0.9v-6.4L206.4,119.9z M130.3,150.7c-0.3-0.2-0.6-0.3-1-0.3c-0.4,0-0.8,0.1-1.3,0.4c-0.5,0.3-0.9,0.6-1.3,1.1
				c-0.4,0.4-0.7,0.9-1,1.5c-0.3,0.5-0.5,1.1-0.7,1.7c-0.2,0.6-0.2,1.2-0.2,1.9c0,0.6,0.1,1.2,0.2,1.6c0.2,0.4,0.4,0.8,0.7,1
				c0.3,0.2,0.6,0.3,1,0.3c0.4,0,0.8-0.1,1.3-0.4c0.4-0.3,0.9-0.6,1.3-1c0.4-0.4,0.7-0.9,1-1.5c0.3-0.5,0.5-1.1,0.7-1.7
				c0.2-0.6,0.2-1.2,0.2-1.9c0-0.6-0.1-1.2-0.2-1.6C130.8,151.2,130.5,150.9,130.3,150.7z M129.4,155.3c-0.1,0.4-0.2,0.7-0.3,1
				c-0.1,0.3-0.3,0.6-0.5,0.8c-0.2,0.2-0.4,0.4-0.6,0.5c-0.2,0.1-0.4,0.2-0.6,0.2c-0.2,0-0.3-0.1-0.5-0.2c-0.1-0.1-0.2-0.4-0.3-0.6
				c-0.1-0.3-0.1-0.6-0.1-1c0-0.4,0-0.7,0.1-1.1c0.1-0.4,0.2-0.7,0.3-1c0.1-0.3,0.3-0.6,0.5-0.8c0.2-0.2,0.4-0.4,0.6-0.5
				c0.2-0.1,0.4-0.2,0.6-0.2c0.2,0,0.3,0.1,0.5,0.2c0.1,0.1,0.2,0.4,0.3,0.6c0.1,0.3,0.1,0.6,0.1,1
				C129.5,154.6,129.5,154.9,129.4,155.3z M171.1,71.7c0.2-0.2,0.4-0.4,0.5-0.6c0.2-0.2,0.3-0.4,0.3-0.5v4.3l-1.7,1v1.7l5-2.9v-1.7
				l-1.6,0.9v-6.4l-1.7,1c0,0.1-0.1,0.3-0.3,0.5c-0.2,0.2-0.3,0.5-0.5,0.8c-0.2,0.3-0.4,0.5-0.6,0.8c-0.2,0.2-0.4,0.4-0.5,0.5v1.8
				c0.2-0.1,0.3-0.2,0.5-0.4C170.7,72.1,170.9,71.9,171.1,71.7z M188.7,45.6c0.2-0.2,0.4-0.4,0.5-0.6c0.2-0.2,0.3-0.4,0.3-0.5v4.3
				l-1.7,1v1.7l5-2.9v-1.7l-1.6,0.9v-6.4l-1.7,1c0,0.1-0.1,0.3-0.3,0.5c-0.2,0.2-0.3,0.5-0.5,0.8c-0.2,0.3-0.4,0.5-0.6,0.8
				c-0.2,0.2-0.4,0.4-0.5,0.5v1.8c0.2-0.1,0.3-0.2,0.5-0.4C188.3,46,188.5,45.8,188.7,45.6z M188.7,57c0.2-0.2,0.4-0.4,0.5-0.6
				c0.2-0.2,0.3-0.4,0.3-0.5v4.3l-1.7,1v1.7l5-2.9v-1.7l-1.6,0.9v-6.4l-1.7,1c0,0.1-0.1,0.3-0.3,0.5c-0.2,0.2-0.3,0.5-0.5,0.8
				c-0.2,0.3-0.4,0.5-0.6,0.8c-0.2,0.2-0.4,0.4-0.5,0.5V58c0.2-0.1,0.3-0.2,0.5-0.4C188.3,57.4,188.5,57.2,188.7,57z M197.7,63.6
				c0.2-0.2,0.4-0.4,0.5-0.6c0.2-0.2,0.3-0.4,0.3-0.5v4.3l-1.7,1v1.7l5-2.9v-1.7l-1.6,0.9v-6.4l-1.7,1c0,0.1-0.1,0.3-0.3,0.5
				c-0.2,0.2-0.3,0.5-0.5,0.8c-0.2,0.3-0.4,0.5-0.6,0.8c-0.2,0.2-0.4,0.4-0.5,0.5v1.8c0.2-0.1,0.3-0.2,0.5-0.4
				C197.3,64.1,197.5,63.9,197.7,63.6z M197.7,75.1c0.2-0.2,0.4-0.4,0.5-0.6c0.2-0.2,0.3-0.4,0.3-0.5v4.3l-1.7,1v1.7l5-2.9v-1.7
				l-1.6,0.9v-6.4l-1.7,1c0,0.1-0.1,0.3-0.3,0.5c-0.2,0.2-0.3,0.5-0.5,0.8c-0.2,0.3-0.4,0.5-0.6,0.8c-0.2,0.2-0.4,0.4-0.5,0.5v1.8
				c0.2-0.1,0.3-0.2,0.5-0.4C197.3,75.5,197.5,75.3,197.7,75.1z M179.9,65.7c0.2-0.2,0.4-0.4,0.5-0.6c0.2-0.2,0.3-0.4,0.3-0.5v4.3
				l-1.7,1v1.7l5-2.9v-1.7l-1.6,0.9v-6.4l-1.7,1c0,0.1-0.1,0.3-0.3,0.5c-0.2,0.2-0.3,0.5-0.5,0.8c-0.2,0.3-0.4,0.5-0.6,0.8
				c-0.2,0.2-0.4,0.4-0.5,0.5v1.8c0.2-0.1,0.3-0.2,0.5-0.4C179.5,66.1,179.7,65.9,179.9,65.7z M188.7,68.5c0.2-0.2,0.4-0.4,0.5-0.6
				c0.2-0.2,0.3-0.4,0.3-0.5v4.3l-1.7,1v1.7l5-2.9v-1.7l-1.6,0.9v-6.4l-1.7,1c0,0.1-0.1,0.3-0.3,0.5c-0.2,0.2-0.3,0.5-0.5,0.8
				c-0.2,0.3-0.4,0.5-0.6,0.8c-0.2,0.2-0.4,0.4-0.5,0.5v1.8c0.2-0.1,0.3-0.2,0.5-0.4C188.3,68.9,188.5,68.7,188.7,68.5z M205.5,88.7
				c0.2-0.2,0.4-0.4,0.5-0.6c0.2-0.2,0.3-0.4,0.3-0.5v4.3l-1.7,1v1.7l5-2.9V90l-1.6,0.9v-6.4l-1.7,1c0,0.1-0.1,0.3-0.3,0.5
				c-0.2,0.2-0.3,0.5-0.5,0.8c-0.2,0.3-0.4,0.5-0.6,0.8c-0.2,0.2-0.4,0.4-0.5,0.5v1.8c0.2-0.1,0.3-0.2,0.5-0.4
				C205.1,89.2,205.3,89,205.5,88.7z M197.7,52.2c0.2-0.2,0.4-0.4,0.5-0.6c0.2-0.2,0.3-0.4,0.3-0.5v4.3l-1.7,1V58l5-2.9v-1.7
				l-1.6,0.9v-6.4l-1.7,1c0,0.1-0.1,0.3-0.3,0.5c-0.2,0.2-0.3,0.5-0.5,0.8c-0.2,0.3-0.4,0.5-0.6,0.8c-0.2,0.2-0.4,0.4-0.5,0.5v1.8
				c0.2-0.1,0.3-0.2,0.5-0.4C197.3,52.6,197.5,52.4,197.7,52.2z M205.5,65.8c0.2-0.2,0.4-0.4,0.5-0.6c0.2-0.2,0.3-0.4,0.3-0.5v4.3
				l-1.7,1v1.7l5-2.9v-1.7l-1.6,0.9v-6.4l-1.7,1c0,0.1-0.1,0.3-0.3,0.5c-0.2,0.2-0.3,0.5-0.5,0.8c-0.2,0.3-0.4,0.5-0.6,0.8
				c-0.2,0.2-0.4,0.4-0.5,0.5v1.8c0.2-0.1,0.3-0.2,0.5-0.4C205.1,66.2,205.3,66,205.5,65.8z M205.5,77.3c0.2-0.2,0.4-0.4,0.5-0.6
				c0.2-0.2,0.3-0.4,0.3-0.5v4.3l-1.7,1v1.7l5-2.9v-1.7l-1.6,0.9V73l-1.7,1c0,0.1-0.1,0.3-0.3,0.5c-0.2,0.2-0.3,0.5-0.5,0.8
				c-0.2,0.3-0.4,0.5-0.6,0.8c-0.2,0.2-0.4,0.4-0.5,0.5v1.8c0.2-0.1,0.3-0.2,0.5-0.4C205.1,77.7,205.3,77.5,205.5,77.3z M179.9,77.1
				c0.2-0.2,0.4-0.4,0.5-0.6c0.2-0.2,0.3-0.4,0.3-0.5v4.3l-1.7,1V83l5-2.9v-1.7l-1.6,0.9v-6.4l-1.7,1c0,0.1-0.1,0.3-0.3,0.5
				c-0.2,0.2-0.3,0.5-0.5,0.8c-0.2,0.3-0.4,0.5-0.6,0.8c-0.2,0.2-0.4,0.4-0.5,0.5v1.8c0.2-0.1,0.3-0.2,0.5-0.4
				C179.5,77.5,179.7,77.3,179.9,77.1z M204.6,105c0.3,0.2,0.6,0.3,1,0.3c0.4,0,0.8-0.1,1.3-0.4c0.4-0.3,0.9-0.6,1.3-1
				c0.4-0.4,0.7-0.9,1-1.5c0.3-0.5,0.5-1.1,0.7-1.7c0.2-0.6,0.2-1.2,0.2-1.9c0-0.6-0.1-1.2-0.2-1.6c-0.2-0.4-0.4-0.8-0.7-1
				c-0.3-0.2-0.6-0.3-1-0.3c-0.4,0-0.8,0.1-1.3,0.4c-0.5,0.3-0.9,0.6-1.3,1.1c-0.4,0.4-0.7,0.9-1,1.5c-0.3,0.5-0.5,1.1-0.7,1.7
				c-0.2,0.6-0.2,1.2-0.2,1.9c0,0.6,0.1,1.2,0.2,1.6C204.1,104.4,204.3,104.8,204.6,105z M205.5,100.4c0.1-0.4,0.2-0.7,0.3-1
				c0.1-0.3,0.3-0.6,0.5-0.8c0.2-0.2,0.4-0.4,0.6-0.5c0.2-0.1,0.4-0.2,0.6-0.2c0.2,0,0.3,0.1,0.5,0.2c0.1,0.1,0.2,0.4,0.3,0.6
				c0.1,0.3,0.1,0.6,0.1,1c0,0.4,0,0.7-0.1,1.1c-0.1,0.4-0.2,0.7-0.3,1c-0.1,0.3-0.3,0.6-0.5,0.8c-0.2,0.2-0.4,0.4-0.6,0.5
				c-0.2,0.1-0.4,0.2-0.6,0.2c-0.2,0-0.3-0.1-0.5-0.2c-0.1-0.1-0.2-0.4-0.3-0.6c-0.1-0.3-0.1-0.6-0.1-1
				C205.4,101.1,205.4,100.7,205.5,100.4z M153.2,100.8c0.2-0.2,0.4-0.4,0.5-0.6c0.2-0.2,0.3-0.4,0.3-0.5v4.3l-1.7,1v1.7l5-2.9V102
				l-1.6,0.9v-6.4l-1.7,1c0,0.1-0.1,0.3-0.3,0.5c-0.2,0.2-0.3,0.5-0.5,0.8c-0.2,0.3-0.4,0.5-0.6,0.7c-0.2,0.2-0.4,0.4-0.5,0.5v1.8
				c0.2-0.1,0.3-0.2,0.5-0.4C152.8,101.2,153,101,153.2,100.8z M153.2,89.3c0.2-0.2,0.4-0.4,0.5-0.6c0.2-0.2,0.3-0.4,0.3-0.5v4.3
				l-1.7,1v1.7l5-2.9v-1.7l-1.6,0.9v-6.4l-1.7,1c0,0.1-0.1,0.3-0.3,0.5c-0.2,0.2-0.3,0.5-0.5,0.8c-0.2,0.3-0.4,0.5-0.6,0.8
				c-0.2,0.2-0.4,0.4-0.5,0.5v1.8c0.2-0.1,0.3-0.2,0.5-0.4C152.8,89.7,153,89.5,153.2,89.3z M179.9,88.6c0.2-0.2,0.4-0.4,0.5-0.6
				c0.2-0.2,0.3-0.4,0.3-0.5v4.3l-1.7,1v1.7l5-2.9v-1.7l-1.6,0.9v-6.4l-1.7,1c0,0.1-0.1,0.3-0.3,0.5c-0.2,0.2-0.3,0.5-0.5,0.8
				c-0.2,0.3-0.4,0.5-0.6,0.8c-0.2,0.2-0.4,0.4-0.5,0.5v1.8c0.2-0.1,0.3-0.2,0.5-0.4C179.5,89,179.7,88.8,179.9,88.6z M144.3,94.2
				c0.2-0.2,0.4-0.4,0.5-0.6c0.2-0.2,0.3-0.4,0.3-0.5v4.3l-1.7,1v1.7l5-2.9v-1.7l-1.6,0.9v-6.4l-1.7,1c0,0.1-0.1,0.3-0.3,0.5
				c-0.2,0.2-0.3,0.5-0.5,0.8c-0.2,0.3-0.4,0.5-0.6,0.8c-0.2,0.2-0.4,0.4-0.5,0.5v1.8c0.2-0.1,0.3-0.2,0.5-0.4
				C143.9,94.6,144.1,94.4,144.3,94.2z M144.3,71.2c0.2-0.2,0.4-0.4,0.5-0.6c0.2-0.2,0.3-0.4,0.3-0.5v4.3l-1.7,1v1.7l5-2.9v-1.7
				l-1.6,0.9V67l-1.7,1c0,0.1-0.1,0.3-0.3,0.5c-0.2,0.2-0.3,0.5-0.5,0.8c-0.2,0.3-0.4,0.5-0.6,0.8c-0.2,0.2-0.4,0.4-0.5,0.5v1.8
				c0.2-0.1,0.3-0.2,0.5-0.4C143.9,71.6,144.1,71.4,144.3,71.2z M144.3,82.7c0.2-0.2,0.4-0.4,0.5-0.6c0.2-0.2,0.3-0.4,0.3-0.5v4.3
				l-1.7,1v1.7l5-2.9v-1.7l-1.6,0.9v-6.4l-1.7,1c0,0.1-0.1,0.3-0.3,0.5c-0.2,0.2-0.3,0.5-0.5,0.8c-0.2,0.3-0.4,0.5-0.6,0.8
				c-0.2,0.2-0.4,0.4-0.5,0.5v1.8c0.2-0.1,0.3-0.2,0.5-0.4C143.9,83.1,144.1,82.9,144.3,82.7z M161.1,114.4c0.2-0.2,0.4-0.4,0.5-0.6
				c0.2-0.2,0.3-0.4,0.3-0.5v4.3l-1.7,1v1.7l5-2.9v-1.7l-1.6,0.9v-6.4l-1.7,1c0,0.1-0.1,0.3-0.3,0.5c-0.2,0.2-0.3,0.5-0.5,0.8
				c-0.2,0.3-0.4,0.5-0.6,0.8c-0.2,0.2-0.4,0.4-0.5,0.5v1.8c0.2-0.1,0.3-0.2,0.5-0.4C160.7,114.8,160.9,114.6,161.1,114.4z
				 M153.2,77.8c0.2-0.2,0.4-0.4,0.5-0.6c0.2-0.2,0.3-0.4,0.3-0.5V81l-1.7,1v1.7l5-2.9v-1.7l-1.6,0.9v-6.4l-1.7,1
				c0,0.1-0.1,0.3-0.3,0.5c-0.2,0.2-0.3,0.5-0.5,0.8c-0.2,0.3-0.4,0.5-0.6,0.8c-0.2,0.2-0.4,0.4-0.5,0.5v1.8
				c0.2-0.1,0.3-0.2,0.5-0.4C152.8,78.3,153,78.1,153.2,77.8z M139,167.6c-0.3-0.2-0.6-0.3-1-0.3c-0.4,0-0.8,0.1-1.3,0.4
				c-0.5,0.3-0.9,0.6-1.3,1.1c-0.4,0.4-0.7,0.9-1,1.5c-0.3,0.5-0.5,1.1-0.7,1.7c-0.2,0.6-0.2,1.2-0.2,1.9c0,0.6,0.1,1.1,0.2,1.6
				c0.2,0.4,0.4,0.8,0.7,1c0.3,0.2,0.6,0.3,1,0.3c0.4,0,0.8-0.1,1.3-0.4c0.4-0.3,0.9-0.6,1.3-1c0.4-0.4,0.7-0.9,1-1.5
				c0.3-0.5,0.5-1.1,0.7-1.7c0.2-0.6,0.2-1.2,0.2-1.9c0-0.6-0.1-1.2-0.2-1.6C139.5,168.1,139.3,167.8,139,167.6z M138.2,172.2
				c-0.1,0.4-0.2,0.7-0.3,1c-0.1,0.3-0.3,0.6-0.5,0.8c-0.2,0.2-0.4,0.4-0.6,0.5c-0.2,0.1-0.4,0.2-0.6,0.2c-0.2,0-0.3-0.1-0.5-0.2
				c-0.1-0.1-0.2-0.4-0.3-0.6c-0.1-0.3-0.1-0.6-0.1-1c0-0.4,0-0.7,0.1-1.1c0.1-0.4,0.2-0.7,0.3-1c0.1-0.3,0.3-0.6,0.5-0.8
				c0.2-0.2,0.4-0.4,0.6-0.5c0.2-0.1,0.4-0.2,0.6-0.2c0.2,0,0.3,0.1,0.5,0.2c0.1,0.1,0.2,0.4,0.3,0.6c0.1,0.3,0.1,0.6,0.1,1
				C138.3,171.5,138.2,171.8,138.2,172.2z M171.1,60.2c0.2-0.2,0.4-0.4,0.5-0.6c0.2-0.2,0.3-0.4,0.3-0.5v4.3l-1.7,1v1.7l5-2.9v-1.7
				l-1.6,0.9V56l-1.7,1c0,0.1-0.1,0.3-0.3,0.5c-0.2,0.2-0.3,0.5-0.5,0.8c-0.2,0.3-0.4,0.5-0.6,0.8c-0.2,0.2-0.4,0.4-0.5,0.5v1.8
				c0.2-0.1,0.3-0.2,0.5-0.4C170.7,60.6,170.9,60.4,171.1,60.2z M171.1,83.2c0.2-0.2,0.4-0.4,0.5-0.6c0.2-0.2,0.3-0.4,0.3-0.5v4.3
				l-1.7,1V89l5-2.9v-1.7l-1.6,0.9v-6.4l-1.7,1c0,0.1-0.1,0.3-0.3,0.5c-0.2,0.2-0.3,0.5-0.5,0.8c-0.2,0.3-0.4,0.5-0.6,0.8
				c-0.2,0.2-0.4,0.4-0.5,0.5v1.8c0.2-0.1,0.3-0.2,0.5-0.4C170.7,83.6,170.9,83.4,171.1,83.2z M161.1,102.9c0.2-0.2,0.4-0.4,0.5-0.6
				c0.2-0.2,0.3-0.4,0.3-0.5v4.3l-1.7,1v1.7l5-2.9v-1.7l-1.6,0.9v-6.4l-1.7,1c0,0.1-0.1,0.3-0.3,0.5c-0.2,0.2-0.3,0.5-0.5,0.8
				c-0.2,0.3-0.4,0.5-0.6,0.8c-0.2,0.2-0.4,0.4-0.5,0.5v1.8c0.2-0.1,0.3-0.2,0.5-0.4C160.7,103.4,160.9,103.2,161.1,102.9z
				 M161.1,91.5c0.2-0.2,0.4-0.4,0.5-0.6c0.2-0.2,0.3-0.4,0.3-0.5v4.3l-1.7,1v1.7l5-2.9v-1.7l-1.6,0.9v-6.4l-1.7,1
				c0,0.1-0.1,0.3-0.3,0.5c-0.2,0.2-0.3,0.5-0.5,0.8c-0.2,0.3-0.4,0.5-0.6,0.8c-0.2,0.2-0.4,0.4-0.5,0.5v1.8
				c0.2-0.1,0.3-0.2,0.5-0.4C160.7,91.9,160.9,91.7,161.1,91.5z M180.7,119.7c0,0.1-0.1,0.3-0.3,0.5c-0.2,0.2-0.3,0.5-0.5,0.8
				c-0.2,0.3-0.4,0.5-0.6,0.8c-0.2,0.2-0.4,0.4-0.5,0.5v1.8c0.2-0.1,0.3-0.2,0.5-0.4c0.2-0.2,0.4-0.4,0.6-0.6
				c0.2-0.2,0.4-0.4,0.5-0.6c0.2-0.2,0.3-0.4,0.3-0.5v4.3l-1.7,1v1.7l5-2.9v-1.7l-1.6,0.9v-6.4L180.7,119.7z M174.7,136.5
				c-0.3-0.2-0.6-0.3-1-0.3c-0.4,0-0.8,0.1-1.3,0.4c-0.5,0.3-0.9,0.6-1.3,1.1c-0.4,0.4-0.7,0.9-1,1.5c-0.3,0.5-0.5,1.1-0.7,1.7
				c-0.2,0.6-0.2,1.2-0.2,1.9c0,0.6,0.1,1.2,0.2,1.6c0.2,0.4,0.4,0.8,0.7,1c0.3,0.2,0.6,0.3,1,0.3c0.4,0,0.8-0.1,1.3-0.4
				c0.4-0.3,0.9-0.6,1.3-1c0.4-0.4,0.7-0.9,1-1.5c0.3-0.5,0.5-1.1,0.7-1.7c0.2-0.6,0.2-1.2,0.2-1.9c0-0.6-0.1-1.2-0.2-1.6
				C175.2,137,175,136.7,174.7,136.5z M173.8,141.1c-0.1,0.4-0.2,0.7-0.3,1c-0.1,0.3-0.3,0.6-0.5,0.8c-0.2,0.2-0.4,0.4-0.6,0.5
				c-0.2,0.1-0.4,0.2-0.6,0.2c-0.2,0-0.3-0.1-0.5-0.2c-0.1-0.1-0.2-0.4-0.3-0.6c-0.1-0.3-0.1-0.6-0.1-1c0-0.4,0-0.7,0.1-1.1
				c0.1-0.4,0.2-0.7,0.3-1c0.1-0.3,0.3-0.6,0.5-0.8c0.2-0.2,0.4-0.4,0.6-0.5c0.2-0.1,0.4-0.2,0.6-0.2c0.2,0,0.3,0.1,0.5,0.2
				c0.1,0.1,0.2,0.4,0.3,0.6c0.1,0.3,0.1,0.6,0.1,1C174,140.4,173.9,140.7,173.8,141.1z M192.4,76c-0.3-0.2-0.6-0.3-1-0.3
				c-0.4,0-0.8,0.1-1.3,0.4c-0.5,0.3-0.9,0.6-1.3,1.1c-0.4,0.4-0.7,0.9-1,1.5c-0.3,0.5-0.5,1.1-0.7,1.7c-0.2,0.6-0.2,1.2-0.2,1.9
				c0,0.6,0.1,1.2,0.2,1.6c0.2,0.4,0.4,0.8,0.7,1c0.3,0.2,0.6,0.3,1,0.3c0.4,0,0.8-0.1,1.3-0.4c0.4-0.3,0.9-0.6,1.3-1
				c0.4-0.4,0.7-0.9,1-1.5c0.3-0.5,0.5-1.1,0.7-1.7c0.2-0.6,0.2-1.2,0.2-1.9c0-0.6-0.1-1.2-0.2-1.6C192.9,76.5,192.6,76.2,192.4,76z
				 M191.5,80.6c-0.1,0.4-0.2,0.7-0.3,1c-0.1,0.3-0.3,0.6-0.5,0.8c-0.2,0.2-0.4,0.4-0.6,0.5c-0.2,0.1-0.4,0.2-0.6,0.2
				c-0.2,0-0.3-0.1-0.5-0.2c-0.1-0.1-0.2-0.4-0.3-0.6c-0.1-0.3-0.1-0.6-0.1-1c0-0.4,0-0.7,0.1-1.1c0.1-0.4,0.2-0.7,0.3-1
				c0.1-0.3,0.3-0.6,0.5-0.8c0.2-0.2,0.4-0.4,0.6-0.5c0.2-0.1,0.4-0.2,0.6-0.2c0.2,0,0.3,0.1,0.5,0.2c0.1,0.1,0.2,0.4,0.3,0.6
				c0.1,0.3,0.1,0.6,0.1,1C191.6,79.9,191.6,80.2,191.5,80.6z M189.6,99.6c0,0.1-0.1,0.3-0.3,0.5c-0.2,0.2-0.3,0.5-0.5,0.8
				c-0.2,0.3-0.4,0.5-0.6,0.8c-0.2,0.2-0.4,0.4-0.5,0.5v1.8c0.2-0.1,0.3-0.2,0.5-0.4c0.2-0.2,0.4-0.4,0.6-0.6
				c0.2-0.2,0.4-0.4,0.5-0.6c0.2-0.2,0.3-0.4,0.3-0.5v4.3l-1.7,1v1.7l5-2.9v-1.7l-1.6,0.9v-6.4L189.6,99.6z M192.4,110.4
				c-0.3-0.2-0.6-0.3-1-0.3c-0.4,0-0.8,0.1-1.3,0.4c-0.5,0.3-0.9,0.6-1.3,1.1c-0.4,0.4-0.7,0.9-1,1.5c-0.3,0.5-0.5,1.1-0.7,1.7
				c-0.2,0.6-0.2,1.2-0.2,1.9c0,0.6,0.1,1.2,0.2,1.6c0.2,0.4,0.4,0.8,0.7,1c0.3,0.2,0.6,0.3,1,0.3c0.4,0,0.8-0.1,1.3-0.4
				c0.4-0.3,0.9-0.6,1.3-1c0.4-0.4,0.7-0.9,1-1.5c0.3-0.5,0.5-1.1,0.7-1.7c0.2-0.6,0.2-1.2,0.2-1.9c0-0.6-0.1-1.2-0.2-1.6
				C192.9,110.9,192.6,110.6,192.4,110.4z M191.5,115c-0.1,0.4-0.2,0.7-0.3,1c-0.1,0.3-0.3,0.6-0.5,0.8c-0.2,0.2-0.4,0.4-0.6,0.5
				c-0.2,0.1-0.4,0.2-0.6,0.2c-0.2,0-0.3-0.1-0.5-0.2c-0.1-0.1-0.2-0.4-0.3-0.6c-0.1-0.3-0.1-0.6-0.1-1c0-0.4,0-0.7,0.1-1.1
				c0.1-0.4,0.2-0.7,0.3-1c0.1-0.3,0.3-0.6,0.5-0.8c0.2-0.2,0.4-0.4,0.6-0.5c0.2-0.1,0.4-0.2,0.6-0.2c0.2,0,0.3,0.1,0.5,0.2
				c0.1,0.1,0.2,0.4,0.3,0.6c0.1,0.3,0.1,0.6,0.1,1C191.6,114.3,191.6,114.6,191.5,115z M174.7,147.9c-0.3-0.2-0.6-0.3-1-0.3
				c-0.4,0-0.8,0.1-1.3,0.4c-0.5,0.3-0.9,0.6-1.3,1.1c-0.4,0.4-0.7,0.9-1,1.5c-0.3,0.5-0.5,1.1-0.7,1.7c-0.2,0.6-0.2,1.2-0.2,1.9
				c0,0.6,0.1,1.1,0.2,1.6c0.2,0.4,0.4,0.8,0.7,1c0.3,0.2,0.6,0.3,1,0.3c0.4,0,0.8-0.1,1.3-0.4c0.4-0.3,0.9-0.6,1.3-1
				c0.4-0.4,0.7-0.9,1-1.5c0.3-0.5,0.5-1.1,0.7-1.7c0.2-0.6,0.2-1.2,0.2-1.9c0-0.6-0.1-1.2-0.2-1.6
				C175.2,148.5,175,148.2,174.7,147.9z M173.8,152.6c-0.1,0.4-0.2,0.7-0.3,1c-0.1,0.3-0.3,0.6-0.5,0.8c-0.2,0.2-0.4,0.4-0.6,0.5
				c-0.2,0.1-0.4,0.2-0.6,0.2c-0.2,0-0.3-0.1-0.5-0.2c-0.1-0.1-0.2-0.4-0.3-0.6c-0.1-0.3-0.1-0.6-0.1-1c0-0.4,0-0.7,0.1-1.1
				c0.1-0.4,0.2-0.7,0.3-1c0.1-0.3,0.3-0.6,0.5-0.8c0.2-0.2,0.4-0.4,0.6-0.5c0.2-0.1,0.4-0.2,0.6-0.2c0.2,0,0.3,0.1,0.5,0.2
				c0.1,0.1,0.2,0.4,0.3,0.6c0.1,0.3,0.1,0.6,0.1,1C174,151.8,173.9,152.2,173.8,152.6z M164.7,121.9c-0.3-0.2-0.6-0.3-1-0.3
				c-0.4,0-0.8,0.1-1.3,0.4c-0.5,0.3-0.9,0.6-1.3,1.1c-0.4,0.4-0.7,0.9-1,1.5c-0.3,0.5-0.5,1.1-0.7,1.7c-0.2,0.6-0.2,1.2-0.2,1.9
				c0,0.6,0.1,1.2,0.2,1.6c0.2,0.4,0.4,0.8,0.7,1c0.3,0.2,0.6,0.3,1,0.3c0.4,0,0.8-0.1,1.3-0.4c0.4-0.3,0.9-0.6,1.3-1
				c0.4-0.4,0.7-0.9,1-1.5c0.3-0.5,0.5-1.1,0.7-1.7c0.2-0.6,0.2-1.2,0.2-1.9c0-0.6-0.1-1.2-0.2-1.6
				C165.2,122.4,165,122.1,164.7,121.9z M163.8,126.5c-0.1,0.4-0.2,0.7-0.3,1c-0.1,0.3-0.3,0.6-0.5,0.8c-0.2,0.2-0.4,0.4-0.6,0.5
				c-0.2,0.1-0.4,0.2-0.6,0.2c-0.2,0-0.3-0.1-0.5-0.2c-0.1-0.1-0.2-0.4-0.3-0.6c-0.1-0.3-0.1-0.6-0.1-1c0-0.4,0-0.7,0.1-1.1
				c0.1-0.4,0.2-0.7,0.3-1c0.1-0.3,0.3-0.6,0.5-0.8c0.2-0.2,0.4-0.4,0.6-0.5c0.2-0.1,0.4-0.2,0.6-0.2c0.2,0,0.3,0.1,0.5,0.2
				c0.1,0.1,0.2,0.4,0.3,0.6c0.1,0.3,0.1,0.6,0.1,1C163.9,125.8,163.9,126.1,163.8,126.5z M164.7,179.2c-0.3-0.2-0.6-0.3-1-0.3
				c-0.4,0-0.8,0.1-1.3,0.4c-0.5,0.3-0.9,0.6-1.3,1.1c-0.4,0.4-0.7,0.9-1,1.5c-0.3,0.5-0.5,1.1-0.7,1.7c-0.2,0.6-0.2,1.2-0.2,1.9
				c0,0.6,0.1,1.2,0.2,1.6c0.2,0.4,0.4,0.8,0.7,1c0.3,0.2,0.6,0.3,1,0.3c0.4,0,0.8-0.1,1.3-0.4c0.4-0.3,0.9-0.6,1.3-1
				c0.4-0.4,0.7-0.9,1-1.5c0.3-0.5,0.5-1.1,0.7-1.7c0.2-0.6,0.2-1.2,0.2-1.9c0-0.6-0.1-1.2-0.2-1.6
				C165.2,179.8,165,179.4,164.7,179.2z M163.8,183.8c-0.1,0.4-0.2,0.7-0.3,1c-0.1,0.3-0.3,0.6-0.5,0.8c-0.2,0.2-0.4,0.4-0.6,0.5
				c-0.2,0.1-0.4,0.2-0.6,0.2c-0.2,0-0.3-0.1-0.5-0.2c-0.1-0.1-0.2-0.4-0.3-0.6c-0.1-0.3-0.1-0.6-0.1-1c0-0.4,0-0.7,0.1-1.1
				c0.1-0.4,0.2-0.7,0.3-1c0.1-0.3,0.3-0.6,0.5-0.8c0.2-0.2,0.4-0.4,0.6-0.5c0.2-0.1,0.4-0.2,0.6-0.2c0.2,0,0.3,0.1,0.5,0.2
				c0.1,0.1,0.2,0.4,0.3,0.6c0.1,0.3,0.1,0.6,0.1,1C163.9,183.1,163.9,183.5,163.8,183.8z M164.7,167.7c-0.3-0.2-0.6-0.3-1-0.3
				c-0.4,0-0.8,0.1-1.3,0.4c-0.5,0.3-0.9,0.6-1.3,1.1c-0.4,0.4-0.7,0.9-1,1.5c-0.3,0.5-0.5,1.1-0.7,1.7c-0.2,0.6-0.2,1.2-0.2,1.9
				c0,0.6,0.1,1.2,0.2,1.6c0.2,0.4,0.4,0.8,0.7,1c0.3,0.2,0.6,0.3,1,0.3c0.4,0,0.8-0.1,1.3-0.4c0.4-0.3,0.9-0.6,1.3-1
				c0.4-0.4,0.7-0.9,1-1.5c0.3-0.5,0.5-1.1,0.7-1.7c0.2-0.6,0.2-1.2,0.2-1.9c0-0.6-0.1-1.2-0.2-1.6C165.2,168.3,165,168,164.7,167.7
				z M163.8,172.4c-0.1,0.4-0.2,0.7-0.3,1c-0.1,0.3-0.3,0.6-0.5,0.8c-0.2,0.2-0.4,0.4-0.6,0.5c-0.2,0.1-0.4,0.2-0.6,0.2
				c-0.2,0-0.3-0.1-0.5-0.2c-0.1-0.1-0.2-0.4-0.3-0.6c-0.1-0.3-0.1-0.6-0.1-1c0-0.4,0-0.7,0.1-1.1c0.1-0.4,0.2-0.7,0.3-1
				c0.1-0.3,0.3-0.6,0.5-0.8c0.2-0.2,0.4-0.4,0.6-0.5c0.2-0.1,0.4-0.2,0.6-0.2c0.2,0,0.3,0.1,0.5,0.2c0.1,0.1,0.2,0.4,0.3,0.6
				c0.1,0.3,0.1,0.6,0.1,1C163.9,171.6,163.9,172,163.8,172.4z M164.7,156.3c-0.3-0.2-0.6-0.3-1-0.3c-0.4,0-0.8,0.1-1.3,0.4
				c-0.5,0.3-0.9,0.6-1.3,1.1c-0.4,0.4-0.7,0.9-1,1.5c-0.3,0.5-0.5,1.1-0.7,1.7c-0.2,0.6-0.2,1.2-0.2,1.9c0,0.6,0.1,1.2,0.2,1.6
				c0.2,0.4,0.4,0.8,0.7,1c0.3,0.2,0.6,0.3,1,0.3c0.4,0,0.8-0.1,1.3-0.4c0.4-0.3,0.9-0.6,1.3-1c0.4-0.4,0.7-0.9,1-1.5
				c0.3-0.5,0.5-1.1,0.7-1.7c0.2-0.6,0.2-1.2,0.2-1.9c0-0.6-0.1-1.2-0.2-1.6C165.2,156.8,165,156.5,164.7,156.3z M163.8,160.9
				c-0.1,0.4-0.2,0.7-0.3,1c-0.1,0.3-0.3,0.6-0.5,0.8c-0.2,0.2-0.4,0.4-0.6,0.5c-0.2,0.1-0.4,0.2-0.6,0.2c-0.2,0-0.3-0.1-0.5-0.2
				c-0.1-0.1-0.2-0.4-0.3-0.6c-0.1-0.3-0.1-0.6-0.1-1c0-0.4,0-0.7,0.1-1.1c0.1-0.4,0.2-0.7,0.3-1c0.1-0.3,0.3-0.6,0.5-0.8
				c0.2-0.2,0.4-0.4,0.6-0.5c0.2-0.1,0.4-0.2,0.6-0.2c0.2,0,0.3,0.1,0.5,0.2c0.1,0.1,0.2,0.4,0.3,0.6c0.1,0.3,0.1,0.6,0.1,1
				C163.9,160.2,163.9,160.5,163.8,160.9z M192.4,87.4c-0.3-0.2-0.6-0.3-1-0.3c-0.4,0-0.8,0.1-1.3,0.4c-0.5,0.3-0.9,0.6-1.3,1.1
				c-0.4,0.4-0.7,0.9-1,1.5c-0.3,0.5-0.5,1.1-0.7,1.7c-0.2,0.6-0.2,1.2-0.2,1.9c0,0.6,0.1,1.2,0.2,1.6c0.2,0.4,0.4,0.8,0.7,1
				c0.3,0.2,0.6,0.3,1,0.3c0.4,0,0.8-0.1,1.3-0.4c0.4-0.3,0.9-0.6,1.3-1c0.4-0.4,0.7-0.9,1-1.5c0.3-0.5,0.5-1.1,0.7-1.7
				c0.2-0.6,0.2-1.2,0.2-1.9c0-0.6-0.1-1.2-0.2-1.6C192.9,88,192.6,87.6,192.4,87.4z M191.5,92c-0.1,0.4-0.2,0.7-0.3,1
				c-0.1,0.3-0.3,0.6-0.5,0.8c-0.2,0.2-0.4,0.4-0.6,0.5c-0.2,0.1-0.4,0.2-0.6,0.2c-0.2,0-0.3-0.1-0.5-0.2c-0.1-0.1-0.2-0.4-0.3-0.6
				c-0.1-0.3-0.1-0.6-0.1-1c0-0.4,0-0.7,0.1-1.1c0.1-0.4,0.2-0.7,0.3-1c0.1-0.3,0.3-0.6,0.5-0.8c0.2-0.2,0.4-0.4,0.6-0.5
				c0.2-0.1,0.4-0.2,0.6-0.2c0.2,0,0.3,0.1,0.5,0.2c0.1,0.1,0.2,0.4,0.3,0.6c0.1,0.3,0.1,0.6,0.1,1C191.6,91.3,191.6,91.7,191.5,92z
				 M161.9,145.6c0,0.1-0.1,0.3-0.3,0.5c-0.2,0.2-0.3,0.5-0.5,0.8c-0.2,0.3-0.4,0.5-0.6,0.8c-0.2,0.2-0.4,0.4-0.5,0.5v1.8
				c0.2-0.1,0.3-0.2,0.5-0.4c0.2-0.2,0.4-0.4,0.6-0.6c0.2-0.2,0.4-0.4,0.5-0.6c0.2-0.2,0.3-0.4,0.3-0.5v4.3l-1.7,1v1.7l5-2.9v-1.7
				l-1.6,0.9v-6.4L161.9,145.6z M164.7,133.3c-0.3-0.2-0.6-0.3-1-0.3c-0.4,0-0.8,0.1-1.3,0.4c-0.5,0.3-0.9,0.6-1.3,1.1
				c-0.4,0.4-0.7,0.9-1,1.5c-0.3,0.5-0.5,1.1-0.7,1.7c-0.2,0.6-0.2,1.2-0.2,1.9c0,0.6,0.1,1.1,0.2,1.6c0.2,0.4,0.4,0.8,0.7,1
				c0.3,0.2,0.6,0.3,1,0.3c0.4,0,0.8-0.1,1.3-0.4c0.4-0.3,0.9-0.6,1.3-1c0.4-0.4,0.7-0.9,1-1.5c0.3-0.5,0.5-1.1,0.7-1.7
				c0.2-0.6,0.2-1.2,0.2-1.9c0-0.6-0.1-1.2-0.2-1.6C165.2,133.9,165,133.6,164.7,133.3z M163.8,138c-0.1,0.4-0.2,0.7-0.3,1
				c-0.1,0.3-0.3,0.6-0.5,0.8c-0.2,0.2-0.4,0.4-0.6,0.5c-0.2,0.1-0.4,0.2-0.6,0.2c-0.2,0-0.3-0.1-0.5-0.2c-0.1-0.1-0.2-0.4-0.3-0.6
				c-0.1-0.3-0.1-0.6-0.1-1c0-0.4,0-0.7,0.1-1.1c0.1-0.4,0.2-0.7,0.3-1c0.1-0.3,0.3-0.6,0.5-0.8c0.2-0.2,0.4-0.4,0.6-0.5
				c0.2-0.1,0.4-0.2,0.6-0.2c0.2,0,0.3,0.1,0.5,0.2c0.1,0.1,0.2,0.4,0.3,0.6c0.1,0.3,0.1,0.6,0.1,1
				C163.9,137.2,163.9,137.6,163.8,138z M183.5,96.1c-0.3-0.2-0.6-0.3-1-0.3c-0.4,0-0.8,0.1-1.3,0.4c-0.5,0.3-0.9,0.6-1.3,1.1
				c-0.4,0.4-0.7,0.9-1,1.5c-0.3,0.5-0.5,1.1-0.7,1.7c-0.2,0.6-0.2,1.2-0.2,1.9c0,0.6,0.1,1.2,0.2,1.6c0.2,0.4,0.4,0.8,0.7,1
				c0.3,0.2,0.6,0.3,1,0.3c0.4,0,0.8-0.1,1.3-0.4c0.4-0.3,0.9-0.6,1.3-1c0.4-0.4,0.7-0.9,1-1.5c0.3-0.5,0.5-1.1,0.7-1.7
				c0.2-0.6,0.2-1.2,0.2-1.9c0-0.6-0.1-1.2-0.2-1.6C184,96.6,183.8,96.3,183.5,96.1z M182.6,100.7c-0.1,0.4-0.2,0.7-0.3,1
				c-0.1,0.3-0.3,0.6-0.5,0.8c-0.2,0.2-0.4,0.4-0.6,0.5c-0.2,0.1-0.4,0.2-0.6,0.2c-0.2,0-0.3-0.1-0.5-0.2c-0.1-0.1-0.2-0.4-0.3-0.6
				c-0.1-0.3-0.1-0.6-0.1-1c0-0.4,0-0.7,0.1-1.1c0.1-0.4,0.2-0.7,0.3-1c0.1-0.3,0.3-0.6,0.5-0.8c0.2-0.2,0.4-0.4,0.6-0.5
				c0.2-0.1,0.4-0.2,0.6-0.2c0.2,0,0.3,0.1,0.5,0.2c0.1,0.1,0.2,0.4,0.3,0.6c0.1,0.3,0.1,0.6,0.1,1
				C182.7,99.9,182.7,100.3,182.6,100.7z M183.5,141.9c-0.3-0.2-0.6-0.3-1-0.3c-0.4,0-0.8,0.1-1.3,0.4c-0.5,0.3-0.9,0.6-1.3,1.1
				c-0.4,0.4-0.7,0.9-1,1.5c-0.3,0.5-0.5,1.1-0.7,1.7c-0.2,0.6-0.2,1.2-0.2,1.9c0,0.6,0.1,1.2,0.2,1.6c0.2,0.4,0.4,0.8,0.7,1
				c0.3,0.2,0.6,0.3,1,0.3c0.4,0,0.8-0.1,1.3-0.4c0.4-0.3,0.9-0.6,1.3-1c0.4-0.4,0.7-0.9,1-1.5c0.3-0.5,0.5-1.1,0.7-1.7
				c0.2-0.6,0.2-1.2,0.2-1.9c0-0.6-0.1-1.2-0.2-1.6C184,142.5,183.8,142.1,183.5,141.9z M182.6,146.5c-0.1,0.4-0.2,0.7-0.3,1
				c-0.1,0.3-0.3,0.6-0.5,0.8c-0.2,0.2-0.4,0.4-0.6,0.5c-0.2,0.1-0.4,0.2-0.6,0.2c-0.2,0-0.3-0.1-0.5-0.2c-0.1-0.1-0.2-0.4-0.3-0.6
				c-0.1-0.3-0.1-0.6-0.1-1c0-0.4,0-0.7,0.1-1.1c0.1-0.4,0.2-0.7,0.3-1c0.1-0.3,0.3-0.6,0.5-0.8c0.2-0.2,0.4-0.4,0.6-0.5
				c0.2-0.1,0.4-0.2,0.6-0.2c0.2,0,0.3,0.1,0.5,0.2c0.1,0.1,0.2,0.4,0.3,0.6c0.1,0.3,0.1,0.6,0.1,1
				C182.7,145.8,182.7,146.2,182.6,146.5z M183.5,130.5c-0.3-0.2-0.6-0.3-1-0.3c-0.4,0-0.8,0.1-1.3,0.4c-0.5,0.3-0.9,0.6-1.3,1.1
				c-0.4,0.4-0.7,0.9-1,1.5c-0.3,0.5-0.5,1.1-0.7,1.7c-0.2,0.6-0.2,1.2-0.2,1.9c0,0.6,0.1,1.2,0.2,1.6c0.2,0.4,0.4,0.8,0.7,1
				c0.3,0.2,0.6,0.3,1,0.3c0.4,0,0.8-0.1,1.3-0.4c0.4-0.3,0.9-0.6,1.3-1c0.4-0.4,0.7-0.9,1-1.5c0.3-0.5,0.5-1.1,0.7-1.7
				c0.2-0.6,0.2-1.2,0.2-1.9c0-0.6-0.1-1.2-0.2-1.6S183.8,130.7,183.5,130.5z M182.6,135.1c-0.1,0.4-0.2,0.7-0.3,1
				c-0.1,0.3-0.3,0.6-0.5,0.8c-0.2,0.2-0.4,0.4-0.6,0.5c-0.2,0.1-0.4,0.2-0.6,0.2c-0.2,0-0.3-0.1-0.5-0.2c-0.1-0.1-0.2-0.4-0.3-0.6
				c-0.1-0.3-0.1-0.6-0.1-1c0-0.4,0-0.7,0.1-1.1c0.1-0.4,0.2-0.7,0.3-1c0.1-0.3,0.3-0.6,0.5-0.8c0.2-0.2,0.4-0.4,0.6-0.5
				c0.2-0.1,0.4-0.2,0.6-0.2c0.2,0,0.3,0.1,0.5,0.2c0.1,0.1,0.2,0.4,0.3,0.6c0.1,0.3,0.1,0.6,0.1,1
				C182.7,134.3,182.7,134.7,182.6,135.1z M183.5,107.5c-0.3-0.2-0.6-0.3-1-0.3c-0.4,0-0.8,0.1-1.3,0.4c-0.5,0.3-0.9,0.6-1.3,1.1
				c-0.4,0.4-0.7,0.9-1,1.5c-0.3,0.5-0.5,1.1-0.7,1.7c-0.2,0.6-0.2,1.2-0.2,1.9c0,0.6,0.1,1.1,0.2,1.6c0.2,0.4,0.4,0.8,0.7,1
				c0.3,0.2,0.6,0.3,1,0.3c0.4,0,0.8-0.1,1.3-0.4c0.4-0.3,0.9-0.6,1.3-1c0.4-0.4,0.7-0.9,1-1.5c0.3-0.5,0.5-1.1,0.7-1.7
				c0.2-0.6,0.2-1.2,0.2-1.9c0-0.6-0.1-1.2-0.2-1.6C184,108.1,183.8,107.7,183.5,107.5z M182.6,112.1c-0.1,0.4-0.2,0.7-0.3,1
				c-0.1,0.3-0.3,0.6-0.5,0.8c-0.2,0.2-0.4,0.4-0.6,0.5c-0.2,0.1-0.4,0.2-0.6,0.2c-0.2,0-0.3-0.1-0.5-0.2c-0.1-0.1-0.2-0.4-0.3-0.6
				c-0.1-0.3-0.1-0.6-0.1-1c0-0.4,0-0.7,0.1-1.1c0.1-0.4,0.2-0.7,0.3-1c0.1-0.3,0.3-0.6,0.5-0.8c0.2-0.2,0.4-0.4,0.6-0.5
				c0.2-0.1,0.4-0.2,0.6-0.2c0.2,0,0.3,0.1,0.5,0.2c0.1,0.1,0.2,0.4,0.3,0.6c0.1,0.3,0.1,0.6,0.1,1
				C182.7,111.4,182.7,111.8,182.6,112.1z M183.5,153.4c-0.3-0.2-0.6-0.3-1-0.3c-0.4,0-0.8,0.1-1.3,0.4c-0.5,0.3-0.9,0.6-1.3,1.1
				c-0.4,0.4-0.7,0.9-1,1.5c-0.3,0.5-0.5,1.1-0.7,1.7c-0.2,0.6-0.2,1.2-0.2,1.9c0,0.6,0.1,1.2,0.2,1.6c0.2,0.4,0.4,0.8,0.7,1
				c0.3,0.2,0.6,0.3,1,0.3c0.4,0,0.8-0.1,1.3-0.4c0.4-0.3,0.9-0.6,1.3-1c0.4-0.4,0.7-0.9,1-1.5c0.3-0.5,0.5-1.1,0.7-1.7
				s0.2-1.2,0.2-1.9c0-0.6-0.1-1.2-0.2-1.6C184,153.9,183.8,153.6,183.5,153.4z M182.6,158c-0.1,0.4-0.2,0.7-0.3,1
				c-0.1,0.3-0.3,0.6-0.5,0.8c-0.2,0.2-0.4,0.4-0.6,0.5c-0.2,0.1-0.4,0.2-0.6,0.2c-0.2,0-0.3-0.1-0.5-0.2c-0.1-0.1-0.2-0.4-0.3-0.6
				c-0.1-0.3-0.1-0.6-0.1-1c0-0.4,0-0.7,0.1-1.1c0.1-0.4,0.2-0.7,0.3-1c0.1-0.3,0.3-0.6,0.5-0.8c0.2-0.2,0.4-0.4,0.6-0.5
				c0.2-0.1,0.4-0.2,0.6-0.2c0.2,0,0.3,0.1,0.5,0.2c0.1,0.1,0.2,0.4,0.3,0.6c0.1,0.3,0.1,0.6,0.1,1
				C182.7,157.3,182.7,157.6,182.6,158z M192.4,121.8c-0.3-0.2-0.6-0.3-1-0.3c-0.4,0-0.8,0.1-1.3,0.4c-0.5,0.3-0.9,0.6-1.3,1.1
				c-0.4,0.4-0.7,0.9-1,1.5c-0.3,0.5-0.5,1.1-0.7,1.7c-0.2,0.6-0.2,1.2-0.2,1.9c0,0.6,0.1,1.1,0.2,1.6c0.2,0.4,0.4,0.8,0.7,1
				c0.3,0.2,0.6,0.3,1,0.3c0.4,0,0.8-0.1,1.3-0.4c0.4-0.3,0.9-0.6,1.3-1c0.4-0.4,0.7-0.9,1-1.5c0.3-0.5,0.5-1.1,0.7-1.7
				c0.2-0.6,0.2-1.2,0.2-1.9c0-0.6-0.1-1.2-0.2-1.6C192.9,122.4,192.6,122,192.4,121.8z M191.5,126.4c-0.1,0.4-0.2,0.7-0.3,1
				c-0.1,0.3-0.3,0.6-0.5,0.8c-0.2,0.2-0.4,0.4-0.6,0.5c-0.2,0.1-0.4,0.2-0.6,0.2c-0.2,0-0.3-0.1-0.5-0.2c-0.1-0.1-0.2-0.4-0.3-0.6
				c-0.1-0.3-0.1-0.6-0.1-1c0-0.4,0-0.7,0.1-1.1c0.1-0.4,0.2-0.7,0.3-1c0.1-0.3,0.3-0.6,0.5-0.8c0.2-0.2,0.4-0.4,0.6-0.5
				c0.2-0.1,0.4-0.2,0.6-0.2c0.2,0,0.3,0.1,0.5,0.2c0.1,0.1,0.2,0.4,0.3,0.6c0.1,0.3,0.1,0.6,0.1,1
				C191.6,125.7,191.6,126.1,191.5,126.4z M171.9,114.3c0,0.1-0.1,0.3-0.3,0.5c-0.2,0.2-0.3,0.5-0.5,0.8c-0.2,0.3-0.4,0.5-0.6,0.8
				c-0.2,0.2-0.4,0.4-0.5,0.5v1.8c0.2-0.1,0.3-0.2,0.5-0.4c0.2-0.2,0.4-0.4,0.6-0.6c0.2-0.2,0.4-0.4,0.5-0.6
				c0.2-0.2,0.3-0.4,0.3-0.5v4.3l-1.7,1v1.7l5-2.9v-1.7l-1.6,0.9v-6.4L171.9,114.3z M174.7,125c-0.3-0.2-0.6-0.3-1-0.3
				c-0.4,0-0.8,0.1-1.3,0.4c-0.5,0.3-0.9,0.6-1.3,1.1c-0.4,0.4-0.7,0.9-1,1.5c-0.3,0.5-0.5,1.1-0.7,1.7c-0.2,0.6-0.2,1.2-0.2,1.9
				c0,0.6,0.1,1.2,0.2,1.6c0.2,0.4,0.4,0.8,0.7,1c0.3,0.2,0.6,0.3,1,0.3c0.4,0,0.8-0.1,1.3-0.4c0.4-0.3,0.9-0.6,1.3-1
				c0.4-0.4,0.7-0.9,1-1.5c0.3-0.5,0.5-1.1,0.7-1.7c0.2-0.6,0.2-1.2,0.2-1.9c0-0.6-0.1-1.2-0.2-1.6C175.2,125.6,175,125.2,174.7,125
				z M173.8,129.6c-0.1,0.4-0.2,0.7-0.3,1c-0.1,0.3-0.3,0.6-0.5,0.8c-0.2,0.2-0.4,0.4-0.6,0.5c-0.2,0.1-0.4,0.2-0.6,0.2
				c-0.2,0-0.3-0.1-0.5-0.2c-0.1-0.1-0.2-0.4-0.3-0.6c-0.1-0.3-0.1-0.6-0.1-1c0-0.4,0-0.7,0.1-1.1c0.1-0.4,0.2-0.7,0.3-1
				c0.1-0.3,0.3-0.6,0.5-0.8c0.2-0.2,0.4-0.4,0.6-0.5c0.2-0.1,0.4-0.2,0.6-0.2c0.2,0,0.3,0.1,0.5,0.2c0.1,0.1,0.2,0.4,0.3,0.6
				c0.1,0.3,0.1,0.6,0.1,1C174,128.9,173.9,129.3,173.8,129.6z M174.7,90.6c-0.3-0.2-0.6-0.3-1-0.3c-0.4,0-0.8,0.1-1.3,0.4
				c-0.5,0.3-0.9,0.6-1.3,1.1c-0.4,0.4-0.7,0.9-1,1.5c-0.3,0.5-0.5,1.1-0.7,1.7c-0.2,0.6-0.2,1.2-0.2,1.9c0,0.6,0.1,1.2,0.2,1.6
				c0.2,0.4,0.4,0.8,0.7,1c0.3,0.2,0.6,0.3,1,0.3c0.4,0,0.8-0.1,1.3-0.4c0.4-0.3,0.9-0.6,1.3-1c0.4-0.4,0.7-0.9,1-1.5
				c0.3-0.5,0.5-1.1,0.7-1.7c0.2-0.6,0.2-1.2,0.2-1.9c0-0.6-0.1-1.2-0.2-1.6C175.2,91.2,175,90.8,174.7,90.6z M173.8,95.2
				c-0.1,0.4-0.2,0.7-0.3,1c-0.1,0.3-0.3,0.6-0.5,0.8c-0.2,0.2-0.4,0.4-0.6,0.5c-0.2,0.1-0.4,0.2-0.6,0.2c-0.2,0-0.3-0.1-0.5-0.2
				c-0.1-0.1-0.2-0.4-0.3-0.6c-0.1-0.3-0.1-0.6-0.1-1c0-0.4,0-0.7,0.1-1.1c0.1-0.4,0.2-0.7,0.3-1c0.1-0.3,0.3-0.6,0.5-0.8
				c0.2-0.2,0.4-0.4,0.6-0.5c0.2-0.1,0.4-0.2,0.6-0.2c0.2,0,0.3,0.1,0.5,0.2c0.1,0.1,0.2,0.4,0.3,0.6c0.1,0.3,0.1,0.6,0.1,1
				C174,94.5,173.9,94.9,173.8,95.2z M174.7,102.1c-0.3-0.2-0.6-0.3-1-0.3c-0.4,0-0.8,0.1-1.3,0.4c-0.5,0.3-0.9,0.6-1.3,1.1
				c-0.4,0.4-0.7,0.9-1,1.5c-0.3,0.5-0.5,1.1-0.7,1.7c-0.2,0.6-0.2,1.2-0.2,1.9c0,0.6,0.1,1.2,0.2,1.6c0.2,0.4,0.4,0.8,0.7,1
				c0.3,0.2,0.6,0.3,1,0.3c0.4,0,0.8-0.1,1.3-0.4c0.4-0.3,0.9-0.6,1.3-1c0.4-0.4,0.7-0.9,1-1.5c0.3-0.5,0.5-1.1,0.7-1.7
				c0.2-0.6,0.2-1.2,0.2-1.9c0-0.6-0.1-1.2-0.2-1.6C175.2,102.6,175,102.3,174.7,102.1z M173.8,106.7c-0.1,0.4-0.2,0.7-0.3,1
				c-0.1,0.3-0.3,0.6-0.5,0.8c-0.2,0.2-0.4,0.4-0.6,0.5c-0.2,0.1-0.4,0.2-0.6,0.2c-0.2,0-0.3-0.1-0.5-0.2c-0.1-0.1-0.2-0.4-0.3-0.6
				c-0.1-0.3-0.1-0.6-0.1-1c0-0.4,0-0.7,0.1-1.1c0.1-0.4,0.2-0.7,0.3-1c0.1-0.3,0.3-0.6,0.5-0.8c0.2-0.2,0.4-0.4,0.6-0.5
				c0.2-0.1,0.4-0.2,0.6-0.2c0.2,0,0.3,0.1,0.5,0.2c0.1,0.1,0.2,0.4,0.3,0.6c0.1,0.3,0.1,0.6,0.1,1C174,106,173.9,106.3,173.8,106.7
				z M192.4,133.3c-0.3-0.2-0.6-0.3-1-0.3c-0.4,0-0.8,0.1-1.3,0.4c-0.5,0.3-0.9,0.6-1.3,1.1c-0.4,0.4-0.7,0.9-1,1.5
				c-0.3,0.5-0.5,1.1-0.7,1.7c-0.2,0.6-0.2,1.2-0.2,1.9c0,0.6,0.1,1.2,0.2,1.6c0.2,0.4,0.4,0.8,0.7,1c0.3,0.2,0.6,0.3,1,0.3
				c0.4,0,0.8-0.1,1.3-0.4c0.4-0.3,0.9-0.6,1.3-1c0.4-0.4,0.7-0.9,1-1.5c0.3-0.5,0.5-1.1,0.7-1.7c0.2-0.6,0.2-1.2,0.2-1.9
				c0-0.6-0.1-1.2-0.2-1.6C192.9,133.8,192.6,133.5,192.4,133.3z M191.5,137.9c-0.1,0.4-0.2,0.7-0.3,1c-0.1,0.3-0.3,0.6-0.5,0.8
				c-0.2,0.2-0.4,0.4-0.6,0.5c-0.2,0.1-0.4,0.2-0.6,0.2c-0.2,0-0.3-0.1-0.5-0.2c-0.1-0.1-0.2-0.4-0.3-0.6c-0.1-0.3-0.1-0.6-0.1-1
				c0-0.4,0-0.7,0.1-1.1c0.1-0.4,0.2-0.7,0.3-1c0.1-0.3,0.3-0.6,0.5-0.8c0.2-0.2,0.4-0.4,0.6-0.5c0.2-0.1,0.4-0.2,0.6-0.2
				c0.2,0,0.3,0.1,0.5,0.2c0.1,0.1,0.2,0.4,0.3,0.6c0.1,0.3,0.1,0.6,0.1,1C191.6,137.2,191.6,137.6,191.5,137.9z M145.1,125.3
				c0,0.1-0.1,0.3-0.3,0.5c-0.2,0.2-0.3,0.5-0.5,0.8c-0.2,0.3-0.4,0.5-0.6,0.8c-0.2,0.2-0.4,0.4-0.5,0.5v1.8
				c0.2-0.1,0.3-0.2,0.5-0.4c0.2-0.2,0.4-0.4,0.6-0.6c0.2-0.2,0.4-0.4,0.5-0.6c0.2-0.2,0.3-0.4,0.3-0.5v4.3l-1.7,1v1.7l5-2.9v-1.7
				l-1.6,0.9v-6.4L145.1,125.3z M147.9,147.5c-0.3-0.2-0.6-0.3-1-0.3c-0.4,0-0.8,0.1-1.3,0.4c-0.5,0.3-0.9,0.6-1.3,1.1
				c-0.4,0.4-0.7,0.9-1,1.5c-0.3,0.5-0.5,1.1-0.7,1.7c-0.2,0.6-0.2,1.2-0.2,1.9c0,0.6,0.1,1.2,0.2,1.6c0.2,0.4,0.4,0.8,0.7,1
				c0.3,0.2,0.6,0.3,1,0.3c0.4,0,0.8-0.1,1.3-0.4c0.4-0.3,0.9-0.6,1.3-1c0.4-0.4,0.7-0.9,1-1.5c0.3-0.5,0.5-1.1,0.7-1.7
				c0.2-0.6,0.2-1.2,0.2-1.9c0-0.6-0.1-1.2-0.2-1.6C148.4,148,148.2,147.7,147.9,147.5z M147,152.1c-0.1,0.4-0.2,0.7-0.3,1
				c-0.1,0.3-0.3,0.6-0.5,0.8c-0.2,0.2-0.4,0.4-0.6,0.5c-0.2,0.1-0.4,0.2-0.6,0.2c-0.2,0-0.3-0.1-0.5-0.2c-0.1-0.1-0.2-0.4-0.3-0.6
				c-0.1-0.3-0.1-0.6-0.1-1c0-0.4,0-0.7,0.1-1.1c0.1-0.4,0.2-0.7,0.3-1c0.1-0.3,0.3-0.6,0.5-0.8c0.2-0.2,0.4-0.4,0.6-0.5
				c0.2-0.1,0.4-0.2,0.6-0.2c0.2,0,0.3,0.1,0.5,0.2c0.1,0.1,0.2,0.4,0.3,0.6c0.1,0.3,0.1,0.6,0.1,1
				C147.1,151.4,147.1,151.8,147,152.1z M201.3,94c-0.3-0.2-0.6-0.3-1-0.3c-0.4,0-0.8,0.1-1.3,0.4c-0.5,0.3-0.9,0.6-1.3,1.1
				c-0.4,0.4-0.7,0.9-1,1.5c-0.3,0.5-0.5,1.1-0.7,1.7c-0.2,0.6-0.2,1.2-0.2,1.9c0,0.6,0.1,1.2,0.2,1.6c0.2,0.4,0.4,0.8,0.7,1
				c0.3,0.2,0.6,0.3,1,0.3c0.4,0,0.8-0.1,1.3-0.4c0.4-0.3,0.9-0.6,1.3-1c0.4-0.4,0.7-0.9,1-1.5c0.3-0.5,0.5-1.1,0.7-1.7
				c0.2-0.6,0.2-1.2,0.2-1.9c0-0.6-0.1-1.2-0.2-1.6C201.8,94.6,201.6,94.3,201.3,94z M200.4,98.7c-0.1,0.4-0.2,0.7-0.3,1
				c-0.1,0.3-0.3,0.6-0.5,0.8c-0.2,0.2-0.4,0.4-0.6,0.5c-0.2,0.1-0.4,0.2-0.6,0.2c-0.2,0-0.3-0.1-0.5-0.2c-0.1-0.1-0.2-0.4-0.3-0.6
				c-0.1-0.3-0.1-0.6-0.1-1c0-0.4,0-0.7,0.1-1.1c0.1-0.4,0.2-0.7,0.3-1c0.1-0.3,0.3-0.6,0.5-0.8c0.2-0.2,0.4-0.4,0.6-0.5
				c0.2-0.1,0.4-0.2,0.6-0.2c0.2,0,0.3,0.1,0.5,0.2c0.1,0.1,0.2,0.4,0.3,0.6c0.1,0.3,0.1,0.6,0.1,1
				C200.5,97.9,200.5,98.3,200.4,98.7z M209.2,153.5c-0.3-0.2-0.6-0.3-1-0.3c-0.4,0-0.8,0.1-1.3,0.4c-0.5,0.3-0.9,0.6-1.3,1.1
				c-0.4,0.4-0.7,0.9-1,1.5c-0.3,0.5-0.5,1.1-0.7,1.7c-0.2,0.6-0.2,1.2-0.2,1.9c0,0.6,0.1,1.2,0.2,1.6c0.2,0.4,0.4,0.8,0.7,1
				c0.3,0.2,0.6,0.3,1,0.3c0.4,0,0.8-0.1,1.3-0.4c0.4-0.3,0.9-0.6,1.3-1c0.4-0.4,0.7-0.9,1-1.5c0.3-0.5,0.5-1.1,0.7-1.7
				c0.2-0.6,0.2-1.2,0.2-1.9c0-0.6-0.1-1.2-0.2-1.6C209.7,154.1,209.4,153.8,209.2,153.5z M208.3,158.2c-0.1,0.4-0.2,0.7-0.3,1
				c-0.1,0.3-0.3,0.6-0.5,0.8c-0.2,0.2-0.4,0.4-0.6,0.5c-0.2,0.1-0.4,0.2-0.6,0.2c-0.2,0-0.3-0.1-0.5-0.2c-0.1-0.1-0.2-0.4-0.3-0.6
				c-0.1-0.3-0.1-0.6-0.1-1c0-0.4,0-0.7,0.1-1.1c0.1-0.4,0.2-0.7,0.3-1c0.1-0.3,0.3-0.6,0.5-0.8c0.2-0.2,0.4-0.4,0.6-0.5
				c0.2-0.1,0.4-0.2,0.6-0.2c0.2,0,0.3,0.1,0.5,0.2c0.1,0.1,0.2,0.4,0.3,0.6c0.1,0.3,0.1,0.6,0.1,1
				C208.4,157.4,208.4,157.8,208.3,158.2z M147.9,136c-0.3-0.2-0.6-0.3-1-0.3c-0.4,0-0.8,0.1-1.3,0.4c-0.5,0.3-0.9,0.6-1.3,1.1
				c-0.4,0.4-0.7,0.9-1,1.5c-0.3,0.5-0.5,1.1-0.7,1.7c-0.2,0.6-0.2,1.2-0.2,1.9c0,0.6,0.1,1.1,0.2,1.6c0.2,0.4,0.4,0.8,0.7,1
				c0.3,0.2,0.6,0.3,1,0.3c0.4,0,0.8-0.1,1.3-0.4c0.4-0.3,0.9-0.6,1.3-1c0.4-0.4,0.7-0.9,1-1.5c0.3-0.5,0.5-1.1,0.7-1.7
				c0.2-0.6,0.2-1.2,0.2-1.9c0-0.6-0.1-1.2-0.2-1.6C148.4,136.6,148.2,136.2,147.9,136z M147,140.6c-0.1,0.4-0.2,0.7-0.3,1
				c-0.1,0.3-0.3,0.6-0.5,0.8c-0.2,0.2-0.4,0.4-0.6,0.5c-0.2,0.1-0.4,0.2-0.6,0.2c-0.2,0-0.3-0.1-0.5-0.2c-0.1-0.1-0.2-0.4-0.3-0.6
				c-0.1-0.3-0.1-0.6-0.1-1c0-0.4,0-0.7,0.1-1.1c0.1-0.4,0.2-0.7,0.3-1c0.1-0.3,0.3-0.6,0.5-0.8c0.2-0.2,0.4-0.4,0.6-0.5
				c0.2-0.1,0.4-0.2,0.6-0.2c0.2,0,0.3,0.1,0.5,0.2c0.1,0.1,0.2,0.4,0.3,0.6c0.1,0.3,0.1,0.6,0.1,1
				C147.1,139.9,147.1,140.3,147,140.6z M147.9,159c-0.3-0.2-0.6-0.3-1-0.3c-0.4,0-0.8,0.1-1.3,0.4c-0.5,0.3-0.9,0.6-1.3,1.1
				c-0.4,0.4-0.7,0.9-1,1.5c-0.3,0.5-0.5,1.1-0.7,1.7c-0.2,0.6-0.2,1.2-0.2,1.9c0,0.6,0.1,1.2,0.2,1.6c0.2,0.4,0.4,0.8,0.7,1
				c0.3,0.2,0.6,0.3,1,0.3c0.4,0,0.8-0.1,1.3-0.4c0.4-0.3,0.9-0.6,1.3-1c0.4-0.4,0.7-0.9,1-1.5c0.3-0.5,0.5-1.1,0.7-1.7
				c0.2-0.6,0.2-1.2,0.2-1.9c0-0.6-0.1-1.2-0.2-1.6C148.4,159.5,148.2,159.2,147.9,159z M147,163.6c-0.1,0.4-0.2,0.7-0.3,1
				c-0.1,0.3-0.3,0.6-0.5,0.8c-0.2,0.2-0.4,0.4-0.6,0.5c-0.2,0.1-0.4,0.2-0.6,0.2c-0.2,0-0.3-0.1-0.5-0.2c-0.1-0.1-0.2-0.4-0.3-0.6
				c-0.1-0.3-0.1-0.6-0.1-1c0-0.4,0-0.7,0.1-1.1c0.1-0.4,0.2-0.7,0.3-1c0.1-0.3,0.3-0.6,0.5-0.8c0.2-0.2,0.4-0.4,0.6-0.5
				c0.2-0.1,0.4-0.2,0.6-0.2c0.2,0,0.3,0.1,0.5,0.2c0.1,0.1,0.2,0.4,0.3,0.6c0.1,0.3,0.1,0.6,0.1,1
				C147.1,162.9,147.1,163.2,147,163.6z M156.8,108.2c-0.3-0.2-0.6-0.3-1-0.3c-0.4,0-0.8,0.1-1.3,0.4c-0.5,0.3-0.9,0.6-1.3,1.1
				c-0.4,0.4-0.7,0.9-1,1.5c-0.3,0.5-0.5,1.1-0.7,1.7c-0.2,0.6-0.2,1.2-0.2,1.9c0,0.6,0.1,1.1,0.2,1.6c0.2,0.4,0.4,0.8,0.7,1
				c0.3,0.2,0.6,0.3,1,0.3c0.4,0,0.8-0.1,1.3-0.4c0.4-0.3,0.9-0.6,1.3-1c0.4-0.4,0.7-0.9,1-1.5c0.3-0.5,0.5-1.1,0.7-1.7
				c0.2-0.6,0.2-1.2,0.2-1.9c0-0.6-0.1-1.2-0.2-1.6C157.3,108.8,157.1,108.5,156.8,108.2z M156,112.9c-0.1,0.4-0.2,0.7-0.3,1
				c-0.1,0.3-0.3,0.6-0.5,0.8c-0.2,0.2-0.4,0.4-0.6,0.5c-0.2,0.1-0.4,0.2-0.6,0.2c-0.2,0-0.3-0.1-0.5-0.2c-0.1-0.1-0.2-0.4-0.3-0.6
				c-0.1-0.3-0.1-0.6-0.1-1c0-0.4,0-0.7,0.1-1.1c0.1-0.4,0.2-0.7,0.3-1c0.1-0.3,0.3-0.6,0.5-0.8c0.2-0.2,0.4-0.4,0.6-0.5
				c0.2-0.1,0.4-0.2,0.6-0.2c0.2,0,0.3,0.1,0.5,0.2c0.1,0.1,0.2,0.4,0.3,0.6c0.1,0.3,0.1,0.6,0.1,1C156.1,112.1,156,112.5,156,112.9
				z M139,156.1c-0.3-0.2-0.6-0.3-1-0.3c-0.4,0-0.8,0.1-1.3,0.4c-0.5,0.3-0.9,0.6-1.3,1.1c-0.4,0.4-0.7,0.9-1,1.5
				c-0.3,0.5-0.5,1.1-0.7,1.7c-0.2,0.6-0.2,1.2-0.2,1.9c0,0.6,0.1,1.2,0.2,1.6c0.2,0.4,0.4,0.8,0.7,1c0.3,0.2,0.6,0.3,1,0.3
				c0.4,0,0.8-0.1,1.3-0.4c0.4-0.3,0.9-0.6,1.3-1c0.4-0.4,0.7-0.9,1-1.5c0.3-0.5,0.5-1.1,0.7-1.7c0.2-0.6,0.2-1.2,0.2-1.9
				c0-0.6-0.1-1.2-0.2-1.6C139.5,156.7,139.3,156.3,139,156.1z M138.2,160.7c-0.1,0.4-0.2,0.7-0.3,1c-0.1,0.3-0.3,0.6-0.5,0.8
				c-0.2,0.2-0.4,0.4-0.6,0.5c-0.2,0.1-0.4,0.2-0.6,0.2c-0.2,0-0.3-0.1-0.5-0.2c-0.1-0.1-0.2-0.4-0.3-0.6c-0.1-0.3-0.1-0.6-0.1-1
				c0-0.4,0-0.7,0.1-1.1c0.1-0.4,0.2-0.7,0.3-1c0.1-0.3,0.3-0.6,0.5-0.8c0.2-0.2,0.4-0.4,0.6-0.5c0.2-0.1,0.4-0.2,0.6-0.2
				c0.2,0,0.3,0.1,0.5,0.2c0.1,0.1,0.2,0.4,0.3,0.6c0.1,0.3,0.1,0.6,0.1,1C138.3,160,138.2,160.4,138.2,160.7z M136.3,145.4
				c0,0.1-0.1,0.3-0.3,0.5c-0.2,0.2-0.3,0.5-0.5,0.8c-0.2,0.3-0.4,0.5-0.6,0.8c-0.2,0.2-0.4,0.4-0.5,0.5v1.8
				c0.2-0.1,0.3-0.2,0.5-0.4c0.2-0.2,0.4-0.4,0.6-0.6c0.2-0.2,0.4-0.4,0.5-0.6c0.2-0.2,0.3-0.4,0.3-0.5v4.3l-1.7,1v1.7l5-2.9v-1.7
				l-1.6,0.9v-6.4L136.3,145.4z M139,121.7c-0.3-0.2-0.6-0.3-1-0.3c-0.4,0-0.8,0.1-1.3,0.4c-0.5,0.3-0.9,0.6-1.3,1.1
				c-0.4,0.4-0.7,0.9-1,1.5c-0.3,0.5-0.5,1.1-0.7,1.7c-0.2,0.6-0.2,1.2-0.2,1.9c0,0.6,0.1,1.2,0.2,1.6c0.2,0.4,0.4,0.8,0.7,1
				c0.3,0.2,0.6,0.3,1,0.3c0.4,0,0.8-0.1,1.3-0.4c0.4-0.3,0.9-0.6,1.3-1c0.4-0.4,0.7-0.9,1-1.5c0.3-0.5,0.5-1.1,0.7-1.7
				c0.2-0.6,0.2-1.2,0.2-1.9c0-0.6-0.1-1.2-0.2-1.6C139.5,122.3,139.3,121.9,139,121.7z M138.2,126.3c-0.1,0.4-0.2,0.7-0.3,1
				c-0.1,0.3-0.3,0.6-0.5,0.8c-0.2,0.2-0.4,0.4-0.6,0.5c-0.2,0.1-0.4,0.2-0.6,0.2c-0.2,0-0.3-0.1-0.5-0.2c-0.1-0.1-0.2-0.4-0.3-0.6
				c-0.1-0.3-0.1-0.6-0.1-1c0-0.4,0-0.7,0.1-1.1c0.1-0.4,0.2-0.7,0.3-1c0.1-0.3,0.3-0.6,0.5-0.8c0.2-0.2,0.4-0.4,0.6-0.5
				c0.2-0.1,0.4-0.2,0.6-0.2c0.2,0,0.3,0.1,0.5,0.2c0.1,0.1,0.2,0.4,0.3,0.6c0.1,0.3,0.1,0.6,0.1,1
				C138.3,125.6,138.2,126,138.2,126.3z M198.5,106.2c0,0.1-0.1,0.3-0.3,0.5c-0.2,0.2-0.3,0.5-0.5,0.8c-0.2,0.3-0.4,0.5-0.6,0.7
				c-0.2,0.2-0.4,0.4-0.5,0.5v1.8c0.2-0.1,0.3-0.2,0.5-0.4c0.2-0.2,0.4-0.4,0.6-0.6c0.2-0.2,0.4-0.4,0.5-0.6
				c0.2-0.2,0.3-0.4,0.3-0.5v4.3l-1.7,1v1.7l5-2.9v-1.7l-1.6,0.9v-6.4L198.5,106.2z M201.3,82.6c-0.3-0.2-0.6-0.3-1-0.3
				c-0.4,0-0.8,0.1-1.3,0.4c-0.5,0.3-0.9,0.6-1.3,1.1c-0.4,0.4-0.7,0.9-1,1.5c-0.3,0.5-0.5,1.1-0.7,1.7c-0.2,0.6-0.2,1.2-0.2,1.9
				c0,0.6,0.1,1.2,0.2,1.6c0.2,0.4,0.4,0.8,0.7,1c0.3,0.2,0.6,0.3,1,0.3c0.4,0,0.8-0.1,1.3-0.4c0.4-0.3,0.9-0.6,1.3-1
				c0.4-0.4,0.7-0.9,1-1.5c0.3-0.5,0.5-1.1,0.7-1.7c0.2-0.6,0.2-1.2,0.2-1.9c0-0.6-0.1-1.2-0.2-1.6
				C201.8,83.1,201.6,82.8,201.3,82.6z M200.4,87.2c-0.1,0.4-0.2,0.7-0.3,1c-0.1,0.3-0.3,0.6-0.5,0.8c-0.2,0.2-0.4,0.4-0.6,0.5
				c-0.2,0.1-0.4,0.2-0.6,0.2c-0.2,0-0.3-0.1-0.5-0.2c-0.1-0.1-0.2-0.4-0.3-0.6c-0.1-0.3-0.1-0.6-0.1-1c0-0.4,0-0.7,0.1-1.1
				c0.1-0.4,0.2-0.7,0.3-1c0.1-0.3,0.3-0.6,0.5-0.8c0.2-0.2,0.4-0.4,0.6-0.5c0.2-0.1,0.4-0.2,0.6-0.2c0.2,0,0.3,0.1,0.5,0.2
				c0.1,0.1,0.2,0.4,0.3,0.6c0.1,0.3,0.1,0.6,0.1,1C200.5,86.5,200.5,86.8,200.4,87.2z M139,133.2c-0.3-0.2-0.6-0.3-1-0.3
				c-0.4,0-0.8,0.1-1.3,0.4c-0.5,0.3-0.9,0.6-1.3,1.1c-0.4,0.4-0.7,0.9-1,1.5c-0.3,0.5-0.5,1.1-0.7,1.7c-0.2,0.6-0.2,1.2-0.2,1.9
				c0,0.6,0.1,1.1,0.2,1.6c0.2,0.4,0.4,0.8,0.7,1c0.3,0.2,0.6,0.3,1,0.3c0.4,0,0.8-0.1,1.3-0.4c0.4-0.3,0.9-0.6,1.3-1
				c0.4-0.4,0.7-0.9,1-1.5c0.3-0.5,0.5-1.1,0.7-1.7c0.2-0.6,0.2-1.2,0.2-1.9c0-0.6-0.1-1.2-0.2-1.6
				C139.5,133.7,139.3,133.4,139,133.2z M138.2,137.8c-0.1,0.4-0.2,0.7-0.3,1c-0.1,0.3-0.3,0.6-0.5,0.8c-0.2,0.2-0.4,0.4-0.6,0.5
				c-0.2,0.1-0.4,0.2-0.6,0.2c-0.2,0-0.3-0.1-0.5-0.2c-0.1-0.1-0.2-0.4-0.3-0.6c-0.1-0.3-0.1-0.6-0.1-1c0-0.4,0-0.7,0.1-1.1
				c0.1-0.4,0.2-0.7,0.3-1c0.1-0.3,0.3-0.6,0.5-0.8c0.2-0.2,0.4-0.4,0.6-0.5c0.2-0.1,0.4-0.2,0.6-0.2c0.2,0,0.3,0.1,0.5,0.2
				c0.1,0.1,0.2,0.4,0.3,0.6c0.1,0.3,0.1,0.6,0.1,1C138.3,137.1,138.2,137.4,138.2,137.8z M154.1,131.9c0,0.1-0.1,0.3-0.3,0.5
				c-0.2,0.2-0.3,0.5-0.5,0.8c-0.2,0.3-0.4,0.5-0.6,0.7c-0.2,0.2-0.4,0.4-0.5,0.5v1.8c0.2-0.1,0.3-0.2,0.5-0.4
				c0.2-0.2,0.4-0.4,0.6-0.6c0.2-0.2,0.4-0.4,0.5-0.6c0.2-0.2,0.3-0.4,0.3-0.5v4.3l-1.7,1v1.7l5-2.9v-1.7l-1.6,0.9v-6.4L154.1,131.9
				z M156.8,154.1c-0.3-0.2-0.6-0.3-1-0.3c-0.4,0-0.8,0.1-1.3,0.4c-0.5,0.3-0.9,0.6-1.3,1.1c-0.4,0.4-0.7,0.9-1,1.5
				c-0.3,0.5-0.5,1.1-0.7,1.7c-0.2,0.6-0.2,1.2-0.2,1.9c0,0.6,0.1,1.2,0.2,1.6c0.2,0.4,0.4,0.8,0.7,1c0.3,0.2,0.6,0.3,1,0.3
				c0.4,0,0.8-0.1,1.3-0.4c0.4-0.3,0.9-0.6,1.3-1c0.4-0.4,0.7-0.9,1-1.5c0.3-0.5,0.5-1.1,0.7-1.7c0.2-0.6,0.2-1.2,0.2-1.9
				c0-0.6-0.1-1.2-0.2-1.6C157.3,154.7,157.1,154.3,156.8,154.1z M156,158.7c-0.1,0.4-0.2,0.7-0.3,1c-0.1,0.3-0.3,0.6-0.5,0.8
				c-0.2,0.2-0.4,0.4-0.6,0.5c-0.2,0.1-0.4,0.2-0.6,0.2c-0.2,0-0.3-0.1-0.5-0.2c-0.1-0.1-0.2-0.4-0.3-0.6c-0.1-0.3-0.1-0.6-0.1-1
				c0-0.4,0-0.7,0.1-1.1c0.1-0.4,0.2-0.7,0.3-1c0.1-0.3,0.3-0.6,0.5-0.8c0.2-0.2,0.4-0.4,0.6-0.5c0.2-0.1,0.4-0.2,0.6-0.2
				c0.2,0,0.3,0.1,0.5,0.2c0.1,0.1,0.2,0.4,0.3,0.6c0.1,0.3,0.1,0.6,0.1,1C156.1,158,156,158.4,156,158.7z M156.8,142.6
				c-0.3-0.2-0.6-0.3-1-0.3c-0.4,0-0.8,0.1-1.3,0.4c-0.5,0.3-0.9,0.6-1.3,1.1c-0.4,0.4-0.7,0.9-1,1.5c-0.3,0.5-0.5,1.1-0.7,1.7
				c-0.2,0.6-0.2,1.2-0.2,1.9c0,0.6,0.1,1.1,0.2,1.6c0.2,0.4,0.4,0.8,0.7,1c0.3,0.2,0.6,0.3,1,0.3c0.4,0,0.8-0.1,1.3-0.4
				c0.4-0.3,0.9-0.6,1.3-1c0.4-0.4,0.7-0.9,1-1.5c0.3-0.5,0.5-1.1,0.7-1.7c0.2-0.6,0.2-1.2,0.2-1.9c0-0.6-0.1-1.2-0.2-1.6
				C157.3,143.2,157.1,142.9,156.8,142.6z M156,147.3c-0.1,0.4-0.2,0.7-0.3,1c-0.1,0.3-0.3,0.6-0.5,0.8c-0.2,0.2-0.4,0.4-0.6,0.5
				c-0.2,0.1-0.4,0.2-0.6,0.2c-0.2,0-0.3-0.1-0.5-0.2c-0.1-0.1-0.2-0.4-0.3-0.6c-0.1-0.3-0.1-0.6-0.1-1c0-0.4,0-0.7,0.1-1.1
				c0.1-0.4,0.2-0.7,0.3-1c0.1-0.3,0.3-0.6,0.5-0.8c0.2-0.2,0.4-0.4,0.6-0.5c0.2-0.1,0.4-0.2,0.6-0.2c0.2,0,0.3,0.1,0.5,0.2
				c0.1,0.1,0.2,0.4,0.3,0.6c0.1,0.3,0.1,0.6,0.1,1C156.1,146.5,156,146.9,156,147.3z M147.9,113.1c-0.3-0.2-0.6-0.3-1-0.3
				c-0.4,0-0.8,0.1-1.3,0.4c-0.5,0.3-0.9,0.6-1.3,1.1c-0.4,0.4-0.7,0.9-1,1.5c-0.3,0.5-0.5,1.1-0.7,1.7c-0.2,0.6-0.2,1.2-0.2,1.9
				c0,0.6,0.1,1.2,0.2,1.6c0.2,0.4,0.4,0.8,0.7,1c0.3,0.2,0.6,0.3,1,0.3c0.4,0,0.8-0.1,1.3-0.4c0.4-0.3,0.9-0.6,1.3-1
				c0.4-0.4,0.7-0.9,1-1.5c0.3-0.5,0.5-1.1,0.7-1.7c0.2-0.6,0.2-1.2,0.2-1.9c0-0.6-0.1-1.2-0.2-1.6
				C148.4,113.6,148.2,113.3,147.9,113.1z M147,117.7c-0.1,0.4-0.2,0.7-0.3,1c-0.1,0.3-0.3,0.6-0.5,0.8c-0.2,0.2-0.4,0.4-0.6,0.5
				c-0.2,0.1-0.4,0.2-0.6,0.2c-0.2,0-0.3-0.1-0.5-0.2c-0.1-0.1-0.2-0.4-0.3-0.6c-0.1-0.3-0.1-0.6-0.1-1c0-0.4,0-0.7,0.1-1.1
				c0.1-0.4,0.2-0.7,0.3-1c0.1-0.3,0.3-0.6,0.5-0.8c0.2-0.2,0.4-0.4,0.6-0.5c0.2-0.1,0.4-0.2,0.6-0.2c0.2,0,0.3,0.1,0.5,0.2
				c0.1,0.1,0.2,0.4,0.3,0.6c0.1,0.3,0.1,0.6,0.1,1C147.1,117,147.1,117.4,147,117.7z M156.8,119.7c-0.3-0.2-0.6-0.3-1-0.3
				c-0.4,0-0.8,0.1-1.3,0.4c-0.5,0.3-0.9,0.6-1.3,1.1c-0.4,0.4-0.7,0.9-1,1.5c-0.3,0.5-0.5,1.1-0.7,1.7c-0.2,0.6-0.2,1.2-0.2,1.9
				c0,0.6,0.1,1.2,0.2,1.6c0.2,0.4,0.4,0.8,0.7,1c0.3,0.2,0.6,0.3,1,0.3c0.4,0,0.8-0.1,1.3-0.4c0.4-0.3,0.9-0.6,1.3-1
				c0.4-0.4,0.7-0.9,1-1.5c0.3-0.5,0.5-1.1,0.7-1.7c0.2-0.6,0.2-1.2,0.2-1.9c0-0.6-0.1-1.2-0.2-1.6
				C157.3,120.3,157.1,119.9,156.8,119.7z M156,124.3c-0.1,0.4-0.2,0.7-0.3,1c-0.1,0.3-0.3,0.6-0.5,0.8c-0.2,0.2-0.4,0.4-0.6,0.5
				c-0.2,0.1-0.4,0.2-0.6,0.2c-0.2,0-0.3-0.1-0.5-0.2c-0.1-0.1-0.2-0.4-0.3-0.6c-0.1-0.3-0.1-0.6-0.1-1c0-0.4,0-0.7,0.1-1.1
				c0.1-0.4,0.2-0.7,0.3-1c0.1-0.3,0.3-0.6,0.5-0.8c0.2-0.2,0.4-0.4,0.6-0.5c0.2-0.1,0.4-0.2,0.6-0.2c0.2,0,0.3,0.1,0.5,0.2
				c0.1,0.1,0.2,0.4,0.3,0.6c0.1,0.3,0.1,0.6,0.1,1C156.1,123.6,156,124,156,124.3z M201.3,139.9c-0.3-0.2-0.6-0.3-1-0.3
				c-0.4,0-0.8,0.1-1.3,0.4c-0.5,0.3-0.9,0.6-1.3,1.1c-0.4,0.4-0.7,0.9-1,1.5c-0.3,0.5-0.5,1.1-0.7,1.7c-0.2,0.6-0.2,1.2-0.2,1.9
				c0,0.6,0.1,1.2,0.2,1.6c0.2,0.4,0.4,0.8,0.7,1c0.3,0.2,0.6,0.3,1,0.3c0.4,0,0.8-0.1,1.3-0.4c0.4-0.3,0.9-0.6,1.3-1
				c0.4-0.4,0.7-0.9,1-1.5c0.3-0.5,0.5-1.1,0.7-1.7c0.2-0.6,0.2-1.2,0.2-1.9c0-0.6-0.1-1.2-0.2-1.6
				C201.8,140.5,201.6,140.1,201.3,139.9z M200.4,144.5c-0.1,0.4-0.2,0.7-0.3,1c-0.1,0.3-0.3,0.6-0.5,0.8c-0.2,0.2-0.4,0.4-0.6,0.5
				c-0.2,0.1-0.4,0.2-0.6,0.2c-0.2,0-0.3-0.1-0.5-0.2c-0.1-0.1-0.2-0.4-0.3-0.6c-0.1-0.3-0.1-0.6-0.1-1c0-0.4,0-0.7,0.1-1.1
				c0.1-0.4,0.2-0.7,0.3-1c0.1-0.3,0.3-0.6,0.5-0.8c0.2-0.2,0.4-0.4,0.6-0.5c0.2-0.1,0.4-0.2,0.6-0.2c0.2,0,0.3,0.1,0.5,0.2
				c0.1,0.1,0.2,0.4,0.3,0.6c0.1,0.3,0.1,0.6,0.1,1C200.5,143.8,200.5,144.2,200.4,144.5z M201.3,117c-0.3-0.2-0.6-0.3-1-0.3
				c-0.4,0-0.8,0.1-1.3,0.4c-0.5,0.3-0.9,0.6-1.3,1.1c-0.4,0.4-0.7,0.9-1,1.5c-0.3,0.5-0.5,1.1-0.7,1.7c-0.2,0.6-0.2,1.2-0.2,1.9
				c0,0.6,0.1,1.1,0.2,1.6c0.2,0.4,0.4,0.8,0.7,1c0.3,0.2,0.6,0.3,1,0.3c0.4,0,0.8-0.1,1.3-0.4c0.4-0.3,0.9-0.6,1.3-1
				c0.4-0.4,0.7-0.9,1-1.5c0.3-0.5,0.5-1.1,0.7-1.7c0.2-0.6,0.2-1.2,0.2-1.9c0-0.6-0.1-1.2-0.2-1.6
				C201.8,117.5,201.6,117.2,201.3,117z M200.4,121.6c-0.1,0.4-0.2,0.7-0.3,1c-0.1,0.3-0.3,0.6-0.5,0.8c-0.2,0.2-0.4,0.4-0.6,0.5
				c-0.2,0.1-0.4,0.2-0.6,0.2c-0.2,0-0.3-0.1-0.5-0.2c-0.1-0.1-0.2-0.4-0.3-0.6c-0.1-0.3-0.1-0.6-0.1-1c0-0.4,0-0.7,0.1-1.1
				c0.1-0.4,0.2-0.7,0.3-1c0.1-0.3,0.3-0.6,0.5-0.8c0.2-0.2,0.4-0.4,0.6-0.5c0.2-0.1,0.4-0.2,0.6-0.2c0.2,0,0.3,0.1,0.5,0.2
				c0.1,0.1,0.2,0.4,0.3,0.6c0.1,0.3,0.1,0.6,0.1,1C200.5,120.9,200.5,121.2,200.4,121.6z M147.9,101.6c-0.3-0.2-0.6-0.3-1-0.3
				c-0.4,0-0.8,0.1-1.3,0.4c-0.5,0.3-0.9,0.6-1.3,1.1c-0.4,0.4-0.7,0.9-1,1.5c-0.3,0.5-0.5,1.1-0.7,1.7c-0.2,0.6-0.2,1.2-0.2,1.9
				c0,0.6,0.1,1.2,0.2,1.6c0.2,0.4,0.4,0.8,0.7,1c0.3,0.2,0.6,0.3,1,0.3c0.4,0,0.8-0.1,1.3-0.4c0.4-0.3,0.9-0.6,1.3-1
				c0.4-0.4,0.7-0.9,1-1.5c0.3-0.5,0.5-1.1,0.7-1.7c0.2-0.6,0.2-1.2,0.2-1.9c0-0.6-0.1-1.2-0.2-1.6
				C148.4,102.2,148.2,101.8,147.9,101.6z M147,106.2c-0.1,0.4-0.2,0.7-0.3,1c-0.1,0.3-0.3,0.6-0.5,0.8c-0.2,0.2-0.4,0.4-0.6,0.5
				c-0.2,0.1-0.4,0.2-0.6,0.2c-0.2,0-0.3-0.1-0.5-0.2c-0.1-0.1-0.2-0.4-0.3-0.6c-0.1-0.3-0.1-0.6-0.1-1c0-0.4,0-0.7,0.1-1.1
				c0.1-0.4,0.2-0.7,0.3-1c0.1-0.3,0.3-0.6,0.5-0.8c0.2-0.2,0.4-0.4,0.6-0.5c0.2-0.1,0.4-0.2,0.6-0.2c0.2,0,0.3,0.1,0.5,0.2
				c0.1,0.1,0.2,0.4,0.3,0.6c0.1,0.3,0.1,0.6,0.1,1C147.1,105.5,147.1,105.9,147,106.2z M201.3,128.4c-0.3-0.2-0.6-0.3-1-0.3
				c-0.4,0-0.8,0.1-1.3,0.4c-0.5,0.3-0.9,0.6-1.3,1.1c-0.4,0.4-0.7,0.9-1,1.5c-0.3,0.5-0.5,1.1-0.7,1.7c-0.2,0.6-0.2,1.2-0.2,1.9
				c0,0.6,0.1,1.2,0.2,1.6c0.2,0.4,0.4,0.8,0.7,1c0.3,0.2,0.6,0.3,1,0.3c0.4,0,0.8-0.1,1.3-0.4c0.4-0.3,0.9-0.6,1.3-1
				c0.4-0.4,0.7-0.9,1-1.5c0.3-0.5,0.5-1.1,0.7-1.7c0.2-0.6,0.2-1.2,0.2-1.9c0-0.6-0.1-1.2-0.2-1.6
				C201.8,129,201.6,128.7,201.3,128.4z M200.4,133.1c-0.1,0.4-0.2,0.7-0.3,1c-0.1,0.3-0.3,0.6-0.5,0.8c-0.2,0.2-0.4,0.4-0.6,0.5
				c-0.2,0.1-0.4,0.2-0.6,0.2c-0.2,0-0.3-0.1-0.5-0.2c-0.1-0.1-0.2-0.4-0.3-0.6c-0.1-0.3-0.1-0.6-0.1-1c0-0.4,0-0.7,0.1-1.1
				c0.1-0.4,0.2-0.7,0.3-1c0.1-0.3,0.3-0.6,0.5-0.8c0.2-0.2,0.4-0.4,0.6-0.5c0.2-0.1,0.4-0.2,0.6-0.2c0.2,0,0.3,0.1,0.5,0.2
				c0.1,0.1,0.2,0.4,0.3,0.6c0.1,0.3,0.1,0.6,0.1,1C200.5,132.3,200.5,132.7,200.4,133.1z M156.8,165.6c-0.3-0.2-0.6-0.3-1-0.3
				c-0.4,0-0.8,0.1-1.3,0.4c-0.5,0.3-0.9,0.6-1.3,1.1c-0.4,0.4-0.7,0.9-1,1.5c-0.3,0.5-0.5,1.1-0.7,1.7c-0.2,0.6-0.2,1.2-0.2,1.9
				c0,0.6,0.1,1.2,0.2,1.6c0.2,0.4,0.4,0.8,0.7,1c0.3,0.2,0.6,0.3,1,0.3c0.4,0,0.8-0.1,1.3-0.4c0.4-0.3,0.9-0.6,1.3-1
				c0.4-0.4,0.7-0.9,1-1.5c0.3-0.5,0.5-1.1,0.7-1.7c0.2-0.6,0.2-1.2,0.2-1.9c0-0.6-0.1-1.2-0.2-1.6
				C157.3,166.1,157.1,165.8,156.8,165.6z M156,170.2c-0.1,0.4-0.2,0.7-0.3,1c-0.1,0.3-0.3,0.6-0.5,0.8c-0.2,0.2-0.4,0.4-0.6,0.5
				c-0.2,0.1-0.4,0.2-0.6,0.2c-0.2,0-0.3-0.1-0.5-0.2c-0.1-0.1-0.2-0.4-0.3-0.6c-0.1-0.3-0.1-0.6-0.1-1c0-0.4,0-0.7,0.1-1.1
				c0.1-0.4,0.2-0.7,0.3-1c0.1-0.3,0.3-0.6,0.5-0.8c0.2-0.2,0.4-0.4,0.6-0.5c0.2-0.1,0.4-0.2,0.6-0.2c0.2,0,0.3,0.1,0.5,0.2
				c0.1,0.1,0.2,0.4,0.3,0.6c0.1,0.3,0.1,0.6,0.1,1C156.1,169.5,156,169.8,156,170.2z"/>
		</g>
	</g>
</g>
<g id="DESIGNED_BY_FREEPIK">
</g>
</svg>
