<?xml version="1.0" encoding="utf-8"?>
<!-- Generator: Adobe Illustrator 18.0.0, SVG Export Plug-In . SVG Version: 6.00 Build 0)  -->
<!DOCTYPE svg PUBLIC "-//W3C//DTD SVG 1.1//EN" "http://www.w3.org/Graphics/SVG/1.1/DTD/svg11.dtd">
<svg version="1.1" xmlns="http://www.w3.org/2000/svg" xmlns:xlink="http://www.w3.org/1999/xlink" x="0px" y="0px"
	 viewBox="0 0 90 90" enable-background="new 0 0 90 90" xml:space="preserve">
<g id="Background">
</g>
<g id="Design">
	<g>
		<circle opacity="1" fill="#d4e2ff" cx="45.5" cy="44.7" r="41.9" />
		<path fill-rule="evenodd" clip-rule="evenodd" fill="#3C5A99" d="M39.1,44.9v24.6c0,0.4,0.3,0.6,0.6,0.6h9.1
			c0.4,0,0.6-0.3,0.6-0.6v-25h6.6c0.3,0,0.6-0.3,0.6-0.6l0.6-7.5c0-0.4-0.3-0.7-0.6-0.7h-7.2v-5.3c0-1.3,1-2.3,2.3-2.3h5.1
			c0.4,0,0.6-0.3,0.6-0.6V20c0-0.4-0.3-0.6-0.6-0.6h-8.6c-5.1,0-9.2,4.1-9.2,9.2v7.3h-4.6c-0.4,0-0.6,0.3-0.6,0.6v7.5
			c0,0.4,0.3,0.6,0.6,0.6h4.6V44.9z"/>
	</g>
</g>
</svg>
