<?xml version="1.0" encoding="UTF-8" ?>
<!DOCTYPE svg PUBLIC "-//W3C//DTD SVG 1.1//EN" "http://www.w3.org/Graphics/SVG/1.1/DTD/svg11.dtd">
<svg width="1487pt" height="350pt" viewBox="0 0 1487 350" version="1.1" xmlns="http://www.w3.org/2000/svg">
<g id="#ffffffff">
</g>
<g id="#000f30ff">
<path fill="#000f30" opacity="1.00" d=" M 76.69 49.69 C 104.45 26.27 139.71 12.01 175.89 9.15 C 207.62 6.49 240.11 12.78 268.40 27.46 C 296.41 42.01 320.27 64.41 336.78 91.29 C 355.26 121.94 363.86 158.43 360.89 194.11 C 359.05 218.01 351.92 241.40 340.67 262.54 C 337.47 268.08 334.17 274.16 328.30 277.28 C 329.25 263.64 334.47 250.70 335.74 237.10 C 339.09 204.15 332.34 170.09 315.82 141.31 C 301.72 116.52 280.37 95.86 254.90 82.96 C 232.21 71.32 206.51 66.03 181.08 66.54 C 183.44 74.05 185.84 81.54 188.20 89.05 C 180.16 93.99 171.04 97.47 164.14 104.06 C 157.58 111.68 154.00 121.28 148.83 129.81 C 144.39 128.53 140.03 126.98 135.76 125.21 C 116.13 117.17 97.22 107.50 77.58 99.49 C 72.71 97.66 67.81 95.36 62.50 95.34 C 68.34 101.98 76.23 106.34 82.63 112.39 C 92.74 120.90 102.42 129.91 112.26 138.72 C 120.54 145.74 127.30 154.51 136.57 160.34 C 127.57 179.94 118.81 199.67 109.44 219.10 C 105.59 227.61 102.25 237.18 104.55 246.59 C 108.42 261.19 123.87 271.65 138.90 269.56 C 147.13 269.08 153.64 263.71 159.96 259.03 C 175.49 249.29 190.68 238.95 207.02 230.60 C 210.53 231.70 212.50 234.98 212.61 238.56 C 214.22 258.79 206.81 278.93 195.25 295.29 C 185.70 307.57 173.48 318.38 158.66 323.72 C 147.49 327.82 135.44 328.63 123.64 328.27 C 104.04 326.29 85.88 316.61 71.07 303.93 C 45.82 282.01 29.25 251.23 21.59 218.92 C 13.61 185.44 16.38 149.68 28.53 117.55 C 38.46 91.31 55.22 67.73 76.69 49.69 Z" />
<path fill="#000f30" opacity="1.00" d=" M 1223.55 138.59 C 1239.25 123.16 1264.10 119.33 1284.51 126.59 C 1291.41 128.94 1297.74 132.94 1302.75 138.26 C 1297.11 144.01 1291.31 149.61 1285.72 155.40 C 1275.61 142.43 1253.80 143.19 1243.30 155.31 C 1233.09 167.15 1232.97 186.28 1242.51 198.55 C 1253.01 211.82 1276.26 211.91 1286.25 197.96 C 1292.05 203.51 1297.90 209.02 1303.81 214.45 C 1290.87 229.62 1269.10 234.41 1250.15 230.19 C 1234.15 226.94 1219.70 215.96 1213.10 200.92 C 1204.10 180.61 1207.25 154.37 1223.55 138.59 Z" />
<path fill="#000f30" opacity="1.00" d=" M 583.23 125.83 C 591.66 125.83 600.10 125.86 608.53 125.82 C 608.55 160.18 608.49 194.54 608.56 228.90 C 600.11 228.90 591.66 228.90 583.22 228.91 C 583.24 194.55 583.21 160.19 583.23 125.83 Z" />
<path fill="#000f30" opacity="1.00" d=" M 629.35 228.91 C 629.38 194.55 629.35 160.19 629.37 125.83 C 638.86 125.84 648.35 125.85 657.84 125.82 C 671.65 148.19 685.44 170.57 699.14 193.01 C 698.99 170.62 698.83 148.22 698.55 125.83 C 706.73 125.85 714.91 125.83 723.09 125.84 C 723.08 160.18 723.06 194.52 723.10 228.87 C 713.58 228.88 704.06 229.00 694.55 228.81 C 680.89 206.33 667.01 183.97 653.22 161.57 C 653.59 184.01 653.42 206.46 653.81 228.91 C 645.66 228.89 637.51 228.90 629.35 228.91 Z" />
<path fill="#000f30" opacity="1.00" d=" M 743.83 125.84 C 766.48 125.83 789.14 125.86 811.79 125.82 C 811.80 133.04 811.78 140.25 811.80 147.47 C 797.44 147.46 783.08 147.46 768.73 147.47 C 768.73 154.35 768.71 161.22 768.74 168.10 C 781.99 168.11 795.24 168.11 808.49 168.10 C 808.50 175.09 808.49 182.07 808.49 189.05 C 795.24 188.92 781.99 188.92 768.75 189.04 C 768.70 202.33 768.72 215.61 768.74 228.90 C 760.43 228.90 752.13 228.91 743.83 228.89 C 743.84 194.54 743.84 160.19 743.83 125.84 Z" />
<path fill="#000f30" opacity="1.00" d=" M 826.32 190.06 C 826.31 168.65 826.28 147.23 826.34 125.82 C 834.69 125.85 843.04 125.84 851.40 125.82 C 851.41 146.89 851.37 167.96 851.42 189.03 C 851.41 196.45 854.94 204.74 862.32 207.47 C 870.03 210.26 880.07 209.18 885.35 202.35 C 889.05 197.41 889.70 190.97 889.52 184.99 C 889.48 165.27 889.51 145.54 889.51 125.82 C 897.88 125.85 906.26 125.84 914.64 125.83 C 914.61 147.81 914.69 169.78 914.60 191.76 C 914.50 203.78 908.87 215.80 899.09 222.94 C 888.27 230.99 873.96 232.85 860.91 230.88 C 849.67 229.21 838.83 223.10 832.69 213.38 C 828.19 206.51 826.30 198.20 826.32 190.06 Z" />
<path fill="#000f30" opacity="1.00" d=" M 934.28 125.83 C 942.70 125.84 951.12 125.85 959.55 125.82 C 959.57 152.83 959.51 179.84 959.58 206.85 C 972.84 206.85 986.10 206.87 999.37 206.84 C 999.37 214.19 999.38 221.55 999.36 228.90 C 977.66 228.90 955.96 228.90 934.26 228.90 C 934.29 194.54 934.26 160.18 934.28 125.83 Z" />
<path fill="#000f30" opacity="1.00" d=" M 1010.50 125.84 C 1033.65 125.83 1056.79 125.86 1079.94 125.82 C 1079.95 132.97 1079.94 140.12 1079.94 147.28 C 1064.92 147.27 1049.89 147.25 1034.87 147.29 C 1034.86 153.55 1034.88 159.82 1034.86 166.08 C 1049.07 166.06 1063.28 166.08 1077.49 166.08 C 1077.49 172.87 1077.46 179.66 1077.51 186.45 C 1063.28 186.50 1049.05 186.36 1034.83 186.52 C 1034.92 193.44 1034.83 200.37 1034.88 207.29 C 1050.75 207.30 1066.63 207.29 1082.51 207.30 C 1082.48 214.50 1082.49 221.70 1082.51 228.91 C 1058.51 228.90 1034.51 228.90 1010.52 228.91 C 1010.49 194.55 1010.52 160.20 1010.50 125.84 Z" />
<path fill="#000f30" opacity="1.00" d=" M 1098.50 125.84 C 1107.97 125.83 1117.45 125.86 1126.94 125.82 C 1140.86 148.12 1154.49 170.60 1168.31 192.96 C 1168.08 170.58 1168.00 148.21 1167.74 125.83 C 1175.90 125.84 1184.06 125.84 1192.23 125.84 C 1192.22 160.19 1192.23 194.55 1192.23 228.90 C 1182.79 228.92 1173.36 228.87 1163.93 228.92 C 1149.99 206.56 1136.28 184.05 1122.44 161.63 C 1122.44 184.05 1122.77 206.47 1123.02 228.88 C 1114.84 228.93 1106.67 228.88 1098.50 228.91 C 1098.50 194.55 1098.51 160.19 1098.50 125.84 Z" />
<path fill="#000f30" opacity="1.00" d=" M 1313.85 125.83 C 1336.99 125.84 1360.14 125.85 1383.29 125.82 C 1383.25 132.98 1383.28 140.13 1383.26 147.28 C 1368.23 147.26 1353.20 147.26 1338.17 147.29 C 1338.16 153.55 1338.14 159.81 1338.19 166.07 C 1352.39 166.09 1366.60 166.06 1380.81 166.08 C 1380.80 172.87 1380.81 179.66 1380.80 186.45 C 1366.59 186.45 1352.38 186.45 1338.17 186.45 C 1338.15 193.39 1338.15 200.33 1338.18 207.27 C 1354.08 207.32 1369.99 207.30 1385.90 207.29 C 1385.89 214.49 1385.91 221.69 1385.89 228.90 C 1361.87 228.89 1337.85 228.93 1313.83 228.88 C 1313.89 194.53 1313.85 160.18 1313.85 125.83 Z" />
<path fill="#000f30" opacity="1.00" d=" M 1401.83 125.83 C 1415.55 125.86 1429.28 125.80 1443.01 125.86 C 1452.52 126.07 1462.44 128.08 1470.19 133.92 C 1483.98 144.38 1484.25 167.93 1470.83 178.81 C 1467.53 181.66 1463.52 183.49 1459.45 184.92 C 1468.38 199.59 1477.44 214.16 1486.22 228.92 C 1476.45 228.88 1466.68 228.91 1456.91 228.90 C 1449.45 215.33 1442.08 201.72 1434.69 188.12 C 1431.97 188.12 1429.26 188.12 1426.56 188.13 C 1426.51 201.72 1426.51 215.30 1426.56 228.89 C 1418.31 228.90 1410.05 228.92 1401.81 228.88 C 1401.86 194.53 1401.82 160.18 1401.83 125.83 M 1426.48 146.28 C 1426.51 154.09 1426.47 161.91 1426.51 169.72 C 1434.39 169.36 1442.89 170.97 1450.23 167.25 C 1457.60 163.80 1457.70 151.20 1449.95 148.11 C 1442.51 145.11 1434.28 146.61 1426.48 146.28 Z" />
<path fill="#000f30" opacity="1.00" d=" M 176.05 161.07 C 180.58 156.69 188.34 155.71 193.47 159.62 C 195.43 160.98 196.57 163.13 197.74 165.14 C 191.35 168.22 184.81 171.02 178.72 174.69 C 176.94 175.81 174.97 176.59 172.84 176.59 C 170.83 171.40 171.86 164.91 176.05 161.07 Z" />
</g>
<g id="#6e84c0ff">
<path fill="#752ceb" opacity="1.00" d=" M 416.17 120.23 C 423.22 119.44 430.62 124.76 431.28 132.00 C 432.30 139.52 425.61 146.74 418.10 146.62 C 410.89 147.23 403.83 141.23 403.62 133.94 C 403.41 127.03 409.27 120.64 416.17 120.23 Z" />
<path fill="#752ceb" opacity="1.00" d=" M 486.94 154.90 C 494.58 153.35 503.29 154.36 509.40 159.56 C 511.64 161.34 513.15 163.79 514.96 165.96 C 517.08 163.74 518.84 161.14 521.38 159.34 C 528.03 154.33 536.99 153.30 544.98 154.99 C 552.99 156.75 559.51 163.14 562.13 170.81 C 564.74 177.57 564.50 184.90 564.44 192.01 C 564.42 204.31 564.46 216.61 564.42 228.91 C 556.33 228.88 548.25 228.89 540.17 228.90 C 540.14 215.27 540.21 201.63 540.15 188.00 C 539.99 183.76 539.54 178.84 536.05 175.93 C 531.74 173.01 525.22 173.88 521.90 177.93 C 519.15 181.28 518.27 185.75 518.33 189.99 C 518.31 202.96 518.33 215.93 518.32 228.90 C 510.24 228.88 502.16 228.90 494.08 228.90 C 494.03 214.92 494.09 200.95 494.05 186.98 C 494.05 182.84 493.08 178.09 489.44 175.60 C 484.96 172.99 478.59 174.19 475.48 178.39 C 473.30 181.46 472.41 185.30 472.42 189.02 C 472.37 202.31 472.45 215.60 472.38 228.89 C 464.27 228.89 456.15 228.89 448.04 228.90 C 448.03 204.68 448.03 180.47 448.04 156.26 C 455.88 156.30 463.71 156.22 471.55 156.32 C 471.52 159.57 471.53 162.83 471.43 166.08 C 474.97 160.59 480.46 156.23 486.94 154.90 Z" />
<path fill="#752ceb" opacity="1.00" d=" M 405.44 156.30 C 413.48 156.25 421.52 156.28 429.56 156.27 C 429.54 180.48 429.51 204.68 429.57 228.89 C 421.53 228.90 413.48 228.89 405.44 228.90 C 405.48 204.70 405.48 180.50 405.44 156.30 Z" />
</g>
<g id="#cccfd6ff">
<path fill="#cccfd6" opacity="1.00" d=" M 271.18 151.83 C 281.47 164.40 285.14 181.10 285.57 197.01 C 285.89 225.90 276.56 254.59 260.63 278.57 C 240.69 307.60 208.07 327.45 173.26 332.42 C 162.94 334.07 152.43 333.71 142.05 333.01 C 136.76 332.53 131.38 332.18 126.29 330.58 C 125.00 330.36 124.33 329.24 123.64 328.27 C 135.44 328.63 147.49 327.82 158.66 323.72 C 173.48 318.38 185.70 307.57 195.25 295.29 C 206.81 278.93 214.22 258.79 212.61 238.56 C 212.50 234.98 210.53 231.70 207.02 230.60 C 210.97 229.82 214.97 230.57 218.95 230.50 C 233.62 230.37 248.41 225.17 259.37 215.29 C 268.16 207.36 272.86 195.74 273.82 184.09 C 274.86 173.26 273.11 162.45 271.18 151.83 Z" />
</g>
</svg>
