<?xml version="1.0" encoding="utf-8"?>
<!-- Generator: Adobe Illustrator 18.0.0, SVG Export Plug-In . SVG Version: 6.00 Build 0)  -->
<!DOCTYPE svg PUBLIC "-//W3C//DTD SVG 1.1//EN" "http://www.w3.org/Graphics/SVG/1.1/DTD/svg11.dtd">
<svg version="1.1" xmlns="http://www.w3.org/2000/svg" xmlns:xlink="http://www.w3.org/1999/xlink" x="0px" y="0px"
	 viewBox="0 0 90 90" enable-background="new 0 0 90 90" xml:space="preserve">
<g id="Background">
</g>
<g id="Design">
	<g opacity="0.1">
		<linearGradient id="SVGID_1_" gradientUnits="userSpaceOnUse" x1="2.5508" y1="45.3904" x2="86.4492" y2="45.3904">
			<stop  offset="1.104800e-003" style="stop-color:#FBE18A"/>
			<stop  offset="0.2094" style="stop-color:#FCBB45"/>
			<stop  offset="0.3765" style="stop-color:#F75274"/>
			<stop  offset="0.5238" style="stop-color:#D53692"/>
			<stop  offset="0.7394" style="stop-color:#8F39CE"/>
			<stop  offset="1" style="stop-color:#5B4FE9"/>
		</linearGradient>
		<circle fill="url(#SVGID_1_)" cx="44.5" cy="45.4" r="41.9"/>
	</g>
	<g>
		<linearGradient id="SVGID_2_" gradientUnits="userSpaceOnUse" x1="56.3265" y1="30.8735" x2="62.5581" y2="30.8735">
			<stop  offset="1.104800e-003" style="stop-color:#FBE18A"/>
			<stop  offset="0.2094" style="stop-color:#FCBB45"/>
			<stop  offset="0.3765" style="stop-color:#F75274"/>
			<stop  offset="0.5238" style="stop-color:#D53692"/>
			<stop  offset="0.7394" style="stop-color:#8F39CE"/>
			<stop  offset="1" style="stop-color:#5B4FE9"/>
		</linearGradient>
		<circle fill="url(#SVGID_2_)" cx="59.4" cy="30.9" r="3.1"/>
		<linearGradient id="SVGID_3_" gradientUnits="userSpaceOnUse" x1="32.5013" y1="44.842" x2="58.6785" y2="44.842">
			<stop  offset="1.104800e-003" style="stop-color:#FBE18A"/>
			<stop  offset="0.2094" style="stop-color:#FCBB45"/>
			<stop  offset="0.3765" style="stop-color:#F75274"/>
			<stop  offset="0.5238" style="stop-color:#D53692"/>
			<stop  offset="0.7394" style="stop-color:#8F39CE"/>
			<stop  offset="1" style="stop-color:#5B4FE9"/>
		</linearGradient>
		<path fill="url(#SVGID_3_)" d="M45.6,31.8c-7.2,0-13.1,5.9-13.1,13.1s5.9,13.1,13.1,13.1s13.1-5.9,13.1-13.1S52.8,31.8,45.6,31.8z
			 M45.6,53.2c-4.6,0-8.4-3.8-8.4-8.4c0-4.6,3.8-8.4,8.4-8.4s8.4,3.8,8.4,8.4C54,49.5,50.2,53.2,45.6,53.2z"/>
		<g>
			<linearGradient id="SVGID_4_" gradientUnits="userSpaceOnUse" x1="18.7981" y1="44.842" x2="71.9456" y2="44.842">
				<stop  offset="1.104800e-003" style="stop-color:#FBE18A"/>
				<stop  offset="0.2094" style="stop-color:#FCBB45"/>
				<stop  offset="0.3765" style="stop-color:#F75274"/>
				<stop  offset="0.5238" style="stop-color:#D53692"/>
				<stop  offset="0.7394" style="stop-color:#8F39CE"/>
				<stop  offset="1" style="stop-color:#5B4FE9"/>
			</linearGradient>
			<path fill="url(#SVGID_4_)" d="M56,71.4H34.8c-8.8,0-16-7.2-16-16V34.2c0-8.8,7.2-16,16-16H56c8.8,0,16,7.2,16,16v21.2
				C71.9,64.3,64.8,71.4,56,71.4z M34.8,23.3c-6,0-11,4.9-11,11v21.2c0,6,4.9,11,11,11H56c6,0,11-4.9,11-11V34.2c0-6-4.9-11-11-11
				H34.8z"/>
		</g>
	</g>
</g>
</svg>
