<?xml version="1.0" encoding="utf-8"?>
<!-- Generator: Adobe Illustrator 18.0.0, SVG Export Plug-In . SVG Version: 6.00 Build 0)  -->
<!DOCTYPE svg PUBLIC "-//W3C//DTD SVG 1.1//EN" "http://www.w3.org/Graphics/SVG/1.1/DTD/svg11.dtd">
<svg version="1.1" id="Layer_1" xmlns="http://www.w3.org/2000/svg" xmlns:xlink="http://www.w3.org/1999/xlink" x="0px" y="0px"
	 viewBox="128 238 146 146" enable-background="new 128 238 146 146" xml:space="preserve">
<circle fill="#EBFCFF" cx="201" cy="311" r="73"/>
<g transform="translate(0 -1)">
	<path fill="#007AAA" d="M170.6,272.6c5.2,0,9.7,4.4,9.7,9.7c0,5.5-4.7,9.8-9.7,9.7c-5.1,0.1-9.7-4.1-9.7-9.7
		C160.8,276.9,165.2,272.6,170.6,272.6"/>
	<path fill="#007AAA" d="M176,351.4h-11c-1.5,0-2.8-1.2-2.8-2.8v-48.3c0-1.5,1.1-2.8,2.6-2.8H176c1.5,0,2.8,1.2,2.8,2.8v48.5
		C178.8,350.1,177.5,351.4,176,351.4"/>
	<path fill="#007AAA" d="M240.9,314.3c0-10.2-7.6-18.2-17.8-18.2h-2.9c-5.5,0-10.9,2.6-13.8,6.9c-1,1-1.4,1.4-1.4,1.4v-5.5
		c0-0.6-0.8-1.4-1.4-1.4h-13.8c-0.6,0-1.4,0.6-1.4,1.2v51.5c0,0.6,0.8,1.1,1.4,1.1H205c0.6,0,1.4-0.6,1.4-1.1v-29.8
		c0-5.1,3.9-9.4,9-9.5c2.6,0,5,1,6.8,2.8c1.7,1.7,2.3,4,2.3,6.6V350c0,0.6,0.8,1.4,1.4,1.4h13.8c0.6,0,1.4-0.8,1.4-1.4v-35.6H240.9z
		"/>
</g>
</svg>
