<?xml version="1.0" encoding="utf-8"?>
<!-- Generator: Adobe Illustrator 18.0.0, SVG Export Plug-In . SVG Version: 6.00 Build 0)  -->
<!DOCTYPE svg PUBLIC "-//W3C//DTD SVG 1.1//EN" "http://www.w3.org/Graphics/SVG/1.1/DTD/svg11.dtd">
<svg version="1.1" id="Ñëîé_1" xmlns="http://www.w3.org/2000/svg" xmlns:xlink="http://www.w3.org/1999/xlink" x="0px" y="0px"
	 viewBox="0 0 265.1 226.9" enable-background="new 0 0 265.1 226.9" xml:space="preserve">
<g>
	<g>
		<path fill="#42E8E0" d="M164.4,203.8c-0.8,0-1.7-0.2-2.4-0.7l-44.6-25.8l0.3-0.6l44.6,25.8c1.3,0.8,2.9,0.8,4.2,0l38.5-22.2
			l0.3,0.6l-38.5,22.2C166.1,203.6,165.3,203.8,164.4,203.8z"/>
		<g>
			<path fill="#42E8E0" d="M80.9,212.6c-0.8,0-1.7-0.2-2.5-0.7L28.6,183l131.7-76.2l0.3,0.6L29.9,183l48.9,28.3
				c1.3,0.8,2.9,0.8,4.2,0l37.3-21.3l0.3,0.6l-37.3,21.3C82.6,212.3,81.8,212.6,80.9,212.6z"/>
		</g>
		<g>
			<g>
				<path opacity="0.3" fill="#0B0244" d="M89.2,185.2L26,148.7c-0.8-0.4-0.7-1.2,0.2-1.7l94.6-54.7c0.9-0.5,2.2-0.6,3-0.1
					l63.2,36.5c0.8,0.4,0.7,1.2-0.2,1.7l-94.6,54.7C91.2,185.6,89.9,185.6,89.2,185.2z"/>
				<g>
					<path fill="#312A91" d="M183.8,118.9l-2.7,0.5l-61.9-35.7c-0.8-0.5-2.2-0.4-3.1,0.1l-92.3,53.4l-4.7,0.8v1.5l0,0
						c0,0.3,0.2,0.6,0.5,0.8l64,37c0.8,0.5,2.2,0.4,3.1-0.1l96.3-55.7c0.5-0.3,0.8-0.7,0.8-1l0,0V118.9z"/>
					<radialGradient id="SVGID_1_" cx="-5.6835" cy="143.6317" r="129.6387" gradientUnits="userSpaceOnUse">
						<stop  offset="0" style="stop-color:#42E8E0"/>
						<stop  offset="1.567662e-002" style="stop-color:#40D8D7"/>
						<stop  offset="6.066751e-002" style="stop-color:#3AAFC0"/>
						<stop  offset="0.1112" style="stop-color:#3589AC"/>
						<stop  offset="0.1662" style="stop-color:#30699A"/>
						<stop  offset="0.227" style="stop-color:#2C4D8B"/>
						<stop  offset="0.2957" style="stop-color:#29377F"/>
						<stop  offset="0.3758" style="stop-color:#272675"/>
						<stop  offset="0.475" style="stop-color:#251B6F"/>
						<stop  offset="0.614" style="stop-color:#24146B"/>
						<stop  offset="1" style="stop-color:#24126A"/>
					</radialGradient>
					<path opacity="0.5" fill="url(#SVGID_1_)" d="M183.8,118.9l-2.7,0.5l-61.9-35.7c-0.8-0.5-2.2-0.4-3.1,0.1l-92.3,53.4l-4.7,0.8
						v1.5l0,0c0,0.3,0.2,0.6,0.5,0.8l64,37c0.8,0.5,2.2,0.4,3.1-0.1l96.3-55.7c0.5-0.3,0.8-0.7,0.8-1l0,0V118.9z"/>
					<radialGradient id="SVGID_2_" cx="77" cy="182.1945" r="229.5709" gradientUnits="userSpaceOnUse">
						<stop  offset="0" style="stop-color:#42E8E0"/>
						<stop  offset="0.1022" style="stop-color:#3CCACE"/>
						<stop  offset="0.3445" style="stop-color:#2F87A5"/>
						<stop  offset="0.564" style="stop-color:#255385"/>
						<stop  offset="0.7534" style="stop-color:#1E2D6E"/>
						<stop  offset="0.905" style="stop-color:#1A1660"/>
						<stop  offset="1" style="stop-color:#180D5B"/>
					</radialGradient>
					<path fill="url(#SVGID_2_)" d="M183,120.5l-96.3,55.7c-0.9,0.5-2.3,0.6-3.1,0.1l-64-37c-0.4-0.2-0.5-0.5-0.5-0.8l0,0v0.4l0,0
						c0,0.3,0.2,0.6,0.5,0.8l64,37c0.8,0.5,2.2,0.4,3.1-0.1l96.3-55.7c0.5-0.3,0.8-0.7,0.8-1l0,0v-0.4l0,0
						C183.8,119.9,183.5,120.3,183,120.5z"/>
					<path fill="#312A91" d="M83.6,175.7l-64-37c-0.8-0.5-0.7-1.3,0.2-1.8l96.3-55.7c0.9-0.5,2.3-0.6,3.1-0.1l64,37
						c0.8,0.5,0.7,1.3-0.2,1.8l-96.3,55.7C85.8,176.1,84.4,176.2,83.6,175.7z"/>
					<linearGradient id="SVGID_3_" gradientUnits="userSpaceOnUse" x1="19.0859" y1="128.4295" x2="183.757" y2="128.4295">
						<stop  offset="0" style="stop-color:#180D5B"/>
						<stop  offset="9.497968e-002" style="stop-color:#1A1660"/>
						<stop  offset="0.2466" style="stop-color:#1E2D6E"/>
						<stop  offset="0.436" style="stop-color:#255385"/>
						<stop  offset="0.6555" style="stop-color:#2F87A5"/>
						<stop  offset="0.8978" style="stop-color:#3CCACE"/>
						<stop  offset="1" style="stop-color:#42E8E0"/>
					</linearGradient>
					<path opacity="0.7" fill="url(#SVGID_3_)" d="M83.6,175.7l-64-37c-0.8-0.5-0.7-1.3,0.2-1.8l96.3-55.7c0.9-0.5,2.3-0.6,3.1-0.1
						l64,37c0.8,0.5,0.7,1.3-0.2,1.8l-96.3,55.7C85.8,176.1,84.4,176.2,83.6,175.7z"/>
				</g>
				<g opacity="0.4">
					<radialGradient id="SVGID_4_" cx="17.4513" cy="143.7343" r="66.3756" gradientUnits="userSpaceOnUse">
						<stop  offset="0" style="stop-color:#42E8E0"/>
						<stop  offset="0.1022" style="stop-color:#3CCACE"/>
						<stop  offset="0.3445" style="stop-color:#2F87A5"/>
						<stop  offset="0.564" style="stop-color:#255385"/>
						<stop  offset="0.7534" style="stop-color:#1E2D6E"/>
						<stop  offset="0.905" style="stop-color:#1A1660"/>
						<stop  offset="1" style="stop-color:#180D5B"/>
					</radialGradient>
					<path opacity="0.5" fill="url(#SVGID_4_)" d="M183.8,118.6l-2.7,0.5l-61.9-35.7c-0.8-0.5-2.2-0.4-3.1,0.1l-92.3,53.4l-4.7,0.8
						v0.3l0,0c0,0.3,0.2,0.6,0.5,0.8l64,37c0.8,0.5,2.2,0.4,3.1-0.1l96.3-55.7c0.5-0.3,0.8-0.7,0.8-1l0,0V118.6z"/>
					<radialGradient id="SVGID_5_" cx="21.1651" cy="128.9646" r="136.8176" gradientUnits="userSpaceOnUse">
						<stop  offset="0" style="stop-color:#42E8E0"/>
						<stop  offset="0.1022" style="stop-color:#3CCACE"/>
						<stop  offset="0.3445" style="stop-color:#2F87A5"/>
						<stop  offset="0.564" style="stop-color:#255385"/>
						<stop  offset="0.7534" style="stop-color:#1E2D6E"/>
						<stop  offset="0.905" style="stop-color:#1A1660"/>
						<stop  offset="1" style="stop-color:#180D5B"/>
					</radialGradient>
					<path opacity="0.7" fill="url(#SVGID_5_)" d="M83.6,175.4l-64-37c-0.8-0.5-0.7-1.3,0.2-1.8L116.1,81c0.9-0.5,2.3-0.6,3.1-0.1
						l64,37c0.8,0.5,0.7,1.3-0.2,1.8l-96.3,55.7C85.8,175.8,84.4,175.8,83.6,175.4z"/>
					<path fill="#312A91" d="M83.6,175.4l-64-37c-0.8-0.5-0.7-1.3,0.2-1.8L116.1,81c0.9-0.5,2.3-0.6,3.1-0.1l64,37
						c0.8,0.5,0.7,1.3-0.2,1.8l-96.3,55.7C85.8,175.8,84.4,175.8,83.6,175.4z"/>
				</g>
				<radialGradient id="SVGID_6_" cx="32.0182" cy="135.54" r="111.9668" gradientUnits="userSpaceOnUse">
					<stop  offset="0" style="stop-color:#42E8E0"/>
					<stop  offset="0.1022" style="stop-color:#3CCACE"/>
					<stop  offset="0.3445" style="stop-color:#2F87A5"/>
					<stop  offset="0.564" style="stop-color:#255385"/>
					<stop  offset="0.7534" style="stop-color:#1E2D6E"/>
					<stop  offset="0.905" style="stop-color:#1A1660"/>
					<stop  offset="1" style="stop-color:#180D5B"/>
				</radialGradient>
				<path opacity="0.5" fill="url(#SVGID_6_)" d="M83.6,175.4l-64-37c-0.8-0.5-0.7-1.3,0.2-1.8L116.1,81c0.9-0.5,2.3-0.6,3.1-0.1
					l64,37c0.8,0.5,0.7,1.3-0.2,1.8l-96.3,55.7C85.8,175.8,84.4,175.8,83.6,175.4z"/>
				<radialGradient id="SVGID_7_" cx="1.315" cy="136.1117" r="223.3854" gradientUnits="userSpaceOnUse">
					<stop  offset="0" style="stop-color:#42E8E0"/>
					<stop  offset="0.1022" style="stop-color:#3CCACE"/>
					<stop  offset="0.3445" style="stop-color:#2F87A5"/>
					<stop  offset="0.564" style="stop-color:#255385"/>
					<stop  offset="0.7534" style="stop-color:#1E2D6E"/>
					<stop  offset="0.905" style="stop-color:#1A1660"/>
					<stop  offset="1" style="stop-color:#180D5B"/>
				</radialGradient>
				<path opacity="0.5" fill="url(#SVGID_7_)" d="M83.6,175.4l-64-37c-0.8-0.5-0.7-1.3,0.2-1.8L116.1,81c0.9-0.5,2.3-0.6,3.1-0.1
					l64,37c0.8,0.5,0.7,1.3-0.2,1.8l-96.3,55.7C85.8,175.8,84.4,175.8,83.6,175.4z"/>
				<radialGradient id="SVGID_8_" cx="17.582" cy="135.5396" r="196.6721" gradientUnits="userSpaceOnUse">
					<stop  offset="0" style="stop-color:#42E8E0"/>
					<stop  offset="0.1022" style="stop-color:#3CCACE"/>
					<stop  offset="0.3445" style="stop-color:#2F87A5"/>
					<stop  offset="0.564" style="stop-color:#255385"/>
					<stop  offset="0.7534" style="stop-color:#1E2D6E"/>
					<stop  offset="0.905" style="stop-color:#1A1660"/>
					<stop  offset="1" style="stop-color:#180D5B"/>
				</radialGradient>
				<path opacity="0.9" fill="url(#SVGID_8_)" d="M84,175.4l-64-37c-0.9-0.5-1-1.1,0.2-1.8l96.3-55.7c0.4-0.2,0.9-0.4,1.4-0.4
					c-0.6,0-1.3,0.1-1.8,0.4l-96.3,55.7c-0.9,0.5-1,1.3-0.2,1.8l64,37c0.4,0.3,1,0.3,1.7,0.3C84.8,175.7,84.4,175.6,84,175.4z"/>
			</g>
			<path fill="#312A91" d="M115.3,77.5l-7.9-67.9c0-0.1-0.1-0.3-0.1-0.4l0.7-0.3L106.4,8l0,0c-0.7-0.4-1.5-0.4-2.3,0L8.8,63.1
				c-0.9,0.5-1.4,1.5-1.3,2.6l7.9,67.9c0.1,0.8,0.6,1.5,1.3,1.8l1.5,0.9l-0.2-0.8c0.2,0,0.5-0.1,0.7-0.3L114,80.1
				C114.9,79.6,115.4,78.6,115.3,77.5z"/>
			<linearGradient id="SVGID_9_" gradientUnits="userSpaceOnUse" x1="27.8155" y1="34.2425" x2="100.3435" y2="114.0781">
				<stop  offset="0" style="stop-color:#42E8E0"/>
				<stop  offset="7.396981e-002" style="stop-color:#3ED2D3"/>
				<stop  offset="0.2847" style="stop-color:#3297AF"/>
				<stop  offset="0.3474" style="stop-color:#2F87A5"/>
				<stop  offset="0.5646" style="stop-color:#255385"/>
				<stop  offset="0.7537" style="stop-color:#1E2D6E"/>
				<stop  offset="0.9051" style="stop-color:#1A1560"/>
				<stop  offset="1" style="stop-color:#180D5B"/>
			</linearGradient>
			<path opacity="0.7" fill="url(#SVGID_9_)" d="M115.3,77.5l-7.9-67.9c0-0.1-0.1-0.3-0.1-0.4l0.7-0.3L106.4,8l0,0
				c-0.7-0.4-1.5-0.4-2.3,0L8.8,63.1c-0.9,0.5-1.4,1.5-1.3,2.6l7.9,67.9c0.1,0.8,0.6,1.5,1.3,1.8l1.5,0.9l-0.2-0.8
				c0.2,0,0.5-0.1,0.7-0.3L114,80.1C114.9,79.6,115.4,78.6,115.3,77.5z"/>
			<linearGradient id="SVGID_10_" gradientUnits="userSpaceOnUse" x1="9.1116" y1="72.5702" x2="117.1302" y2="72.5702">
				<stop  offset="0" style="stop-color:#2B237C"/>
				<stop  offset="1" style="stop-color:#180D5B"/>
			</linearGradient>
			<path fill="url(#SVGID_10_)" d="M115.8,81.1l-95.3,55.1c-1.4,0.8-3.3-0.1-3.4-1.7L9.1,66.6c-0.1-1,0.4-2,1.3-2.6l95.3-55.1
				c1.4-0.8,3.3,0.1,3.4,1.7l7.9,67.9C117.2,79.6,116.7,80.6,115.8,81.1z"/>
			<radialGradient id="SVGID_11_" cx="23.223" cy="49.604" r="288.3125" gradientUnits="userSpaceOnUse">
				<stop  offset="0" style="stop-color:#42E8E0"/>
				<stop  offset="0.1022" style="stop-color:#3CCACE"/>
				<stop  offset="0.3445" style="stop-color:#2F87A5"/>
				<stop  offset="0.564" style="stop-color:#255385"/>
				<stop  offset="0.7534" style="stop-color:#1E2D6E"/>
				<stop  offset="0.905" style="stop-color:#1A1660"/>
				<stop  offset="1" style="stop-color:#180D5B"/>
			</radialGradient>
			<path opacity="0.5" fill="url(#SVGID_11_)" d="M115.8,81.1l-95.3,55.1c-1.4,0.8-3.3-0.1-3.4-1.7L9.1,66.6c-0.1-1,0.4-2,1.3-2.6
				l95.3-55.1c1.4-0.8,3.3,0.1,3.4,1.7l7.9,67.9C117.2,79.6,116.7,80.6,115.8,81.1z"/>
			<radialGradient id="SVGID_12_" cx="7.1965" cy="64.3731" r="11.6711" gradientUnits="userSpaceOnUse">
				<stop  offset="0" style="stop-color:#42E8E0"/>
				<stop  offset="0.1022" style="stop-color:#3CCACE"/>
				<stop  offset="0.3445" style="stop-color:#2F87A5"/>
				<stop  offset="0.564" style="stop-color:#255385"/>
				<stop  offset="0.7534" style="stop-color:#1E2D6E"/>
				<stop  offset="0.905" style="stop-color:#1A1660"/>
				<stop  offset="1" style="stop-color:#180D5B"/>
			</radialGradient>
			<path opacity="0.9" fill="url(#SVGID_12_)" d="M9.7,64.6l-1.6-0.9c-0.3,0.4-0.5,0.8-0.6,1.3l1.6,0.9C9.2,65.3,9.4,64.9,9.7,64.6z
				"/>
			<linearGradient id="SVGID_13_" gradientUnits="userSpaceOnUse" x1="41.6521" y1="46.1169" x2="104.0565" y2="123.188">
				<stop  offset="0" style="stop-color:#42E8E0"/>
				<stop  offset="0.1022" style="stop-color:#3CCACE"/>
				<stop  offset="0.3445" style="stop-color:#2F87A5"/>
				<stop  offset="0.564" style="stop-color:#255385"/>
				<stop  offset="0.7534" style="stop-color:#1E2D6E"/>
				<stop  offset="0.905" style="stop-color:#1A1660"/>
				<stop  offset="1" style="stop-color:#180D5B"/>
			</linearGradient>
			<path opacity="0.9" fill="url(#SVGID_13_)" d="M17.5,134.7L9.5,66.8c-0.2-1.2,0.2-1.8,1.3-2.6l95.3-55.1c0.7-0.4,1.5-0.4,2.1-0.1
				c-0.7-0.5-1.7-0.6-2.5-0.1L10.4,64c-0.9,0.5-1.4,1.5-1.3,2.6l7.9,67.9c0.1,0.9,0.6,1.5,1.3,1.8C17.9,135.9,17.5,135.4,17.5,134.7
				z"/>
			<g opacity="0.4">
				<g>
					<path fill="#42E8E0" d="M51.5,135.3l-2.5,1.4c-0.3,0.1-0.6,0.2-0.8,0l-2.6-1.5c-0.2-0.1-0.2-0.3,0.1-0.5l2.5-1.4
						c0.3-0.1,0.6-0.2,0.8,0l2.6,1.5C51.7,134.9,51.7,135.2,51.5,135.3z"/>
					<path fill="#42E8E0" d="M112.1,126.9l-26,15c-0.3,0.1-0.6,0.2-0.8,0l-2.6-1.5c-0.2-0.1-0.2-0.3,0.1-0.5l26-15
						c0.3-0.1,0.6-0.2,0.8,0l2.6,1.5C112.4,126.5,112.3,126.8,112.1,126.9z"/>
					<path fill="#42E8E0" d="M131.4,115.8l-2.5,1.4c-0.3,0.1-0.6,0.2-0.8,0l-2.6-1.5c-0.2-0.1-0.2-0.3,0.1-0.5l2.5-1.4
						c0.3-0.1,0.6-0.2,0.8,0l2.6,1.5C131.6,115.4,131.6,115.6,131.4,115.8z"/>
					<path fill="#42E8E0" d="M136.2,113l-2.5,1.4c-0.3,0.1-0.6,0.2-0.8,0l-2.6-1.5c-0.2-0.1-0.2-0.3,0.1-0.5l2.5-1.4
						c0.3-0.1,0.6-0.2,0.8,0l2.6,1.5C136.5,112.6,136.5,112.8,136.2,113z"/>
					<path fill="#42E8E0" d="M131.9,110.4l-2.5,1.4c-0.3,0.1-0.6,0.2-0.8,0l-2.6-1.5c-0.2-0.1-0.2-0.3,0.1-0.5l2.5-1.4
						c0.3-0.1,0.6-0.2,0.8,0l2.6,1.5C132.2,110.1,132.2,110.3,131.9,110.4z"/>
					<path fill="#42E8E0" d="M141.2,110.1l-2.5,1.4c-0.3,0.1-0.6,0.2-0.8,0l-2.6-1.5c-0.2-0.1-0.2-0.3,0.1-0.5l2.5-1.4
						c0.3-0.1,0.6-0.2,0.8,0l2.6,1.5C141.5,109.7,141.5,109.9,141.2,110.1z"/>
				</g>
				<g>
					<path fill="#42E8E0" d="M76.6,147.4l-4.7,2.7c-0.3,0.1-0.6,0.2-0.8,0l-2.6-1.5c-0.2-0.1-0.2-0.3,0.1-0.5l4.7-2.7
						c0.3-0.1,0.6-0.2,0.8,0l2.6,1.5C76.8,147.1,76.8,147.3,76.6,147.4z"/>
					<path fill="#42E8E0" d="M83.7,143.3L79,146c-0.3,0.1-0.6,0.2-0.8,0l-2.6-1.5c-0.2-0.1-0.2-0.3,0.1-0.5l4.7-2.7
						c0.3-0.1,0.6-0.2,0.8,0l2.6,1.5C84,142.9,83.9,143.2,83.7,143.3z"/>
					<path fill="#42E8E0" d="M119.4,122.7l-4.7,2.7c-0.3,0.1-0.6,0.2-0.8,0l-2.6-1.5c-0.2-0.1-0.2-0.3,0.1-0.5l4.7-2.7
						c0.3-0.1,0.6-0.2,0.8,0l2.6,1.5C119.7,122.3,119.7,122.5,119.4,122.7z"/>
					<path fill="#42E8E0" d="M126.6,118.5l-4.7,2.7c-0.3,0.1-0.6,0.2-0.8,0l-2.6-1.5c-0.2-0.1-0.2-0.3,0.1-0.5l4.7-2.7
						c0.3-0.1,0.6-0.2,0.8,0l2.6,1.5C126.8,118.2,126.8,118.4,126.6,118.5z"/>
					<path fill="#42E8E0" d="M59.9,130.4l-2.5,1.4c-0.3,0.1-0.6,0.2-0.8,0l-2.6-1.5c-0.2-0.1-0.2-0.3,0.1-0.5l2.5-1.4
						c0.3-0.1,0.6-0.2,0.8,0l2.6,1.5C60.2,130.1,60.2,130.3,59.9,130.4z"/>
					<path fill="#42E8E0" d="M123,99.5l-69.4,40.1c-0.3,0.1-0.6,0.2-0.8,0l-2.6-1.5c-0.2-0.1-0.2-0.3,0.1-0.5l69.4-40.1
						c0.3-0.1,0.6-0.2,0.8,0l2.6,1.5C123.2,99.2,123.2,99.4,123,99.5z"/>
					<path fill="#42E8E0" d="M127.6,102.2l-69.4,40.1c-0.3,0.1-0.6,0.2-0.8,0l-2.6-1.5c-0.2-0.1-0.2-0.3,0.1-0.5l69.4-40.1
						c0.3-0.1,0.6-0.2,0.8,0l2.6,1.5C127.9,101.9,127.8,102.1,127.6,102.2z"/>
					<path fill="#42E8E0" d="M132.2,104.9L62.9,145c-0.3,0.1-0.6,0.2-0.8,0l-2.6-1.5c-0.2-0.1-0.2-0.3,0.1-0.5l69.4-40.1
						c0.3-0.1,0.6-0.2,0.8,0l2.6,1.5C132.5,104.5,132.5,104.8,132.2,104.9z"/>
					<path fill="#42E8E0" d="M127,113.3l-59.5,34.4c-0.3,0.1-0.6,0.2-0.8,0l-2.6-1.5c-0.2-0.1-0.2-0.3,0.1-0.5l59.5-34.4
						c0.3-0.1,0.6-0.2,0.8,0l2.6,1.5C127.3,112.9,127.3,113.1,127,113.3z"/>
					<path fill="#42E8E0" d="M64.5,127.8l-2.5,1.4c-0.3,0.1-0.6,0.2-0.8,0l-2.6-1.5c-0.2-0.1-0.2-0.3,0.1-0.5l2.5-1.4
						c0.3-0.1,0.6-0.2,0.8,0l2.6,1.5C64.8,127.4,64.8,127.6,64.5,127.8z"/>
					<path fill="#42E8E0" d="M69.2,125.1l-2.5,1.4c-0.3,0.1-0.6,0.2-0.8,0l-2.6-1.5c-0.2-0.1-0.2-0.3,0.1-0.5l2.5-1.4
						c0.3-0.1,0.6-0.2,0.8,0l2.6,1.5C69.4,124.7,69.4,124.9,69.2,125.1z"/>
					<path fill="#42E8E0" d="M73.8,122.4l-2.5,1.4c-0.3,0.1-0.6,0.2-0.8,0l-2.6-1.5c-0.2-0.1-0.2-0.3,0.1-0.5l2.5-1.4
						c0.3-0.1,0.6-0.2,0.8,0l2.6,1.5C74.1,122.1,74,122.3,73.8,122.4z"/>
					<path fill="#42E8E0" d="M84.4,116.3l-2.5,1.4c-0.3,0.1-0.6,0.2-0.8,0l-2.6-1.5c-0.2-0.1-0.2-0.3,0.1-0.5l2.5-1.4
						c0.3-0.1,0.6-0.2,0.8,0l2.6,1.5C84.7,115.9,84.7,116.1,84.4,116.3z"/>
					<path fill="#42E8E0" d="M89,113.6l-2.5,1.4c-0.3,0.1-0.6,0.2-0.8,0l-2.6-1.5c-0.2-0.1-0.2-0.3,0.1-0.5l2.5-1.4
						c0.3-0.1,0.6-0.2,0.8,0l2.6,1.5C89.3,113.2,89.3,113.5,89,113.6z"/>
					<path fill="#42E8E0" d="M93.7,110.9l-2.5,1.4c-0.3,0.1-0.6,0.2-0.8,0l-2.6-1.5c-0.2-0.1-0.2-0.3,0.1-0.5l2.5-1.4
						c0.3-0.1,0.6-0.2,0.8,0l2.6,1.5C93.9,110.6,93.9,110.8,93.7,110.9z"/>
					<path fill="#42E8E0" d="M98.3,108.3l-2.5,1.4c-0.3,0.1-0.6,0.2-0.8,0l-2.6-1.5c-0.2-0.1-0.2-0.3,0.1-0.5l2.5-1.4
						c0.3-0.1,0.6-0.2,0.8,0l2.6,1.5C98.6,107.9,98.5,108.1,98.3,108.3z"/>
					<path fill="#42E8E0" d="M108.9,102.1l-2.5,1.4c-0.3,0.1-0.6,0.2-0.8,0l-2.6-1.5c-0.2-0.1-0.2-0.3,0.1-0.5l2.5-1.4
						c0.3-0.1,0.6-0.2,0.8,0l2.6,1.5C109.2,101.8,109.2,102,108.9,102.1z"/>
					<path fill="#42E8E0" d="M136.7,107.5l-2.5,1.4c-0.3,0.1-0.6,0.2-0.8,0l-2.6-1.5c-0.2-0.1-0.2-0.3,0.1-0.5l2.5-1.4
						c0.3-0.1,0.6-0.2,0.8,0l2.6,1.5C137,107.1,137,107.3,136.7,107.5z"/>
					<path fill="#42E8E0" d="M113.5,99.5l-2.5,1.4c-0.3,0.1-0.6,0.2-0.8,0l-2.6-1.5c-0.2-0.1-0.2-0.3,0.1-0.5l2.5-1.4
						c0.3-0.1,0.6-0.2,0.8,0l2.6,1.5C113.8,99.1,113.8,99.3,113.5,99.5z"/>
					<path fill="#42E8E0" d="M118.2,96.8l-2.5,1.4c-0.3,0.1-0.6,0.2-0.8,0l-2.6-1.5c-0.2-0.1-0.2-0.3,0.1-0.5l2.5-1.4
						c0.3-0.1,0.6-0.2,0.8,0l2.6,1.5C118.4,96.4,118.4,96.7,118.2,96.8z"/>
				</g>
			</g>
			<radialGradient id="SVGID_14_" cx="48.1803" cy="38.5161" r="105.1649" gradientUnits="userSpaceOnUse">
				<stop  offset="0" style="stop-color:#42E8E0"/>
				<stop  offset="0.1022" style="stop-color:#3CCACE"/>
				<stop  offset="0.3445" style="stop-color:#2F87A5"/>
				<stop  offset="0.564" style="stop-color:#255385"/>
				<stop  offset="0.7534" style="stop-color:#1E2D6E"/>
				<stop  offset="0.905" style="stop-color:#1A1660"/>
				<stop  offset="1" style="stop-color:#180D5B"/>
			</radialGradient>
			<path opacity="0.6" fill="url(#SVGID_14_)" d="M21.6,135.6l128.9,2.8l32.5-18.8c0.9-0.5,1-1.3,0.2-1.8l-64-37
				c-0.8-0.5-2.2-0.4-3.1,0.1L21.6,135.6L21.6,135.6z"/>
			<g>
				<path opacity="0.2" fill="#FCCC6B" d="M177.6,120.6c0.2,0.1,0.2,0.4,0,0.5c-0.2,0.1-0.6,0.1-0.9,0c-0.2-0.1-0.2-0.4,0-0.5
					C176.9,120.5,177.3,120.5,177.6,120.6z"/>
				<path opacity="0.6" fill="#FCCC6B" d="M178.9,119.8c0.2,0.1,0.2,0.4,0,0.5c-0.2,0.1-0.6,0.1-0.9,0c-0.2-0.1-0.2-0.4,0-0.5
					C178.3,119.7,178.7,119.7,178.9,119.8z"/>
				<path fill="#FCCC6B" d="M180.3,119c0.2,0.1,0.2,0.4,0,0.5c-0.2,0.1-0.6,0.1-0.9,0c-0.2-0.1-0.2-0.4,0-0.5
					C179.7,118.9,180,118.9,180.3,119z"/>
			</g>
			<g>
				<path fill="#42E8E0" d="M46.7,76.5c-0.1,0-0.2,0-0.3-0.1c-0.2-0.1-0.3-0.3-0.4-0.6l-0.6-5.2c-0.1-0.5,0.2-1.1,0.6-1.3l34.7-20
					c0.2-0.1,0.4-0.1,0.6,0c0.2,0.1,0.3,0.3,0.4,0.6l0.6,5.2c0.1,0.5-0.2,1.1-0.6,1.3l-34.7,20C47,76.4,46.9,76.5,46.7,76.5z
					 M81.2,49.5c-0.1,0-0.1,0-0.2,0.1l-34.7,20c-0.3,0.2-0.5,0.6-0.4,1l0.6,5.2c0,0.2,0.1,0.3,0.2,0.3c0.1,0,0.2,0,0.3,0l34.7-20
					c0.3-0.2,0.5-0.6,0.4-1l-0.6-5.2C81.4,49.7,81.4,49.5,81.2,49.5C81.2,49.5,81.2,49.5,81.2,49.5z"/>
				<path fill="#42E8E0" d="M48,86.5c-0.1,0-0.2,0-0.3-0.1c-0.2-0.1-0.3-0.3-0.4-0.6l-0.6-5.2c-0.1-0.5,0.2-1.1,0.6-1.3l34.7-20
					c0.2-0.1,0.4-0.1,0.6,0c0.2,0.1,0.3,0.3,0.4,0.6l0.6,5.2c0.1,0.5-0.2,1.1-0.6,1.3l-34.7,20C48.2,86.5,48.1,86.5,48,86.5z
					 M82.4,59.6c-0.1,0-0.1,0-0.2,0.1l-34.7,20c-0.3,0.2-0.5,0.6-0.4,1l0.6,5.2c0,0.2,0.1,0.3,0.2,0.3c0.1,0,0.2,0,0.3,0l34.7-20
					c0.3-0.2,0.5-0.6,0.4-1l-0.6-5.2C82.6,59.7,82.6,59.6,82.4,59.6C82.4,59.6,82.4,59.6,82.4,59.6z"/>
				<path fill="#42E8E0" d="M84.2,76.4l-34.7,20c-0.3,0.2-0.7,0-0.7-0.4l-0.6-5.2c-0.1-0.4,0.2-0.9,0.5-1.1l34.7-20
					c0.3-0.2,0.7,0,0.7,0.4l0.6,5.2C84.7,75.6,84.5,76.2,84.2,76.4z"/>
				<g>
					<path fill="#42E8E0" d="M51.1,81.2c0.1,0.5-0.2,1-0.6,1.3c-0.4,0.3-0.9,0.1-0.9-0.4c-0.1-0.5,0.2-1,0.6-1.3
						C50.6,80.6,51,80.7,51.1,81.2z"/>
					<path fill="#42E8E0" d="M53.7,79.7c0.1,0.5-0.2,1-0.6,1.3c-0.4,0.3-0.9,0.1-0.9-0.4c-0.1-0.5,0.2-1,0.6-1.3
						C53.2,79,53.6,79.2,53.7,79.7z"/>
					<path fill="#42E8E0" d="M56.3,78.2c0.1,0.5-0.2,1-0.6,1.3c-0.4,0.3-0.9,0.1-0.9-0.4c-0.1-0.5,0.2-1,0.6-1.3
						C55.8,77.5,56.2,77.7,56.3,78.2z"/>
					<path fill="#42E8E0" d="M58.9,76.7c0.1,0.5-0.2,1-0.6,1.3c-0.4,0.3-0.9,0.1-0.9-0.4s0.2-1,0.6-1.3C58.4,76,58.8,76.2,58.9,76.7
						z"/>
					<path fill="#42E8E0" d="M61.5,75.2c0.1,0.5-0.2,1-0.6,1.3c-0.4,0.3-0.9,0.1-0.9-0.4c-0.1-0.5,0.2-1,0.6-1.3
						C61,74.5,61.4,74.7,61.5,75.2z"/>
					<path fill="#42E8E0" d="M64.1,73.7c0.1,0.5-0.2,1-0.6,1.3c-0.4,0.3-0.9,0.1-0.9-0.4c-0.1-0.5,0.2-1,0.6-1.3
						C63.6,73,64,73.2,64.1,73.7z"/>
					<path fill="#42E8E0" d="M66.7,72.1c0.1,0.5-0.2,1-0.6,1.3c-0.4,0.3-0.9,0.1-0.9-0.4c-0.1-0.5,0.2-1,0.6-1.3
						C66.2,71.5,66.7,71.7,66.7,72.1z"/>
				</g>
			</g>
			<g>
				<g>
					<defs>
						<path id="SVGID_17_" d="M115.2,81.3l0.8-0.5c0.1,0,0.2,0,0.2,0.1c0,0.1,0,0.2-0.1,0.2l-0.8,0.5L115.2,81.3z"/>
					</defs>
					<clipPath id="SVGID_15_">
						<use xlink:href="#SVGID_17_"  overflow="visible"/>
					</clipPath>
					<g clip-path="url(#SVGID_15_)">
						
							<image overflow="visible" width="7" height="5" xlink:href="A42CF659.png"  transform="matrix(0.24 0 0 0.24 115.1755 80.4837)">
						</image>
					</g>
				</g>
				
					<image overflow="visible" width="395" height="229" xlink:href="A42CF65B.png"  transform="matrix(0.24 0 0 0.24 21.4959 80.8173)">
				</image>
				<g>
					<defs>
						<path id="SVGID_19_" d="M22.5,135.3l-0.3,0.2c-0.1,0-0.2,0-0.2-0.1c0-0.1,0-0.2,0.1-0.2l0.3-0.2L22.5,135.3z"/>
					</defs>
					<clipPath id="SVGID_16_">
						<use xlink:href="#SVGID_19_"  overflow="visible"/>
					</clipPath>
					<g clip-path="url(#SVGID_16_)">
						
							<image overflow="visible" width="7" height="5" xlink:href="A42CF65E.png"  transform="matrix(0.24 0 0 0.24 20.9189 134.9775)">
						</image>
					</g>
				</g>
			</g>
		</g>
		<g>
			<path opacity="0.3" fill="#0B0244" d="M122.4,203.3l-20.3-11.7c-0.8-0.4-0.7-1.2,0.2-1.7l38.9-22.5c0.9-0.5,2.2-0.6,3-0.1
				l20.3,11.7c0.8,0.4,0.7,1.2-0.2,1.7l-38.9,22.5C124.5,203.7,123.2,203.7,122.4,203.3z"/>
			<g>
				<path fill="#312A91" d="M161.4,169.2l-2.7,0.5l-19-11c-0.8-0.5-2.2-0.4-3.1,0.1L100,180l-4.7,0.8v1.5l0,0c0,0.3,0.2,0.6,0.5,0.8
					l21.2,12.2c0.8,0.5,2.2,0.4,3.1-0.1l40.6-23.4c0.5-0.3,0.8-0.7,0.8-1l0,0V169.2z"/>
				<radialGradient id="SVGID_18_" cx="85.2636" cy="182.2563" r="52.0649" gradientUnits="userSpaceOnUse">
					<stop  offset="0" style="stop-color:#42E8E0"/>
					<stop  offset="1.567662e-002" style="stop-color:#40D8D7"/>
					<stop  offset="6.066751e-002" style="stop-color:#3AAFC0"/>
					<stop  offset="0.1112" style="stop-color:#3589AC"/>
					<stop  offset="0.1662" style="stop-color:#30699A"/>
					<stop  offset="0.227" style="stop-color:#2C4D8B"/>
					<stop  offset="0.2957" style="stop-color:#29377F"/>
					<stop  offset="0.3758" style="stop-color:#272675"/>
					<stop  offset="0.475" style="stop-color:#251B6F"/>
					<stop  offset="0.614" style="stop-color:#24146B"/>
					<stop  offset="1" style="stop-color:#24126A"/>
				</radialGradient>
				<path opacity="0.5" fill="url(#SVGID_18_)" d="M161.4,169.2l-2.7,0.5l-19-11c-0.8-0.5-2.2-0.4-3.1,0.1L100,180l-4.7,0.8v1.5l0,0
					c0,0.3,0.2,0.6,0.5,0.8l21.2,12.2c0.8,0.5,2.2,0.4,3.1-0.1l40.6-23.4c0.5-0.3,0.8-0.7,0.8-1l0,0V169.2z"/>
				<radialGradient id="SVGID_20_" cx="118.4865" cy="197.407" r="92.2646" gradientUnits="userSpaceOnUse">
					<stop  offset="0" style="stop-color:#42E8E0"/>
					<stop  offset="0.1022" style="stop-color:#3CCACE"/>
					<stop  offset="0.3445" style="stop-color:#2F87A5"/>
					<stop  offset="0.564" style="stop-color:#255385"/>
					<stop  offset="0.7534" style="stop-color:#1E2D6E"/>
					<stop  offset="0.905" style="stop-color:#1A1660"/>
					<stop  offset="1" style="stop-color:#180D5B"/>
				</radialGradient>
				<path fill="url(#SVGID_20_)" d="M160.6,170.9L120,194.3c-0.9,0.5-2.3,0.6-3.1,0.1l-21.2-12.2c-0.4-0.2-0.5-0.5-0.5-0.8l0,0v0.4
					l0,0c0,0.3,0.2,0.6,0.5,0.8l21.2,12.2c0.8,0.5,2.2,0.4,3.1-0.1l40.6-23.4c0.5-0.3,0.8-0.7,0.8-1l0,0v-0.4l0,0
					C161.4,170.2,161.1,170.6,160.6,170.9z"/>
				<path fill="#312A91" d="M116.9,193.8l-21.2-12.2c-0.8-0.5-0.7-1.3,0.2-1.8l40.6-23.4c0.9-0.5,2.3-0.6,3.1-0.1l21.2,12.2
					c0.8,0.5,0.7,1.3-0.2,1.8L120,193.7C119.1,194.2,117.7,194.3,116.9,193.8z"/>
				<linearGradient id="SVGID_21_" gradientUnits="userSpaceOnUse" x1="95.2158" y1="175.0113" x2="161.3826" y2="175.0113">
					<stop  offset="0" style="stop-color:#180D5B"/>
					<stop  offset="9.497968e-002" style="stop-color:#1A1660"/>
					<stop  offset="0.2466" style="stop-color:#1E2D6E"/>
					<stop  offset="0.436" style="stop-color:#255385"/>
					<stop  offset="0.6555" style="stop-color:#2F87A5"/>
					<stop  offset="0.8978" style="stop-color:#3CCACE"/>
					<stop  offset="1" style="stop-color:#42E8E0"/>
				</linearGradient>
				<path opacity="0.7" fill="url(#SVGID_21_)" d="M116.9,193.8l-21.2-12.2c-0.8-0.5-0.7-1.3,0.2-1.8l40.6-23.4
					c0.9-0.5,2.3-0.6,3.1-0.1l21.2,12.2c0.8,0.5,0.7,1.3-0.2,1.8L120,193.7C119.1,194.2,117.7,194.3,116.9,193.8z"/>
			</g>
			<g opacity="0.4">
				<radialGradient id="SVGID_22_" cx="94.5593" cy="181.6067" r="26.6362" gradientUnits="userSpaceOnUse">
					<stop  offset="0" style="stop-color:#42E8E0"/>
					<stop  offset="0.1022" style="stop-color:#3CCACE"/>
					<stop  offset="0.3445" style="stop-color:#2F87A5"/>
					<stop  offset="0.564" style="stop-color:#255385"/>
					<stop  offset="0.7534" style="stop-color:#1E2D6E"/>
					<stop  offset="0.905" style="stop-color:#1A1660"/>
					<stop  offset="1" style="stop-color:#180D5B"/>
				</radialGradient>
				<path opacity="0.5" fill="url(#SVGID_22_)" d="M161.4,168.9l-2.7,0.5l-19-11c-0.8-0.5-2.2-0.4-3.1,0.1L100,179.7l-4.7,0.8v0.3
					l0,0c0,0.3,0.2,0.6,0.5,0.8l21.2,12.2c0.8,0.5,2.2,0.4,3.1-0.1l40.6-23.4c0.5-0.3,0.8-0.7,0.8-1l0,0V168.9z"/>
				<radialGradient id="SVGID_23_" cx="96.0512" cy="175.0331" r="54.971" gradientUnits="userSpaceOnUse">
					<stop  offset="0" style="stop-color:#42E8E0"/>
					<stop  offset="0.1022" style="stop-color:#3CCACE"/>
					<stop  offset="0.3445" style="stop-color:#2F87A5"/>
					<stop  offset="0.564" style="stop-color:#255385"/>
					<stop  offset="0.7534" style="stop-color:#1E2D6E"/>
					<stop  offset="0.905" style="stop-color:#1A1660"/>
					<stop  offset="1" style="stop-color:#180D5B"/>
				</radialGradient>
				<path opacity="0.7" fill="url(#SVGID_23_)" d="M116.9,193.5l-21.2-12.2c-0.8-0.5-0.7-1.3,0.2-1.8l40.6-23.4
					c0.9-0.5,2.3-0.6,3.1-0.1l21.2,12.2c0.8,0.5,0.7,1.3-0.2,1.8L120,193.4C119.1,193.9,117.7,193.9,116.9,193.5z"/>
				<path fill="#312A91" d="M116.9,193.5l-21.2-12.2c-0.8-0.5-0.7-1.3,0.2-1.8l40.6-23.4c0.9-0.5,2.3-0.6,3.1-0.1l21.2,12.2
					c0.8,0.5,0.7,1.3-0.2,1.8L120,193.4C119.1,193.9,117.7,193.9,116.9,193.5z"/>
			</g>
			<g>
				<g>
					<g>
						<path fill="#180D5B" d="M111.8,191.6c0,0.2-0.1,0.2-0.2,0.1c-0.1-0.1-0.2-0.3-0.2-0.4c0-0.2,0.1-0.2,0.2-0.1
							C111.7,191.3,111.8,191.5,111.8,191.6z"/>
						<path fill="#180D5B" d="M112.7,192.2c0,0.2-0.1,0.2-0.2,0.1c-0.1-0.1-0.2-0.3-0.2-0.4s0.1-0.2,0.2-0.1
							C112.6,191.8,112.7,192,112.7,192.2z"/>
						<path fill="#180D5B" d="M113.6,192.7c0,0.2-0.1,0.2-0.2,0.1c-0.1-0.1-0.2-0.3-0.2-0.4c0-0.2,0.1-0.2,0.2-0.1
							S113.6,192.6,113.6,192.7z"/>
					</g>
					<g>
						<path fill="#180D5B" d="M98.9,184.2c0,0.2-0.1,0.2-0.2,0.1c-0.1-0.1-0.2-0.3-0.2-0.4s0.1-0.2,0.2-0.1
							C98.8,183.8,98.9,184,98.9,184.2z"/>
						<path fill="#180D5B" d="M99.8,184.7c0,0.2-0.1,0.2-0.2,0.1c-0.1-0.1-0.2-0.3-0.2-0.4c0-0.2,0.1-0.2,0.2-0.1
							C99.7,184.4,99.8,184.6,99.8,184.7z"/>
						<path fill="#180D5B" d="M100.7,185.3c0,0.2-0.1,0.2-0.2,0.1c-0.1-0.1-0.2-0.3-0.2-0.4s0.1-0.2,0.2-0.1
							C100.6,184.9,100.7,185.1,100.7,185.3z"/>
					</g>
				</g>
			</g>
			<radialGradient id="SVGID_24_" cx="100.4121" cy="177.6726" r="44.9868" gradientUnits="userSpaceOnUse">
				<stop  offset="0" style="stop-color:#42E8E0"/>
				<stop  offset="0.1022" style="stop-color:#3CCACE"/>
				<stop  offset="0.3445" style="stop-color:#2F87A5"/>
				<stop  offset="0.564" style="stop-color:#255385"/>
				<stop  offset="0.7534" style="stop-color:#1E2D6E"/>
				<stop  offset="0.905" style="stop-color:#1A1660"/>
				<stop  offset="1" style="stop-color:#180D5B"/>
			</radialGradient>
			<path opacity="0.5" fill="url(#SVGID_24_)" d="M116.9,193.5l-21.2-12.2c-0.8-0.5-0.7-1.3,0.2-1.8l40.6-23.4
				c0.9-0.5,2.3-0.6,3.1-0.1l21.2,12.2c0.8,0.5,0.7,1.3-0.2,1.8L120,193.4C119.1,193.9,117.7,193.9,116.9,193.5z"/>
			<radialGradient id="SVGID_25_" cx="94.5593" cy="177.9021" r="63.59" gradientUnits="userSpaceOnUse">
				<stop  offset="0" style="stop-color:#42E8E0"/>
				<stop  offset="0.1022" style="stop-color:#3CCACE"/>
				<stop  offset="0.3445" style="stop-color:#2F87A5"/>
				<stop  offset="0.564" style="stop-color:#255385"/>
				<stop  offset="0.7534" style="stop-color:#1E2D6E"/>
				<stop  offset="0.905" style="stop-color:#1A1660"/>
				<stop  offset="1" style="stop-color:#180D5B"/>
			</radialGradient>
			<path opacity="0.5" fill="url(#SVGID_25_)" d="M116.9,193.5l-21.2-12.2c-0.8-0.5-0.7-1.3,0.2-1.8l40.6-23.4
				c0.9-0.5,2.3-0.6,3.1-0.1l21.2,12.2c0.8,0.5,0.7,1.3-0.2,1.8L120,193.4C119.1,193.9,117.7,193.9,116.9,193.5z"/>
			<radialGradient id="SVGID_26_" cx="94.559" cy="177.6722" r="84.958" gradientUnits="userSpaceOnUse">
				<stop  offset="0" style="stop-color:#42E8E0"/>
				<stop  offset="0.1022" style="stop-color:#3CCACE"/>
				<stop  offset="0.3445" style="stop-color:#2F87A5"/>
				<stop  offset="0.564" style="stop-color:#255385"/>
				<stop  offset="0.7534" style="stop-color:#1E2D6E"/>
				<stop  offset="0.905" style="stop-color:#1A1660"/>
				<stop  offset="1" style="stop-color:#180D5B"/>
			</radialGradient>
			<path opacity="0.9" fill="url(#SVGID_26_)" d="M117.3,193.5l-21.2-12.2c-0.9-0.5-1-1.1,0.2-1.8l40.6-23.4
				c0.4-0.2,0.9-0.4,1.4-0.4c-0.6,0-1.3,0.1-1.8,0.4L96,179.5c-0.9,0.5-1,1.3-0.2,1.8l21.2,12.2c0.4,0.3,1.1,0.3,1.7,0.3
				C118.1,193.8,117.7,193.7,117.3,193.5z"/>
			<path fill="#180D5B" d="M107.1,188.9L107.1,188.9c0,0.2-0.1,0.3-0.3,0.2l-1.7-1c-0.1-0.1-0.3-0.3-0.3-0.5l0,0
				c0-0.2,0.1-0.3,0.3-0.2l1.7,1C107,188.5,107.1,188.8,107.1,188.9z"/>
			<g>
				<path opacity="0.2" fill="#FCCC6B" d="M155.2,170.9c0.2,0.1,0.2,0.4,0,0.5s-0.6,0.1-0.9,0c-0.2-0.1-0.2-0.4,0-0.5
					C154.6,170.8,155,170.8,155.2,170.9z"/>
				<path opacity="0.6" fill="#FCCC6B" d="M156.6,170.1c0.2,0.1,0.2,0.4,0,0.5c-0.2,0.1-0.6,0.1-0.9,0c-0.2-0.1-0.2-0.4,0-0.5
					C155.9,170,156.3,170,156.6,170.1z"/>
				<path fill="#FCCC6B" d="M157.9,169.3c0.2,0.1,0.2,0.4,0,0.5c-0.2,0.1-0.6,0.1-0.9,0s-0.2-0.4,0-0.5S157.7,169.2,157.9,169.3z"/>
			</g>
		</g>
		<g>
			<path opacity="0.3" fill="#0B0244" d="M218.2,198.8L152.9,161c-0.8-0.4-0.7-1.2,0.2-1.7l38.9-22.5c0.9-0.5,2.2-0.6,3-0.1
				l65.3,37.7c0.8,0.4,0.7,1.2-0.2,1.7l-38.9,22.5C220.3,199.1,219,199.2,218.2,198.8z"/>
			<g>
				<path fill="#312A91" d="M257.2,164.7l-2.7,0.5l-64-37c-0.8-0.5-2.2-0.4-3.1,0.1l-36.6,21.1l-4.7,0.8v1.5l0,0
					c0,0.3,0.2,0.6,0.5,0.8l66.2,38.2c0.8,0.5,2.2,0.4,3.1-0.1l40.6-23.4c0.5-0.3,0.8-0.7,0.8-1l0,0V164.7z"/>
				<radialGradient id="SVGID_27_" cx="129.3097" cy="168.3547" r="87.4881" gradientUnits="userSpaceOnUse">
					<stop  offset="0" style="stop-color:#42E8E0"/>
					<stop  offset="1.567662e-002" style="stop-color:#40D8D7"/>
					<stop  offset="6.066751e-002" style="stop-color:#3AAFC0"/>
					<stop  offset="0.1112" style="stop-color:#3589AC"/>
					<stop  offset="0.1662" style="stop-color:#30699A"/>
					<stop  offset="0.227" style="stop-color:#2C4D8B"/>
					<stop  offset="0.2957" style="stop-color:#29377F"/>
					<stop  offset="0.3758" style="stop-color:#272675"/>
					<stop  offset="0.475" style="stop-color:#251B6F"/>
					<stop  offset="0.614" style="stop-color:#24146B"/>
					<stop  offset="1" style="stop-color:#24126A"/>
				</radialGradient>
				<path opacity="0.5" fill="url(#SVGID_27_)" d="M257.2,164.7l-2.7,0.5l-64-37c-0.8-0.5-2.2-0.4-3.1,0.1l-36.6,21.1l-4.7,0.8v1.5
					l0,0c0,0.3,0.2,0.6,0.5,0.8l66.2,38.2c0.8,0.5,2.2,0.4,3.1-0.1l40.6-23.4c0.5-0.3,0.8-0.7,0.8-1l0,0V164.7z"/>
				<radialGradient id="SVGID_28_" cx="185.119" cy="194.1618" r="154.9631" gradientUnits="userSpaceOnUse">
					<stop  offset="0" style="stop-color:#42E8E0"/>
					<stop  offset="0.1022" style="stop-color:#3CCACE"/>
					<stop  offset="0.3445" style="stop-color:#2F87A5"/>
					<stop  offset="0.564" style="stop-color:#255385"/>
					<stop  offset="0.7534" style="stop-color:#1E2D6E"/>
					<stop  offset="0.905" style="stop-color:#1A1660"/>
					<stop  offset="1" style="stop-color:#180D5B"/>
				</radialGradient>
				<path fill="url(#SVGID_28_)" d="M256.4,166.3l-40.6,23.4c-0.9,0.5-2.3,0.6-3.1,0.1l-66.2-38.2c-0.4-0.2-0.5-0.5-0.5-0.8l0,0v0.4
					l0,0c0,0.3,0.2,0.6,0.5,0.8l66.2,38.2c0.8,0.5,2.2,0.4,3.1-0.1l40.6-23.4c0.5-0.3,0.8-0.7,0.8-1l0,0v-0.4l0,0
					C257.2,165.7,256.9,166,256.4,166.3z"/>
				<path fill="#312A91" d="M212.7,189.3L146.6,151c-0.8-0.5-0.7-1.3,0.2-1.8l40.6-23.4c0.9-0.5,2.3-0.6,3.1-0.1l66.2,38.2
					c0.8,0.5,0.7,1.3-0.2,1.8l-40.6,23.4C214.9,189.7,213.5,189.7,212.7,189.3z"/>
				<linearGradient id="SVGID_29_" gradientUnits="userSpaceOnUse" x1="146.0282" y1="157.4799" x2="257.1775" y2="157.4799">
					<stop  offset="0" style="stop-color:#180D5B"/>
					<stop  offset="9.497968e-002" style="stop-color:#1A1660"/>
					<stop  offset="0.2466" style="stop-color:#1E2D6E"/>
					<stop  offset="0.436" style="stop-color:#255385"/>
					<stop  offset="0.6555" style="stop-color:#2F87A5"/>
					<stop  offset="0.8978" style="stop-color:#3CCACE"/>
					<stop  offset="1" style="stop-color:#42E8E0"/>
				</linearGradient>
				<path opacity="0.7" fill="url(#SVGID_29_)" d="M212.7,189.3L146.6,151c-0.8-0.5-0.7-1.3,0.2-1.8l40.6-23.4
					c0.9-0.5,2.3-0.6,3.1-0.1l66.2,38.2c0.8,0.5,0.7,1.3-0.2,1.8l-40.6,23.4C214.9,189.7,213.5,189.7,212.7,189.3z"/>
			</g>
			<g opacity="0.4">
				<radialGradient id="SVGID_30_" cx="144.9251" cy="168.0482" r="44.7824" gradientUnits="userSpaceOnUse">
					<stop  offset="0" style="stop-color:#42E8E0"/>
					<stop  offset="0.1022" style="stop-color:#3CCACE"/>
					<stop  offset="0.3445" style="stop-color:#2F87A5"/>
					<stop  offset="0.564" style="stop-color:#255385"/>
					<stop  offset="0.7534" style="stop-color:#1E2D6E"/>
					<stop  offset="0.905" style="stop-color:#1A1660"/>
					<stop  offset="1" style="stop-color:#180D5B"/>
				</radialGradient>
				<path opacity="0.5" fill="url(#SVGID_30_)" d="M257.2,164.4l-2.7,0.5l-64-37c-0.8-0.5-2.2-0.4-3.1,0.1l-36.6,21.1L146,150v0.3
					l0,0c0,0.3,0.2,0.6,0.5,0.8l66.2,38.2c0.8,0.5,2.2,0.4,3.1-0.1l40.6-23.4c0.5-0.3,0.8-0.7,0.8-1l0,0V164.4z"/>
				<radialGradient id="SVGID_31_" cx="147.4315" cy="157.7358" r="92.3436" gradientUnits="userSpaceOnUse">
					<stop  offset="0" style="stop-color:#42E8E0"/>
					<stop  offset="0.1022" style="stop-color:#3CCACE"/>
					<stop  offset="0.3445" style="stop-color:#2F87A5"/>
					<stop  offset="0.564" style="stop-color:#255385"/>
					<stop  offset="0.7534" style="stop-color:#1E2D6E"/>
					<stop  offset="0.905" style="stop-color:#1A1660"/>
					<stop  offset="1" style="stop-color:#180D5B"/>
				</radialGradient>
				<path opacity="0.7" fill="url(#SVGID_31_)" d="M212.7,188.9l-66.2-38.2c-0.8-0.5-0.7-1.3,0.2-1.8l40.6-23.4
					c0.9-0.5,2.3-0.6,3.1-0.1l66.2,38.2c0.8,0.5,0.7,1.3-0.2,1.8l-40.6,23.4C214.9,189.3,213.5,189.4,212.7,188.9z"/>
				<path fill="#312A91" d="M212.7,188.9l-66.2-38.2c-0.8-0.5-0.7-1.3,0.2-1.8l40.6-23.4c0.9-0.5,2.3-0.6,3.1-0.1l66.2,38.2
					c0.8,0.5,0.7,1.3-0.2,1.8l-40.6,23.4C214.9,189.3,213.5,189.4,212.7,188.9z"/>
			</g>
			<radialGradient id="SVGID_32_" cx="154.7572" cy="162.1708" r="75.5714" gradientUnits="userSpaceOnUse">
				<stop  offset="0" style="stop-color:#42E8E0"/>
				<stop  offset="0.1022" style="stop-color:#3CCACE"/>
				<stop  offset="0.3445" style="stop-color:#2F87A5"/>
				<stop  offset="0.564" style="stop-color:#255385"/>
				<stop  offset="0.7534" style="stop-color:#1E2D6E"/>
				<stop  offset="0.905" style="stop-color:#1A1660"/>
				<stop  offset="1" style="stop-color:#180D5B"/>
			</radialGradient>
			<path opacity="0.5" fill="url(#SVGID_32_)" d="M212.7,188.9l-66.2-38.2c-0.8-0.5-0.7-1.3,0.2-1.8l40.6-23.4
				c0.9-0.5,2.3-0.6,3.1-0.1l66.2,38.2c0.8,0.5,0.7,1.3-0.2,1.8l-40.6,23.4C214.9,189.3,213.5,189.4,212.7,188.9z"/>
			<radialGradient id="SVGID_33_" cx="144.9254" cy="162.5564" r="106.8219" gradientUnits="userSpaceOnUse">
				<stop  offset="0" style="stop-color:#42E8E0"/>
				<stop  offset="0.1022" style="stop-color:#3CCACE"/>
				<stop  offset="0.3445" style="stop-color:#2F87A5"/>
				<stop  offset="0.564" style="stop-color:#255385"/>
				<stop  offset="0.7534" style="stop-color:#1E2D6E"/>
				<stop  offset="0.905" style="stop-color:#1A1660"/>
				<stop  offset="1" style="stop-color:#180D5B"/>
			</radialGradient>
			<path opacity="0.5" fill="url(#SVGID_33_)" d="M212.7,188.9l-66.2-38.2c-0.8-0.5-0.7-1.3,0.2-1.8l40.6-23.4
				c0.9-0.5,2.3-0.6,3.1-0.1l66.2,38.2c0.8,0.5,0.7,1.3-0.2,1.8l-40.6,23.4C214.9,189.3,213.5,189.4,212.7,188.9z"/>
			<radialGradient id="SVGID_34_" cx="111.5116" cy="133.6508" r="55.1068" gradientUnits="userSpaceOnUse">
				<stop  offset="0" style="stop-color:#42E8E0"/>
				<stop  offset="0.1022" style="stop-color:#3CCACE"/>
				<stop  offset="0.3445" style="stop-color:#2F87A5"/>
				<stop  offset="0.564" style="stop-color:#255385"/>
				<stop  offset="0.7534" style="stop-color:#1E2D6E"/>
				<stop  offset="0.905" style="stop-color:#1A1660"/>
				<stop  offset="1" style="stop-color:#180D5B"/>
			</radialGradient>
			<path opacity="0.6" fill="url(#SVGID_34_)" d="M215.1,139.6l-24.6-14.2c-0.8-0.5-2.2-0.4-3.1,0.1l-22.8,13.2L215.1,139.6z"/>
			<radialGradient id="SVGID_35_" cx="144.9875" cy="162.1704" r="135.6118" gradientUnits="userSpaceOnUse">
				<stop  offset="0" style="stop-color:#42E8E0"/>
				<stop  offset="0.1022" style="stop-color:#3CCACE"/>
				<stop  offset="0.3445" style="stop-color:#2F87A5"/>
				<stop  offset="0.564" style="stop-color:#255385"/>
				<stop  offset="0.7534" style="stop-color:#1E2D6E"/>
				<stop  offset="0.905" style="stop-color:#1A1660"/>
				<stop  offset="1" style="stop-color:#180D5B"/>
			</radialGradient>
			<path opacity="0.9" fill="url(#SVGID_35_)" d="M213.1,188.9l-66.2-38.2c-0.9-0.5-1-1.1,0.2-1.8l40.6-23.4
				c0.4-0.2,0.9-0.4,1.4-0.4c-0.6,0-1.3,0.1-1.8,0.4l-40.6,23.4c-0.9,0.5-1,1.3-0.2,1.8l66.2,38.2c0.4,0.3,1,0.3,1.7,0.3
				C213.9,189.2,213.4,189.1,213.1,188.9z"/>
			<g>
				<path opacity="0.2" fill="#FCCC6B" d="M251,166.4c0.2,0.1,0.2,0.4,0,0.5c-0.2,0.1-0.6,0.1-0.9,0c-0.2-0.1-0.2-0.4,0-0.5
					C250.4,166.2,250.8,166.2,251,166.4z"/>
				<path opacity="0.6" fill="#FCCC6B" d="M252.4,165.6c0.2,0.1,0.2,0.4,0,0.5c-0.2,0.1-0.6,0.1-0.9,0c-0.2-0.1-0.2-0.4,0-0.5
					C251.7,165.5,252.1,165.5,252.4,165.6z"/>
				<path fill="#FCCC6B" d="M253.7,164.8c0.2,0.1,0.2,0.4,0,0.5c-0.2,0.1-0.6,0.1-0.9,0s-0.2-0.4,0-0.5
					C253.1,164.7,253.5,164.7,253.7,164.8z"/>
			</g>
			<g>
				<g>
					<g>
						<g>
							<path fill="#180D5B" d="M230.5,181.5c0,0.2,0.1,0.2,0.3,0.1c0.1-0.1,0.3-0.3,0.3-0.4c0-0.2-0.1-0.2-0.3-0.1
								C230.7,181.1,230.5,181.3,230.5,181.5z"/>
							<path fill="#180D5B" d="M229.5,182.1c0,0.2,0.1,0.2,0.3,0.1c0.1-0.1,0.3-0.3,0.3-0.4s-0.1-0.2-0.3-0.1
								C229.6,181.7,229.5,181.9,229.5,182.1z"/>
							<path fill="#180D5B" d="M228.5,182.7c0,0.2,0.1,0.2,0.3,0.1c0.1-0.1,0.3-0.3,0.3-0.4s-0.1-0.2-0.3-0.1
								C228.6,182.3,228.5,182.5,228.5,182.7z"/>
						</g>
						<g>
							<path fill="#180D5B" d="M244.6,173.4c0,0.2,0.1,0.2,0.3,0.1c0.1-0.1,0.3-0.3,0.3-0.4s-0.1-0.2-0.3-0.1
								C244.7,173,244.6,173.2,244.6,173.4z"/>
							<path fill="#180D5B" d="M243.6,173.9c0,0.2,0.1,0.2,0.3,0.1c0.1-0.1,0.3-0.3,0.3-0.4s-0.1-0.2-0.3-0.1
								C243.7,173.6,243.6,173.8,243.6,173.9z"/>
							<path fill="#180D5B" d="M242.6,174.5c0,0.2,0.1,0.2,0.3,0.1c0.1-0.1,0.3-0.3,0.3-0.4c0-0.2-0.1-0.2-0.3-0.1
								C242.7,174.2,242.6,174.4,242.6,174.5z"/>
						</g>
					</g>
				</g>
				<path fill="#180D5B" d="M235.6,178.5L235.6,178.5c0,0.2,0.1,0.3,0.3,0.2l1.8-1c0.2-0.1,0.3-0.3,0.3-0.5l0,0
					c0-0.2-0.1-0.3-0.3-0.2l-1.8,1C235.8,178.1,235.6,178.3,235.6,178.5z"/>
			</g>
			<path fill="#42E8E0" d="M214.1,186.6c-0.6,0-1.1-0.1-1.5-0.4v0L146.4,148c-0.5-0.3-0.7-0.6-0.7-1.1c0-0.5,0.3-1,0.9-1.3
				l40.6-23.4c1-0.6,2.5-0.6,3.4-0.1l66.2,38.2c0.5,0.3,0.7,0.6,0.7,1.1c0,0.5-0.3,1-0.9,1.3L216,186.1
				C215.4,186.4,214.7,186.6,214.1,186.6z M212.9,185.6c0.7,0.4,2,0.3,2.8-0.1l40.6-23.4c0.4-0.2,0.6-0.5,0.6-0.7
				c0-0.2-0.2-0.4-0.4-0.5l-66.2-38.2c-0.7-0.4-2-0.3-2.8,0.1L147,146.2c-0.4,0.2-0.6,0.5-0.6,0.7c0,0.2,0.2,0.4,0.4,0.5
				L212.9,185.6z"/>
			<path opacity="0.8" fill="#42E8E0" d="M214.1,177.5c-0.6,0-1.1-0.1-1.5-0.4v0l-66.2-38.2c-0.5-0.3-0.7-0.6-0.7-1.1
				c0-0.5,0.3-1,0.9-1.3l40.6-23.4c1-0.6,2.5-0.6,3.4-0.1l66.2,38.2c0.5,0.3,0.7,0.6,0.7,1.1c0,0.5-0.3,1-0.9,1.3L216,177
				C215.4,177.3,214.7,177.5,214.1,177.5z M212.9,176.6c0.7,0.4,1.9,0.3,2.8-0.1l40.6-23.4c0.4-0.2,0.6-0.5,0.6-0.7
				c0-0.2-0.2-0.4-0.4-0.5l-66.2-38.2c-0.7-0.4-1.9-0.3-2.8,0.1L147,137.1c-0.4,0.2-0.6,0.5-0.6,0.7c0,0.2,0.2,0.4,0.4,0.5
				L212.9,176.6z"/>
			<path opacity="0.5" fill="#42E8E0" d="M214.1,168.4c-0.6,0-1.1-0.1-1.5-0.4v0l-66.2-38.2c-0.5-0.3-0.7-0.6-0.7-1.1
				c0-0.5,0.3-1,0.9-1.3l40.6-23.4c1-0.6,2.5-0.6,3.4-0.1l66.2,38.2c0.5,0.3,0.7,0.6,0.7,1.1c0,0.5-0.3,1-0.9,1.3L216,168
				C215.4,168.3,214.7,168.4,214.1,168.4z M212.9,167.5c0.7,0.4,1.9,0.3,2.8-0.1l40.6-23.4c0.4-0.2,0.6-0.5,0.6-0.7
				c0-0.2-0.2-0.4-0.4-0.5l-66.2-38.2c-0.7-0.4-1.9-0.3-2.8,0.1L147,128.1c-0.4,0.2-0.6,0.5-0.6,0.7c0,0.2,0.2,0.4,0.4,0.5
				L212.9,167.5z"/>
			<path opacity="0.2" fill="#42E8E0" d="M212.7,167.8l-66.2-38.2c-0.8-0.5-0.7-1.3,0.2-1.8l40.6-23.4c0.9-0.5,2.3-0.6,3.1-0.1
				l66.2,38.2c0.8,0.5,0.7,1.3-0.2,1.8l-40.6,23.4C214.9,168.2,213.5,168.3,212.7,167.8z"/>
		</g>
	</g>
	<polygon fill="#42E8E0" points="122.7,175.8 126.1,177.7 122.7,179.6 119.4,177.7 	"/>
	<polygon fill="#42E8E0" points="134.6,169 137.9,170.9 129.3,175.8 126,173.9 	"/>
</g>
</svg>
