<?xml version="1.0" encoding="utf-8"?>
<!-- Generator: Adobe Illustrator 18.0.0, SVG Export Plug-In . SVG Version: 6.00 Build 0)  -->
<!DOCTYPE svg PUBLIC "-//W3C//DTD SVG 1.1//EN" "http://www.w3.org/Graphics/SVG/1.1/DTD/svg11.dtd">
<svg version="1.1" id="Layer_1" xmlns="http://www.w3.org/2000/svg" xmlns:xlink="http://www.w3.org/1999/xlink" x="0px" y="0px"
	 viewBox="0 0 1487 350" enable-background="new 0 0 1487 350" xml:space="preserve">
<g id="_x23_ffffffff">
</g>
<g id="_x23_000f30ff">
	<path fill="#FFFFFF" d="M76.7,49.7c27.8-23.4,63-37.7,99.2-40.5c31.7-2.7,64.2,3.6,92.5,18.3c28,14.5,51.9,37,68.4,63.8
		c18.5,30.7,27.1,67.1,24.1,102.8c-1.8,23.9-9,47.3-20.2,68.4c-3.2,5.5-6.5,11.6-12.4,14.7c1-13.6,6.2-26.6,7.4-40.2
		c3.4-33-3.4-67-19.9-95.8c-14.1-24.8-35.5-45.4-60.9-58.3c-22.7-11.6-48.4-16.9-73.8-16.4c2.4,7.5,4.8,15,7.1,22.5
		c-8,4.9-17.2,8.4-24.1,15c-6.6,7.6-10.1,17.2-15.3,25.8c-4.4-1.3-8.8-2.8-13.1-4.6c-19.6-8-38.5-17.7-58.2-25.7
		c-4.9-1.8-9.8-4.1-15.1-4.2c5.8,6.6,13.7,11,20.1,17.1c10.1,8.5,19.8,17.5,29.6,26.3c8.3,7,15,15.8,24.3,21.6
		c-9,19.6-17.8,39.3-27.1,58.8c-3.9,8.5-7.2,18.1-4.9,27.5c3.9,14.6,19.3,25.1,34.3,23c8.2-0.5,14.7-5.9,21.1-10.5
		c15.5-9.7,30.7-20.1,47.1-28.4c3.5,1.1,5.5,4.4,5.6,8c1.6,20.2-5.8,40.4-17.4,56.7c-9.6,12.3-21.8,23.1-36.6,28.4
		c-11.2,4.1-23.2,4.9-35,4.5c-19.6-2-37.8-11.7-52.6-24.3c-25.3-21.9-41.8-52.7-49.5-85c-8-33.5-5.2-69.2,6.9-101.4
		C38.5,91.3,55.2,67.7,76.7,49.7z"/>
	<path fill="#FFFFFF" d="M1223.6,138.6c15.7-15.4,40.5-19.3,61-12c6.9,2.4,13.2,6.4,18.2,11.7c-5.6,5.8-11.4,11.4-17,17.1
		c-10.1-13-31.9-12.2-42.4-0.1c-10.2,11.8-10.3,31-0.8,43.2c10.5,13.3,33.8,13.4,43.7-0.6c5.8,5.5,11.7,11.1,17.6,16.5
		c-12.9,15.2-34.7,20-53.7,15.7c-16-3.3-30.5-14.2-37.1-29.3C1204.1,180.6,1207.3,154.4,1223.6,138.6z"/>
	<path fill="#FFFFFF" d="M583.2,125.8c8.4,0,16.9,0,25.3,0c0,34.4,0,68.7,0,103.1c-8.5,0-16.9,0-25.3,0
		C583.2,194.6,583.2,160.2,583.2,125.8z"/>
	<path fill="#FFFFFF" d="M629.3,228.9c0-34.4,0-68.7,0-103.1c9.5,0,19,0,28.5,0c13.8,22.4,27.6,44.8,41.3,67.2
		c-0.2-22.4-0.3-44.8-0.6-67.2c8.2,0,16.4,0,24.5,0c0,34.3,0,68.7,0,103c-9.5,0-19,0.1-28.5-0.1c-13.7-22.5-27.5-44.8-41.3-67.2
		c0.4,22.4,0.2,44.9,0.6,67.3C645.7,228.9,637.5,228.9,629.3,228.9z"/>
	<path fill="#FFFFFF" d="M743.8,125.8c22.6,0,45.3,0,68,0c0,7.2,0,14.4,0,21.7c-14.4,0-28.7,0-43.1,0c0,6.9,0,13.8,0,20.6
		c13.3,0,26.5,0,39.8,0c0,7,0,14,0,20.9c-13.3-0.1-26.5-0.1-39.7,0c0,13.3,0,26.6,0,39.9c-8.3,0-16.6,0-24.9,0
		C743.8,194.5,743.8,160.2,743.8,125.8z"/>
	<path fill="#FFFFFF" d="M826.3,190.1c0-21.4,0-42.8,0-64.2c8.3,0,16.7,0,25.1,0c0,21.1,0,42.1,0,63.2c0,7.4,3.5,15.7,10.9,18.4
		c7.7,2.8,17.8,1.7,23-5.1c3.7-4.9,4.4-11.4,4.2-17.4c0-19.7,0-39.5,0-59.2c8.4,0,16.8,0,25.1,0c0,22,0,43.9,0,65.9
		c-0.1,12-5.7,24-15.5,31.2c-10.8,8.1-25.1,9.9-38.2,7.9c-11.2-1.7-22.1-7.8-28.2-17.5C828.2,206.5,826.3,198.2,826.3,190.1z"/>
	<path fill="#FFFFFF" d="M934.3,125.8c8.4,0,16.8,0,25.3,0c0,27,0,54,0,81c13.3,0,26.5,0,39.8,0c0,7.4,0,14.7,0,22.1
		c-21.7,0-43.4,0-65.1,0C934.3,194.5,934.3,160.2,934.3,125.8z"/>
	<path fill="#FFFFFF" d="M1010.5,125.8c23.2,0,46.3,0,69.4,0c0,7.2,0,14.3,0,21.5c-15,0-30,0-45.1,0c0,6.3,0,12.5,0,18.8
		c14.2,0,28.4,0,42.6,0c0,6.8,0,13.6,0,20.4c-14.2,0.1-28.5-0.1-42.7,0.1c0.1,6.9,0,13.8,0.1,20.8c15.9,0,31.8,0,47.6,0
		c0,7.2,0,14.4,0,21.6c-24,0-48,0-72,0C1010.5,194.6,1010.5,160.2,1010.5,125.8z"/>
	<path fill="#FFFFFF" d="M1098.5,125.8c9.5,0,18.9,0,28.4,0c13.9,22.3,27.6,44.8,41.4,67.1c-0.2-22.4-0.3-44.8-0.6-67.1
		c8.2,0,16.3,0,24.5,0c0,34.4,0,68.7,0,103.1c-9.4,0-18.9,0-28.3,0c-13.9-22.4-27.7-44.9-41.5-67.3c0,22.4,0.3,44.8,0.6,67.3
		c-8.2,0-16.3,0-24.5,0C1098.5,194.6,1098.5,160.2,1098.5,125.8z"/>
	<path fill="#FFFFFF" d="M1313.8,125.8c23.1,0,46.3,0,69.4,0c0,7.2,0,14.3,0,21.5c-15,0-30.1,0-45.1,0c0,6.3,0,12.5,0,18.8
		c14.2,0,28.4,0,42.6,0c0,6.8,0,13.6,0,20.4c-14.2,0-28.4,0-42.6,0c0,6.9,0,13.9,0,20.8c15.9,0.1,31.8,0,47.7,0c0,7.2,0,14.4,0,21.6
		c-24,0-48,0-72.1,0C1313.9,194.5,1313.8,160.2,1313.8,125.8z"/>
	<path fill="#FFFFFF" d="M1401.8,125.8c13.7,0,27.5,0,41.2,0c9.5,0.2,19.4,2.2,27.2,8.1c13.8,10.5,14.1,34,0.6,44.9
		c-3.3,2.9-7.3,4.7-11.4,6.1c8.9,14.7,18,29.2,26.8,44c-9.8,0-19.5,0-29.3,0c-7.5-13.6-14.8-27.2-22.2-40.8c-2.7,0-5.4,0-8.1,0
		c-0.1,13.6-0.1,27.2,0,40.8c-8.3,0-16.5,0-24.8,0C1401.9,194.5,1401.8,160.2,1401.8,125.8 M1426.5,146.3c0,7.8,0,15.6,0,23.4
		c7.9-0.4,16.4,1.3,23.7-2.5c7.4-3.4,7.5-16.1-0.3-19.1C1442.5,145.1,1434.3,146.6,1426.5,146.3z"/>
	<path fill="#000F30" d="M176.1,161.1c4.5-4.4,12.3-5.4,17.4-1.5c2,1.4,3.1,3.5,4.3,5.5c-6.4,3.1-12.9,5.9-19,9.6
		c-1.8,1.1-3.8,1.9-5.9,1.9C170.8,171.4,171.9,164.9,176.1,161.1z"/>
</g>
<g id="_x23_6e84c0ff">
	<path fill="#FFFFFF" d="M416.2,120.2c7-0.8,14.4,4.5,15.1,11.8c1,7.5-5.7,14.7-13.2,14.6c-7.2,0.6-14.3-5.4-14.5-12.7
		C403.4,127,409.3,120.6,416.2,120.2z"/>
	<path fill="#FFFFFF" d="M486.9,154.9c7.6-1.5,16.4-0.5,22.5,4.7c2.2,1.8,3.8,4.2,5.6,6.4c2.1-2.2,3.9-4.8,6.4-6.6
		c6.7-5,15.6-6,23.6-4.3c8,1.8,14.5,8.1,17.2,15.8c2.6,6.8,2.4,14.1,2.3,21.2c0,12.3,0,24.6,0,36.9c-8.1,0-16.2,0-24.3,0
		c0-13.6,0-27.3,0-40.9c-0.2-4.2-0.6-9.2-4.1-12.1c-4.3-2.9-10.8-2-14.1,2c-2.8,3.4-3.6,7.8-3.6,12.1c0,13,0,25.9,0,38.9
		c-8.1,0-16.2,0-24.2,0c0-14,0-27.9,0-41.9c0-4.1-1-8.9-4.6-11.4c-4.5-2.6-10.9-1.4-14,2.8c-2.2,3.1-3.1,6.9-3.1,10.6
		c-0.1,13.3,0,26.6,0,39.9c-8.1,0-16.2,0-24.3,0c0-24.2,0-48.4,0-72.6c7.8,0,15.7,0,23.5,0.1c0,3.3,0,6.5-0.1,9.8
		C475,160.6,480.5,156.2,486.9,154.9z"/>
	<path fill="#FFFFFF" d="M405.4,156.3c8-0.1,16.1,0,24.1,0c0,24.2,0,48.4,0,72.6c-8,0-16.1,0-24.1,0
		C405.5,204.7,405.5,180.5,405.4,156.3z"/>
</g>
<g id="_x23_cccfd6ff">
	<path fill="#CCCFD6" d="M271.2,151.8c10.3,12.6,14,29.3,14.4,45.2c0.3,28.9-9,57.6-24.9,81.6c-19.9,29-52.6,48.9-87.4,53.9
		c-10.3,1.6-20.8,1.3-31.2,0.6c-5.3-0.5-10.7-0.8-15.8-2.4c-1.3-0.2-2-1.3-2.7-2.3c11.8,0.4,23.9-0.4,35-4.5
		c14.8-5.3,27-16.1,36.6-28.4c11.6-16.4,19-36.5,17.4-56.7c-0.1-3.6-2.1-6.9-5.6-8c3.9-0.8,7.9,0,11.9-0.1
		c14.7-0.1,29.5-5.3,40.4-15.2c8.8-7.9,13.5-19.5,14.5-31.2C274.9,173.3,273.1,162.4,271.2,151.8z"/>
</g>
</svg>
