<?xml version="1.0" encoding="utf-8"?>
<!-- Generator: Adobe Illustrator 18.0.0, SVG Export Plug-In . SVG Version: 6.00 Build 0)  -->
<!DOCTYPE svg PUBLIC "-//W3C//DTD SVG 1.1//EN" "http://www.w3.org/Graphics/SVG/1.1/DTD/svg11.dtd">
<svg version="1.1" xmlns="http://www.w3.org/2000/svg" xmlns:xlink="http://www.w3.org/1999/xlink" x="0px" y="0px"
	 viewBox="0 0 90 90" enable-background="new 0 0 90 90" xml:space="preserve">
<g id="Background">
</g>
<g id="Design">
	<g opacity="0.1">
		<circle fill="#33CCFF" cx="44.5" cy="45.4" r="41.9"/>
	</g>
	<g>
		<path fill="#33CCFF" d="M68.8,29.9c-1.6,0.7-3.3,1.1-5,1.4c0.8-0.1,2-1.6,2.5-2.2c0.7-0.9,1.3-1.9,1.7-3c0-0.1,0.1-0.2,0-0.3
			c-0.1,0-0.2,0-0.3,0c-1.9,1-3.8,1.7-5.9,2.3c-0.2,0-0.3,0-0.4-0.1c-0.2-0.2-0.3-0.4-0.5-0.5c-0.9-0.7-1.8-1.3-2.9-1.8
			c-1.4-0.6-2.9-0.8-4.4-0.7c-1.5,0.1-2.9,0.5-4.2,1.2c-1.3,0.7-2.5,1.6-3.4,2.8c-1,1.2-1.7,2.6-2,4c-0.3,1.4-0.3,2.8-0.1,4.3
			c0,0.2,0,0.3-0.2,0.2c-8.1-1.2-14.9-4.1-20.4-10.4c-0.2-0.3-0.4-0.3-0.6,0c-2.4,3.6-1.2,9.4,1.8,12.2c0.4,0.4,0.8,0.8,1.3,1.1
			c-0.2,0-2.2-0.2-3.9-1.1c-0.2-0.2-0.4-0.1-0.4,0.2c0,0.4,0,0.7,0.1,1.2c0.5,3.6,3,7,6.4,8.3c0.4,0.2,0.9,0.3,1.3,0.4
			c-0.8,0.2-1.6,0.3-3.9,0.1c-0.3-0.1-0.4,0.1-0.3,0.4c1.7,4.6,5.4,6,8.1,6.8c0.4,0.1,0.7,0.1,1.1,0.2c0,0,0,0-0.1,0.1
			c-0.9,1.4-4.1,2.4-5.5,2.9c-2.7,0.9-5.6,1.4-8.4,1.1c-0.5-0.1-0.5-0.1-0.7,0c-0.1,0.1,0,0.2,0.1,0.3c0.6,0.4,1.2,0.7,1.7,1
			c1.8,0.9,3.7,1.7,5.6,2.2c10.1,2.8,21.5,0.7,29-6.8c6-5.9,8-14.1,8-22.2c0-0.3,0.4-0.5,0.6-0.7c1.5-1.2,2.8-2.6,3.9-4.1
			C69,30.4,69,30.1,69,30c0,0,0,0,0,0C69,29.8,69,29.8,68.8,29.9z"/>
		<path fill-rule="evenodd" clip-rule="evenodd" fill="#FFFFFF" d="M34.5,65.6C38.7,65.6,34.7,65.6,34.5,65.6
			C35,65.6,34.4,65.6,34.5,65.6z"/>
		<path fill-rule="evenodd" clip-rule="evenodd" fill="#FFFFFF" d="M34.5,65.6C34.4,65.6,33.7,65.6,34.5,65.6
			C34.5,65.6,34.3,65.6,34.5,65.6z"/>
		<path fill-rule="evenodd" clip-rule="evenodd" fill="#FFFFFF" d="M36.1,65.6C36.1,65.5,37,65.6,36.1,65.6
			C36.1,65.6,36.2,65.6,36.1,65.6z"/>
		<path fill-rule="evenodd" clip-rule="evenodd" fill="#FFFFFF" d="M53.6,25.1c-0.1,0-0.1,0-0.2,0C53.5,25.1,53.6,25.1,53.6,25.1z"
			/>
	</g>
</g>
</svg>
