<?xml version="1.0" encoding="utf-8"?>
<!-- Generator: Adobe Illustrator 18.0.0, SVG Export Plug-In . SVG Version: 6.00 Build 0)  -->
<!DOCTYPE svg PUBLIC "-//W3C//DTD SVG 1.1//EN" "http://www.w3.org/Graphics/SVG/1.1/DTD/svg11.dtd">
<svg version="1.1" xmlns="http://www.w3.org/2000/svg" xmlns:xlink="http://www.w3.org/1999/xlink" x="0px" y="0px"
	 viewBox="0 0 90 90" enable-background="new 0 0 90 90" xml:space="preserve">
<g id="Background">
</g>
<g id="Design">
	<g opacity="0.1">
		<circle fill="#FF0000" cx="44.5" cy="45.4" r="41.9"/>
	</g>
	<g>
		<path fill="#FF0000" d="M70,38.9c0-6-4.9-10.9-10.9-10.9H30.9c-6,0-10.9,4.9-10.9,10.9v13.2c0,6,4.9,10.9,10.9,10.9h28.2
			c6,0,10.9-4.9,10.9-10.9V38.9z M52.2,46.1l-11.3,6.2c-0.5,0.3-0.9-0.1-0.9-0.6V38.9c0-0.6,0.5-0.9,0.9-0.6l11.3,6.5
			C52.8,45.1,52.7,45.8,52.2,46.1z"/>
	</g>
</g>
</svg>
