<svg fill="#ff9900" height="409pt" viewBox="-17 0 409 409.6" width="409pt" xmlns="http://www.w3.org/2000/svg"><path d="m130.007812 341.332031c-62.882812 0-129.707031-16.746093-129.707031-47.785156v-40.960937c0-3.773438 3.050781-6.824219 6.824219-6.824219s6.828125 3.050781 6.828125 6.824219v40.960937c0 14.253906 44.152344 34.132813 116.054687 34.132813 13.203126 0 26.152344-.707032 38.484376-2.09375 3.714843-.414063 7.128906 2.28125 7.546874 6.027343.421876 3.746094-2.277343 7.117188-6.023437 7.546875-12.835937 1.4375-26.296875 2.171875-40.007813 2.171875zm0 0"/><path d="m130.007812 300.375c-62.882812 0-129.707031-16.746094-129.707031-47.789062v-40.960938c0-3.773438 3.050781-6.824219 6.824219-6.824219s6.828125 3.050781 6.828125 6.824219v40.960938c0 14.253906 44.152344 34.132812 116.054687 34.132812 10.445313 0 20.800782-.445312 30.773438-1.316406 3.859375-.394532 7.074219 2.453125 7.398438 6.199218.332031 3.757813-2.449219 7.074219-6.199219 7.398438-10.375.914062-21.132813 1.375-31.972657 1.375zm0 0"/><path d="m252.886719 204.800781c-3.773438 0-6.828125-3.054687-6.828125-6.828125v-27.304687c0-3.773438 3.054687-6.828125 6.828125-6.828125 3.773437 0 6.828125 3.054687 6.828125 6.828125v27.304687c0 3.773438-3.054688 6.828125-6.828125 6.828125zm0 0"/><path d="m130.007812 259.414062c-62.882812 0-129.707031-16.746093-129.707031-47.789062v-40.957031c0-3.773438 3.050781-6.828125 6.824219-6.828125s6.828125 3.054687 6.828125 6.828125v40.957031c0 14.253906 44.152344 34.136719 116.054687 34.136719 15.078126 0 29.777344-.914063 43.703126-2.722657 3.746093-.519531 7.167968 2.148438 7.648437 5.886719.484375 3.738281-2.148437 7.167969-5.886719 7.644531-14.503906 1.890626-29.804687 2.84375-45.464844 2.84375zm0 0"/><path d="m130.007812 218.453125c-62.882812 0-129.707031-16.746094-129.707031-47.785156v-40.960938c0-3.773437 3.050781-6.828125 6.824219-6.828125s6.828125 3.054688 6.828125 6.828125v40.960938c0 14.253906 44.152344 34.132812 116.054687 34.132812 71.898438 0 116.050782-19.878906 116.050782-34.132812v-40.960938c0-3.773437 3.054687-6.828125 6.828125-6.828125 3.773437 0 6.828125 3.054688 6.828125 6.828125v40.960938c0 31.039062-66.828125 47.785156-129.707032 47.785156zm0 0"/><path d="m130.007812 177.492188c-62.882812 0-129.707031-16.746094-129.707031-47.785157v-40.960937c0-3.773438 3.050781-6.824219 6.824219-6.824219s6.828125 3.050781 6.828125 6.824219v40.960937c0 14.253907 44.152344 34.132813 116.054687 34.132813 71.898438 0 116.050782-19.878906 116.050782-34.132813v-40.960937c0-3.773438 3.054687-6.824219 6.828125-6.824219 3.773437 0 6.828125 3.050781 6.828125 6.824219v40.960937c0 31.039063-66.828125 47.785157-129.707032 47.785157zm0 0"/><path d="m130.007812 136.535156c-62.882812 0-129.707031-16.746094-129.707031-47.789062v-40.960938c0-3.773437 3.050781-6.824218 6.824219-6.824218s6.828125 3.050781 6.828125 6.824218v40.960938c0 14.253906 44.152344 34.132812 116.054687 34.132812 71.898438 0 116.050782-19.878906 116.050782-34.132812v-40.960938c0-3.773437 3.054687-6.824218 6.828125-6.824218 3.773437 0 6.828125 3.050781 6.828125 6.824218v40.960938c0 31.042968-66.828125 47.789062-129.707032 47.789062zm0 0"/><path d="m130.007812 95.574219c-62.882812 0-129.707031-16.746094-129.707031-47.789063 0-31.039062 66.824219-47.785156 129.707031-47.785156 62.878907 0 129.707032 16.746094 129.707032 47.785156 0 31.042969-66.828125 47.789063-129.707032 47.789063zm0-81.921875c-71.902343 0-116.054687 19.878906-116.054687 34.132812s44.152344 34.136719 116.054687 34.136719c71.898438 0 116.050782-19.882813 116.050782-34.136719s-44.152344-34.132812-116.050782-34.132812zm0 0"/><path d="m266.539062 409.601562c-60.226562 0-109.226562-49-109.226562-109.226562s49-109.226562 109.226562-109.226562c60.226563 0 109.226563 49 109.226563 109.226562s-49 109.226562-109.226563 109.226562zm0-204.800781c-52.699218 0-95.574218 42.871094-95.574218 95.574219 0 52.699219 42.875 95.570312 95.574218 95.570312 52.699219 0 95.574219-42.871093 95.574219-95.570312 0-52.703125-42.875-95.574219-95.574219-95.574219zm0 0"/><path d="m266.539062 389.121094c-48.933593 0-88.746093-39.8125-88.746093-88.746094s39.8125-88.75 88.746093-88.75c48.933594 0 88.746094 39.816406 88.746094 88.75s-39.8125 88.746094-88.746094 88.746094zm0-163.839844c-41.40625 0-75.09375 33.683594-75.09375 75.09375 0 41.40625 33.6875 75.089844 75.09375 75.089844s75.09375-33.683594 75.09375-75.089844c0-41.410156-33.6875-75.09375-75.09375-75.09375zm0 0"/><path d="m244.453125 262.648438c0-.722657.480469-1.195313 1.195313-1.195313h30.199218c17.191406 0 25.304688 8.59375 25.304688 21.609375 0 9.191406-4.292969 14.4375-9.425782 17.183594v.242187c5.015626 1.914063 10.859376 8.359375 10.859376 18.265625 0 16.113282-10.144532 23.875-27.933594 23.875h-29.003906c-.714844 0-1.195313-.480468-1.195313-1.195312zm31.039063 32.585937c7.160156 0 11.582031-4.296875 11.582031-10.621094 0-6.445312-4.421875-10.746093-11.582031-10.746093h-16.238282c-.472656 0-.714844.238281-.714844.710937v19.941406c0 .472657.242188.714844.714844.714844zm-16.238282 34.976563h16.953125c7.878907 0 12.292969-4.539063 12.292969-11.339844 0-6.6875-4.414062-11.226563-12.292969-11.226563h-16.953125c-.472656 0-.714844.242188-.714844.722657v21.125c0 .480468.242188.71875.714844.71875zm0 0"/><path d="m266.539062 273.066406c-3.773437 0-6.824218-3.054687-6.824218-6.828125v-13.652343c0-3.773438 3.050781-6.824219 6.824218-6.824219 3.773438 0 6.828126 3.050781 6.828126 6.824219v13.652343c0 3.773438-3.054688 6.828125-6.828126 6.828125zm0 0"/><path d="m266.539062 354.988281c-3.773437 0-6.824218-3.054687-6.824218-6.828125v-6.828125c0-3.773437 3.050781-6.824219 6.824218-6.824219 3.773438 0 6.828126 3.050782 6.828126 6.824219v6.828125c0 3.773438-3.054688 6.828125-6.828126 6.828125zm0 0"/></svg>