<?xml version="1.0" encoding="iso-8859-1"?>
<!-- Generator: Adobe Illustrator 16.0.0, SVG Export Plug-In . SVG Version: 6.00 Build 0)  -->
<!DOCTYPE svg PUBLIC "-//W3C//DTD SVG 1.1//EN" "http://www.w3.org/Graphics/SVG/1.1/DTD/svg11.dtd">
<svg version="1.1" id="Capa_1" xmlns="http://www.w3.org/2000/svg" xmlns:xlink="http://www.w3.org/1999/xlink" x="0px" y="0px"
	 width="485.213px" height="485.212px" viewBox="0 0 485.213 485.212" style="enable-background:new 0 0 485.213 485.212;"
	 xml:space="preserve">
<g>
	<path d="M421.654,135.875c1.783,5.125,2.907,10.366,2.907,15.754c0,50.227-81.473,90.978-181.955,90.978
		s-181.956-40.75-181.956-90.978c0-5.391,1.097-10.629,2.905-15.754c30.887,36.427,98.527,61.244,179.05,61.244
		C323.127,197.119,390.768,172.301,421.654,135.875z M242.606,257.772c-80.523,0-148.164-24.819-179.05-61.246
		c-1.809,5.125-2.905,10.366-2.905,15.756c0,50.228,81.473,90.976,181.956,90.976s181.955-40.748,181.955-90.976
		c0-5.39-1.124-10.631-2.907-15.756C390.768,232.953,323.127,257.772,242.606,257.772z M242.606,318.416
		c-80.523,0-148.164-24.81-179.05-61.241c-1.809,5.125-2.905,10.37-2.905,15.756c0,50.228,81.473,90.976,181.956,90.976
		s181.955-40.748,181.955-90.976c0-5.386-1.124-10.631-2.907-15.756C390.768,293.606,323.127,318.416,242.606,318.416z
		 M242.606,379.074c-80.523,0-148.164-24.819-179.05-61.246c-1.809,5.125-2.905,10.366-2.905,15.757
		c0,50.227,81.473,90.975,181.956,90.975s181.955-40.748,181.955-90.975c0-5.391-1.124-10.632-2.907-15.757
		C390.768,354.254,323.127,379.074,242.606,379.074z M242.606,439.727c-80.523,0-148.164-24.819-179.05-61.246
		c-1.809,5.12-2.905,10.366-2.905,15.756c0,50.228,81.473,90.976,181.956,90.976s181.955-40.748,181.955-90.976
		c0-5.39-1.124-10.636-2.907-15.756C390.768,414.908,323.127,439.727,242.606,439.727z M60.651,90.978
		C60.651,40.75,142.124,0,242.606,0s181.955,40.75,181.955,90.978s-81.473,90.978-181.955,90.978S60.651,141.205,60.651,90.978z
		 M275.359,111.177c0,3.022-2.548,5.628-7.64,7.759c-5.092,2.164-13.086,3.228-23.897,3.228c-23.13,0-36.753-5.003-40.872-15.017
		l-44.421,4.621c8.975,15.936,32.222,24.67,69.801,26.21v13.651h28.731v-13.712c22.537-0.947,39.772-4.116,51.706-9.446
		c11.934-5.36,17.917-12.024,17.917-20.078c0-5.213-2.902-9.775-8.681-13.684c-5.801-3.881-13.53-6.961-23.242-9.183
		c-9.684-2.191-23.069-4.56-40.127-7.05c-15.521-2.277-25.679-4.203-30.39-5.745c-4.737-1.54-7.105-3.759-7.105-6.632
		c0-2.845,2.457-5.271,7.372-7.257c4.889-1.983,11.404-2.989,19.518-2.989c16.174,0,28.075,4.471,35.804,13.385l39.567-6.515
		c-9.446-12.97-30.238-20.255-62.338-21.798V30.327H228.33v10.601c-21.261,1.213-36.837,4.501-46.731,9.864
		c-9.892,5.358-14.865,11.43-14.865,18.15c0,5.097,2.784,9.598,8.319,13.479c5.538,3.851,12.765,6.842,21.648,8.973
		c8.886,2.13,21.235,4.324,37.019,6.515c17.562,2.49,28.908,4.501,34,6.161C272.812,105.667,275.359,108.038,275.359,111.177z"/>
</g>
<g>
</g>
<g>
</g>
<g>
</g>
<g>
</g>
<g>
</g>
<g>
</g>
<g>
</g>
<g>
</g>
<g>
</g>
<g>
</g>
<g>
</g>
<g>
</g>
<g>
</g>
<g>
</g>
<g>
</g>
</svg>
